<?xml version="1.0" encoding="utf-8"?><svg viewBox="0 0 107 69" xmlns="http://www.w3.org/2000/svg" xmlns:xlink="http://www.w3.org/1999/xlink"><style>:root>svg{display:none}:root>svg:target{display:block}</style><svg viewBox="0 0 107 69" id="logo" xmlns="http://www.w3.org/2000/svg"><g clip-path="url(#aclip0_12359_364)"><path d="M71.867 32.252l-1.935-4.588h-3.05l3.539 7.091v3.907h2.889v-3.897l3.532-7.091h-3.05l-1.925 4.578zm-6.078 6.42V27.674h-2.832v6.38l-3.688-6.39h-2.84v10.998h2.84v-6.387l3.698 6.397h2.822zm-16.926-4.103l1.073-3.474 1.08 3.474h-2.153zm3.424 4.102h3.06l-4.064-10.997H48.59l-4.04 10.998h3.05l.564-1.822h3.563l.56 1.822zm-11.555-5.855h-1.63v-2.861h1.63a1.356 1.356 0 011.103.445 1.7 1.7 0 01.373 1.124 1.236 1.236 0 01-.367.94 1.542 1.542 0 01-1.109.352zm0-5.142h-4.467v10.998h2.836v-3.566h1.631a5.466 5.466 0 002.31-.452 3.542 3.542 0 001.52-1.272c.358-.558.543-1.209.531-1.87a3.725 3.725 0 00-.532-1.967 3.623 3.623 0 00-1.521-1.366 5.063 5.063 0 00-2.311-.495l.003-.01zm-6.804.01h-3.74l-2.311 7.294-2.311-7.294h-3.728V38.68h2.846v-2.077l-.28-5.59 2.548 7.667h1.855l2.552-7.668-.274 5.59v2.078h2.846l-.003-10.997zM17.42 32.97v.416a4.356 4.356 0 01-.518 2.326 1.644 1.644 0 01-1.476.823 1.66 1.66 0 01-1.509-.813 4.446 4.446 0 01-.508-2.336v-.416c0-2.087.668-3.131 2.004-3.133a1.66 1.66 0 011.486.803c.35.537.521 1.31.521 2.33zm2.899.416v-.4a6.285 6.285 0 00-.628-2.89 4.601 4.601 0 00-1.743-1.901 5.214 5.214 0 00-5.087 0 4.538 4.538 0 00-1.73 1.9 6.37 6.37 0 00-.62 2.89v.4a6.38 6.38 0 00.62 2.891c.383.785.99 1.44 1.747 1.884a4.901 4.901 0 002.558.656 4.852 4.852 0 002.536-.656 4.508 4.508 0 001.733-1.894 6.336 6.336 0 00.624-2.89l-.01.01zM9.577 34.88h-2.83a1.524 1.524 0 01-.471 1.229c-.387.282-.862.42-1.34.387a1.91 1.91 0 01-1.103-.276 1.597 1.597 0 01-.575-.94 7.613 7.613 0 01-.178-1.875v-.475a6.927 6.927 0 01.195-1.838c.082-.378.286-.718.58-.97a1.66 1.66 0 011.021-.292c.673 0 1.155.138 1.446.413a1.756 1.756 0 01.442 1.31h2.83a4.603 4.603 0 00-.677-2.087 3.843 3.843 0 00-1.595-1.425 5.451 5.451 0 00-2.446-.54 4.578 4.578 0 00-2.463.655 4.355 4.355 0 00-1.65 1.884 6.714 6.714 0 00-.581 2.89v.469a6.952 6.952 0 00.557 2.897 4.15 4.15 0 001.631 1.87c.775.452 1.661.68 2.559.656.823.017 1.64-.15 2.39-.488a3.82 3.82 0 001.621-1.383 3.957 3.957 0 00.637-2.071zM33.598 22.201a1.603 1.603 0 00-.773.18 1.36 1.36 0 00-.72 1.21c-.004.252.062.5.192.718.126.212.309.386.528.501a1.69 1.69 0 001.545 0c.22-.115.403-.289.529-.501.128-.218.194-.466.191-.718a1.357 1.357 0 00-.72-1.21 1.602 1.602 0 00-.772-.18zm-7.24.44h-1.65v-2.268h1.776c.86 0 1.29.403 1.29 1.21a.977.977 0 01-.33.76c-.309.223-.688.328-1.07.298h-.016zm-.472-6.443c.437-.035.874.062 1.254.279a1.057 1.057 0 01.39.92.941.941 0 01-.373.833 2.398 2.398 0 01-1.294.255h-1.166v-2.293l1.189.006zm2.971 3.15a2.143 2.143 0 001.156-.931c.247-.438.372-.934.363-1.436a2.56 2.56 0 00-.277-1.302 2.583 2.583 0 00-.895-.992c-.784-.517-1.884-.776-3.302-.776h-4.04v11h4.496c2.826 0 4.239-1.092 4.239-3.276a2.52 2.52 0 00-.42-1.426 2.104 2.104 0 00-1.32-.862zm-11.508-.145v.433a4.393 4.393 0 01-.519 2.326 1.76 1.76 0 01-1.485.805 1.776 1.776 0 01-1.486-.805c-.35-.544-.525-1.32-.525-2.326v-.433c0-2.09.667-3.136 2-3.136a1.68 1.68 0 011.506.806c.348.538.522 1.314.522 2.33h-.013zm2.895.433v-.416a6.328 6.328 0 00-.627-2.89 4.568 4.568 0 00-1.744-1.901 5.194 5.194 0 00-5.087 0 4.517 4.517 0 00-1.73 1.9 6.328 6.328 0 00-.62 2.89v.417a6.32 6.32 0 00.62 2.887c.378.787.98 1.447 1.734 1.897a4.944 4.944 0 002.561.655 4.867 4.867 0 002.532-.655 4.485 4.485 0 001.737-1.897c.433-.9.647-1.89.624-2.887zM4.992 22.657H3.34v-2.284h1.773c.86 0 1.292.403 1.294 1.21a.977.977 0 01-.33.76c-.308.223-.687.329-1.067.298l-.02.016zm-.472-6.459c.437-.035.874.062 1.254.279a1.063 1.063 0 01.39.92.94.94 0 01-.373.833 2.408 2.408 0 01-1.295.255H3.331v-2.293l1.189.006zm2.97 3.15a2.143 2.143 0 001.156-.931c.244-.44.367-.934.357-1.436.025-.45-.07-.9-.276-1.303a2.573 2.573 0 00-.896-.99c-.78-.518-1.885-.777-3.302-.777H.492v11h4.5c2.826 0 4.239-1.092 4.239-3.276a2.545 2.545 0 00-.42-1.426 2.114 2.114 0 00-1.32-.862zM49.751 9.123c-.184 0-.366-.048-.525-.14a1.086 1.086 0 01-.409-.4 1.16 1.16 0 01-.155-.6 1.774 1.774 0 01.08-.57c.056-.163.14-.314.247-.45l.046-.029 1.79 1.966c-.342.138-.706.209-1.074.21v.013zm-.502-6.102a.835.835 0 01.218-.596.826.826 0 01.634-.236.714.714 0 01.562.24.783.783 0 01.214.537 1.016 1.016 0 01-.119.468c-.13.207-.312.377-.528.492l-.449.288a3.272 3.272 0 01-.4-.636 1.34 1.34 0 01-.132-.566v.01zm6.626 8.124l-1.703-1.917c.693-.911 1.04-2.145 1.043-3.703h-2.268a3.863 3.863 0 01-.452 1.832l-1.558-1.753.623-.44a3.727 3.727 0 001.063-1.09c.263-.402.403-.87.403-1.348a2.624 2.624 0 00-.368-1.372A2.65 2.65 0 0051.626.37 3.075 3.075 0 0050.099 0a3.397 3.397 0 00-1.667.397c-.47.25-.859.629-1.12 1.09a3.168 3.168 0 00-.164 2.708c.184.437.415.853.69 1.242l-.076.045a8.837 8.837 0 00-1.007.82 3.059 3.059 0 00-.618.848c-.153.332-.23.694-.224 1.059-.01.568.143 1.127.442 1.612.305.481.744.864 1.265 1.101a4.413 4.413 0 001.924.393 6.06 6.06 0 001.492-.17 5.74 5.74 0 001.321-.534l.489.544 3.03-.01zm-12.06-8.717V.134h-7.744v11.02h7.715V8.882h-4.88V6.616h4.117V4.424h-4.117V2.438l4.91-.01zm-9.273 4.916h-2.823a1.525 1.525 0 01-.472 1.232 2.048 2.048 0 01-1.32.383 1.902 1.902 0 01-1.103-.275 1.617 1.617 0 01-.578-.94 7.603 7.603 0 01-.178-1.872v-.458a6.956 6.956 0 01.195-1.839 1.78 1.78 0 01.58-.983 1.66 1.66 0 011.021-.292c.676 0 1.158.138 1.446.413a1.755 1.755 0 01.442 1.311h2.83a4.643 4.643 0 00-.66-2.097A3.906 3.906 0 0032.326.5a5.475 5.475 0 00-2.46-.51 4.565 4.565 0 00-2.46.655 4.332 4.332 0 00-1.65 1.884 6.667 6.667 0 00-.584 2.89v.462a6.91 6.91 0 00.561 2.897 4.134 4.134 0 001.628 1.868 4.851 4.851 0 002.561.655 5.564 5.564 0 002.39-.485 3.875 3.875 0 001.618-1.383c.4-.62.616-1.338.624-2.074l-.013-.016zM23.442.157h-2.828v10.998h2.829V.157zm-8.725 8.724V.157h-2.829v10.998h7.395V8.88h-4.566zM4.315 7.055l1.073-3.477L6.47 7.055H4.315zm3.427 4.1h3.057L6.735.157H4.04L.003 11.155h3.054l.561-1.819h3.56l.564 1.819zM107 44.206H.29V69H107V44.206z"/></g><defs><clipPath id="aclip0_12359_364"><path d="M0 0h107v69H0z"/></clipPath></defs></svg></svg>