<?xml version="1.0" encoding="utf-8"?><svg viewBox="0 0 240 240" xmlns="http://www.w3.org/2000/svg" xmlns:xlink="http://www.w3.org/1999/xlink"><style>:root>svg{display:none}:root>svg:target{display:block}</style><svg viewBox="0 0 240 240" id="gradient-circle" xmlns="http://www.w3.org/2000/svg"><circle cx="120" cy="120" r="120" fill-opacity=".1"/><defs><radialGradient id="apaint0_radial_12359_360" cx="0" cy="0" r="1" gradientUnits="userSpaceOnUse" gradientTransform="rotate(90 0 120) scale(120)"><stop stop-color="#F57A17"/><stop offset="1" stop-color="#F57A17" stop-opacity="0"/></radialGradient></defs></svg><svg viewBox="0 0 64 64" id="item-1" xmlns="http://www.w3.org/2000/svg"><g clip-path="url(#bclip0_12404_707)"><path d="M60.799 42.018v-5.095a1.6 1.6 0 00-1.6-1.6h-8v-6.4h8a1.6 1.6 0 001.6-1.6V22.23a4.8 4.8 0 10-3.2 0v3.494h-6.4v-4.8a1.6 1.6 0 00-1.6-1.6h-4.8v-6.4C44.8 5.855 39.07.124 32 .124c-7.07 0-12.8 5.731-12.8 12.8v6.4h-4.799a1.6 1.6 0 00-1.6 1.6v4.8H6.4V22.23a4.8 4.8 0 10-3.2 0v5.094a1.6 1.6 0 001.6 1.6h8v6.4h-8a1.6 1.6 0 00-1.6 1.6v5.094a4.8 4.8 0 103.2 0v-3.495h6.4v8a1.6 1.6 0 001.6 1.6h11.2v9.6h-3.495a4.8 4.8 0 100 3.2H27.2a1.6 1.6 0 001.6-1.6v-11.2h6.4v11.2a1.6 1.6 0 001.6 1.6h5.094a4.8 4.8 0 100-3.2H38.4v-9.6h11.199a1.6 1.6 0 001.6-1.6v-8h6.4v3.495a4.8 4.8 0 103.2 0zm-1.6-25.894a1.6 1.6 0 110 3.2 1.6 1.6 0 010-3.2zm-54.398 0a1.6 1.6 0 110 3.2 1.6 1.6 0 010-3.2zm0 32a1.6 1.6 0 110-3.2 1.6 1.6 0 010 3.2zm12.8 12.798a1.6 1.6 0 110-3.2 1.6 1.6 0 010 3.2zm28.799-3.2a1.6 1.6 0 110 3.2 1.6 1.6 0 010-3.2zm-24-44.798a9.6 9.6 0 019.6-9.6 9.6 9.6 0 019.6 9.6v6.4H22.4v-6.4zM48 44.923H16v-22.4h32v22.4zm11.199 3.2a1.6 1.6 0 110-3.2 1.6 1.6 0 010 3.2z"/><path d="M32 28.924a1.6 1.6 0 00-1.6 1.6v6.4a1.6 1.6 0 103.2 0v-6.4a1.6 1.6 0 00-1.6-1.6z"/></g><defs><clipPath id="bclip0_12404_707"><path d="M0 0h64v64H0z"/></clipPath></defs></svg><svg viewBox="0 0 64 64" id="item-2" xmlns="http://www.w3.org/2000/svg"><g clip-path="url(#cclip0_12404_708)"><path d="M13.728 26.353A5.653 5.653 0 008.08 32c.31 7.492 10.985 7.49 11.294 0a5.653 5.653 0 00-5.647-5.647zm0 7.53A1.884 1.884 0 0111.845 32c.104-2.497 3.662-2.497 3.765 0a1.885 1.885 0 01-1.882 1.882z"/><path d="M57.022 48.941a5.611 5.611 0 00-2.783.736l-4.747-3.56V38.81l2.327-1.163h5.982L63.45 32 57.8 26.353h-8.309v-8.47l4.747-3.56c3.677 2.146 8.472-.63 8.43-4.911a5.653 5.653 0 00-5.647-5.647c-3.91-.06-6.74 4.102-5.257 7.707L45.728 16v10.353h-3.765V10.97C47.858 8.79 46.446.12 40.081 0c-6.366.12-7.777 8.79-1.883 10.97v15.383h-3.764V16l-6.038-4.528c1.483-3.605-1.346-7.768-5.256-7.707a5.653 5.653 0 00-5.647 5.647c-.042 4.281 4.752 7.058 8.43 4.91l4.746 3.56v8.47h-5.034C19.495 13.797.735 17.963.551 32c.185 14.04 18.946 18.202 25.084 5.647h5.034v8.47l-4.747 3.56c-3.677-2.146-8.472.63-8.43 4.911a5.653 5.653 0 005.648 5.647c3.91.06 6.74-4.102 5.256-7.707L34.434 48V37.647h1.438l2.326 1.163v14.22C32.303 55.21 33.716 63.88 40.081 64c6.365-.12 7.776-8.79 1.882-10.97V38.81l1.882-.94 1.883.94V48l6.037 4.528c-1.483 3.605 1.346 7.768 5.257 7.707 7.491-.31 7.49-10.985 0-11.294zm0-41.412c1.038 0 1.882.845 1.882 1.883-.103 2.497-3.662 2.496-3.765 0 0-1.038.845-1.883 1.883-1.883zM40.08 3.765c1.038 0 1.882.844 1.882 1.882-.103 2.497-3.662 2.497-3.765 0 0-1.038.845-1.882 1.883-1.882zM21.257 9.412c0-1.038.845-1.883 1.883-1.883 2.497.104 2.496 3.662 0 3.765a1.885 1.885 0 01-1.883-1.882zM23.14 56.47a1.884 1.884 0 01-1.883-1.883c.104-2.497 3.662-2.496 3.765 0a1.885 1.885 0 01-1.882 1.883zm16.94 3.764a1.884 1.884 0 01-1.882-1.882c.104-2.497 3.662-2.497 3.765 0a1.884 1.884 0 01-1.882 1.882zm0-24.693l-3.32-1.66H23.047l-.443 1.255C18.924 45.013 4.497 42.55 4.316 32c.182-10.552 14.609-13.012 18.288-3.137l.443 1.255h33.195L58.125 32l-1.883 1.882h-5.311l-3.32 1.66-3.765-1.882-3.765 1.883zm16.942 20.929a1.884 1.884 0 01-1.883-1.883c.104-2.497 3.662-2.496 3.765 0a1.884 1.884 0 01-1.882 1.883z"/></g><defs><clipPath id="cclip0_12404_708"><path d="M0 0h64v64H0z"/></clipPath></defs></svg><svg viewBox="0 0 64 64" id="item-3" xmlns="http://www.w3.org/2000/svg"><path fill-rule="evenodd" clip-rule="evenodd" d="M49.059 28.986h7.463c.824 0 1.492-.668 1.492-1.493v-4.752a4.478 4.478 0 10-2.985 0V26h-5.97v2.985zm7.52-9.046a1.55 1.55 0 100-3.1 1.55 1.55 0 000 3.1zM35.004 50.716v7.463c0 .824.668 1.492 1.493 1.492h4.752a4.478 4.478 0 100-2.985h-3.26v-5.97h-2.985zm9.047 7.52a1.55 1.55 0 103.099 0 1.55 1.55 0 00-3.1 0zM14.941 28.986H7.48a1.493 1.493 0 01-1.493-1.493v-4.752a4.478 4.478 0 112.985 0V26h5.97v2.985zm-7.52-9.047a1.55 1.55 0 110-3.099 1.55 1.55 0 010 3.1zM45.648 37.515h10.874c.825 0 1.493.669 1.493 1.493v4.752a4.478 4.478 0 11-2.986 0V40.5h-9.381v-2.985zm10.932 9.047a1.55 1.55 0 110 3.099 1.55 1.55 0 010-3.1zM26.477 49.863v8.316c0 .825-.669 1.493-1.493 1.493H20.23a4.478 4.478 0 110-2.986h3.26v-6.823h2.986zm-9.047 8.374a1.55 1.55 0 11-3.1 0 1.55 1.55 0 013.1 0zM18.352 37.516H7.478c-.825 0-1.493.668-1.493 1.492v4.753a4.478 4.478 0 102.986 0V40.5h9.381v-2.985zM7.42 46.562a1.55 1.55 0 100 3.1 1.55 1.55 0 000-3.1z"/><path d="M50.513 18.23C49.483 7.892 40.263.355 29.925 1.385A18.816 18.816 0 0013.08 18.23l-.251 2.512.44 2.575 4.195 23.414a4.45 4.45 0 002.726 3.367 30.653 30.653 0 0023.2 0 4.448 4.448 0 002.726-3.38l4.196-23.401.452-2.563-.252-2.524zM20.855 8.017c6.67-6.042 16.97-5.54 23.013 1.13a16.223 16.223 0 014.02 8.417c-3.669-2.073-10.175-3.053-16.104-3.053-5.93 0-12.424.968-16.104 3.053a16.357 16.357 0 015.175-9.547zm22.8 38.275a1.984 1.984 0 01-1.207 1.494 28.172 28.172 0 01-21.304 0 1.99 1.99 0 01-1.206-1.482l-3.68-20.626c3.78 1.885 9.986 2.751 15.538 2.751s11.77-.866 15.538-2.75l-3.68 20.613zm4.571-24.445a.973.973 0 00-.2.302c-1.533 1.846-7.638 3.78-16.23 3.78S17.1 23.996 15.567 22.15a1.263 1.263 0 00-.201-.302.597.597 0 01-.088-.264l.038-.364c.615-1.746 6.733-4.208 16.493-4.208 9.735 0 15.852 2.45 16.48 4.196l.038.376a.827.827 0 01-.1.264z"/></svg><svg viewBox="0 0 107 69" id="logo" xmlns="http://www.w3.org/2000/svg"><g clip-path="url(#eclip0_12359_364)"><path d="M71.867 32.252l-1.935-4.588h-3.05l3.539 7.091v3.907h2.889v-3.897l3.532-7.091h-3.05l-1.925 4.578zm-6.078 6.42V27.674h-2.832v6.38l-3.688-6.39h-2.84v10.998h2.84v-6.387l3.698 6.397h2.822zm-16.926-4.103l1.073-3.474 1.08 3.474h-2.153zm3.424 4.102h3.06l-4.064-10.997H48.59l-4.04 10.998h3.05l.564-1.822h3.563l.56 1.822zm-11.555-5.855h-1.63v-2.861h1.63a1.356 1.356 0 011.103.445 1.7 1.7 0 01.373 1.124 1.236 1.236 0 01-.367.94 1.542 1.542 0 01-1.109.352zm0-5.142h-4.467v10.998h2.836v-3.566h1.631a5.466 5.466 0 002.31-.452 3.542 3.542 0 001.52-1.272c.358-.558.543-1.209.531-1.87a3.725 3.725 0 00-.532-1.967 3.623 3.623 0 00-1.521-1.366 5.063 5.063 0 00-2.311-.495l.003-.01zm-6.804.01h-3.74l-2.311 7.294-2.311-7.294h-3.728V38.68h2.846v-2.077l-.28-5.59 2.548 7.667h1.855l2.552-7.668-.274 5.59v2.078h2.846l-.003-10.997zM17.42 32.97v.416a4.356 4.356 0 01-.518 2.326 1.644 1.644 0 01-1.476.823 1.66 1.66 0 01-1.509-.813 4.446 4.446 0 01-.508-2.336v-.416c0-2.087.668-3.131 2.004-3.133a1.66 1.66 0 011.486.803c.35.537.521 1.31.521 2.33zm2.899.416v-.4a6.285 6.285 0 00-.628-2.89 4.601 4.601 0 00-1.743-1.901 5.214 5.214 0 00-5.087 0 4.538 4.538 0 00-1.73 1.9 6.37 6.37 0 00-.62 2.89v.4a6.38 6.38 0 00.62 2.891c.383.785.99 1.44 1.747 1.884a4.901 4.901 0 002.558.656 4.852 4.852 0 002.536-.656 4.508 4.508 0 001.733-1.894 6.336 6.336 0 00.624-2.89l-.01.01zM9.577 34.88h-2.83a1.524 1.524 0 01-.471 1.229c-.387.282-.862.42-1.34.387a1.91 1.91 0 01-1.103-.276 1.597 1.597 0 01-.575-.94 7.613 7.613 0 01-.178-1.875v-.475a6.927 6.927 0 01.195-1.838c.082-.378.286-.718.58-.97a1.66 1.66 0 011.021-.292c.673 0 1.155.138 1.446.413a1.756 1.756 0 01.442 1.31h2.83a4.603 4.603 0 00-.677-2.087 3.843 3.843 0 00-1.595-1.425 5.451 5.451 0 00-2.446-.54 4.578 4.578 0 00-2.463.655 4.355 4.355 0 00-1.65 1.884 6.714 6.714 0 00-.581 2.89v.469a6.952 6.952 0 00.557 2.897 4.15 4.15 0 001.631 1.87c.775.452 1.661.68 2.559.656.823.017 1.64-.15 2.39-.488a3.82 3.82 0 001.621-1.383 3.957 3.957 0 00.637-2.071zM33.598 22.201a1.603 1.603 0 00-.773.18 1.36 1.36 0 00-.72 1.21c-.004.252.062.5.192.718.126.212.309.386.528.501a1.69 1.69 0 001.545 0c.22-.115.403-.289.529-.501.128-.218.194-.466.191-.718a1.357 1.357 0 00-.72-1.21 1.602 1.602 0 00-.772-.18zm-7.24.44h-1.65v-2.268h1.776c.86 0 1.29.403 1.29 1.21a.977.977 0 01-.33.76c-.309.223-.688.328-1.07.298h-.016zm-.472-6.443c.437-.035.874.062 1.254.279a1.057 1.057 0 01.39.92.941.941 0 01-.373.833 2.398 2.398 0 01-1.294.255h-1.166v-2.293l1.189.006zm2.971 3.15a2.143 2.143 0 001.156-.931c.247-.438.372-.934.363-1.436a2.56 2.56 0 00-.277-1.302 2.583 2.583 0 00-.895-.992c-.784-.517-1.884-.776-3.302-.776h-4.04v11h4.496c2.826 0 4.239-1.092 4.239-3.276a2.52 2.52 0 00-.42-1.426 2.104 2.104 0 00-1.32-.862zm-11.508-.145v.433a4.393 4.393 0 01-.519 2.326 1.76 1.76 0 01-1.485.805 1.776 1.776 0 01-1.486-.805c-.35-.544-.525-1.32-.525-2.326v-.433c0-2.09.667-3.136 2-3.136a1.68 1.68 0 011.506.806c.348.538.522 1.314.522 2.33h-.013zm2.895.433v-.416a6.328 6.328 0 00-.627-2.89 4.568 4.568 0 00-1.744-1.901 5.194 5.194 0 00-5.087 0 4.517 4.517 0 00-1.73 1.9 6.328 6.328 0 00-.62 2.89v.417a6.32 6.32 0 00.62 2.887c.378.787.98 1.447 1.734 1.897a4.944 4.944 0 002.561.655 4.867 4.867 0 002.532-.655 4.485 4.485 0 001.737-1.897c.433-.9.647-1.89.624-2.887zM4.992 22.657H3.34v-2.284h1.773c.86 0 1.292.403 1.294 1.21a.977.977 0 01-.33.76c-.308.223-.687.329-1.067.298l-.02.016zm-.472-6.459c.437-.035.874.062 1.254.279a1.063 1.063 0 01.39.92.94.94 0 01-.373.833 2.408 2.408 0 01-1.295.255H3.331v-2.293l1.189.006zm2.97 3.15a2.143 2.143 0 001.156-.931c.244-.44.367-.934.357-1.436.025-.45-.07-.9-.276-1.303a2.573 2.573 0 00-.896-.99c-.78-.518-1.885-.777-3.302-.777H.492v11h4.5c2.826 0 4.239-1.092 4.239-3.276a2.545 2.545 0 00-.42-1.426 2.114 2.114 0 00-1.32-.862zM49.751 9.123c-.184 0-.366-.048-.525-.14a1.086 1.086 0 01-.409-.4 1.16 1.16 0 01-.155-.6 1.774 1.774 0 01.08-.57c.056-.163.14-.314.247-.45l.046-.029 1.79 1.966c-.342.138-.706.209-1.074.21v.013zm-.502-6.102a.835.835 0 01.218-.596.826.826 0 01.634-.236.714.714 0 01.562.24.783.783 0 01.214.537 1.016 1.016 0 01-.119.468c-.13.207-.312.377-.528.492l-.449.288a3.272 3.272 0 01-.4-.636 1.34 1.34 0 01-.132-.566v.01zm6.626 8.124l-1.703-1.917c.693-.911 1.04-2.145 1.043-3.703h-2.268a3.863 3.863 0 01-.452 1.832l-1.558-1.753.623-.44a3.727 3.727 0 001.063-1.09c.263-.402.403-.87.403-1.348a2.624 2.624 0 00-.368-1.372A2.65 2.65 0 0051.626.37 3.075 3.075 0 0050.099 0a3.397 3.397 0 00-1.667.397c-.47.25-.859.629-1.12 1.09a3.168 3.168 0 00-.164 2.708c.184.437.415.853.69 1.242l-.076.045a8.837 8.837 0 00-1.007.82 3.059 3.059 0 00-.618.848c-.153.332-.23.694-.224 1.059-.01.568.143 1.127.442 1.612.305.481.744.864 1.265 1.101a4.413 4.413 0 001.924.393 6.06 6.06 0 001.492-.17 5.74 5.74 0 001.321-.534l.489.544 3.03-.01zm-12.06-8.717V.134h-7.744v11.02h7.715V8.882h-4.88V6.616h4.117V4.424h-4.117V2.438l4.91-.01zm-9.273 4.916h-2.823a1.525 1.525 0 01-.472 1.232 2.048 2.048 0 01-1.32.383 1.902 1.902 0 01-1.103-.275 1.617 1.617 0 01-.578-.94 7.603 7.603 0 01-.178-1.872v-.458a6.956 6.956 0 01.195-1.839 1.78 1.78 0 01.58-.983 1.66 1.66 0 011.021-.292c.676 0 1.158.138 1.446.413a1.755 1.755 0 01.442 1.311h2.83a4.643 4.643 0 00-.66-2.097A3.906 3.906 0 0032.326.5a5.475 5.475 0 00-2.46-.51 4.565 4.565 0 00-2.46.655 4.332 4.332 0 00-1.65 1.884 6.667 6.667 0 00-.584 2.89v.462a6.91 6.91 0 00.561 2.897 4.134 4.134 0 001.628 1.868 4.851 4.851 0 002.561.655 5.564 5.564 0 002.39-.485 3.875 3.875 0 001.618-1.383c.4-.62.616-1.338.624-2.074l-.013-.016zM23.442.157h-2.828v10.998h2.829V.157zm-8.725 8.724V.157h-2.829v10.998h7.395V8.88h-4.566zM4.315 7.055l1.073-3.477L6.47 7.055H4.315zm3.427 4.1h3.057L6.735.157H4.04L.003 11.155h3.054l.561-1.819h3.56l.564 1.819zM107 44.206H.29V69H107V44.206z"/></g><defs><clipPath id="eclip0_12359_364"><path d="M0 0h107v69H0z"/></clipPath></defs></svg><svg viewBox="0 0 77 39" id="logo-preload" xmlns="http://www.w3.org/2000/svg"><path d="M71.867 32.252l-1.934-4.588h-3.05l3.538 7.091v3.907h2.889v-3.897l3.532-7.091h-3.05l-1.925 4.578zm-6.078 6.42V27.674h-2.832v6.38l-3.688-6.39H56.43v10.998h2.84v-6.387l3.697 6.397h2.822zm-16.926-4.103l1.073-3.474 1.08 3.474h-2.153zm3.424 4.102h3.06l-4.064-10.997H48.59l-4.04 10.998h3.05l.564-1.822h3.563l.56 1.822zm-11.555-5.855h-1.63v-2.861h1.63a1.356 1.356 0 011.103.445 1.7 1.7 0 01.373 1.124 1.236 1.236 0 01-.367.94 1.543 1.543 0 01-1.109.352zm0-5.142h-4.467v10.998h2.836v-3.566h1.631a5.464 5.464 0 002.311-.452 3.543 3.543 0 001.519-1.272c.358-.558.543-1.209.531-1.87a3.725 3.725 0 00-.531-1.967 3.622 3.622 0 00-1.522-1.366 5.062 5.062 0 00-2.311-.495l.003-.01zm-6.804.01h-3.74l-2.311 7.294-2.311-7.294h-3.727V38.68h2.845v-2.077l-.28-5.59 2.548 7.667h1.856l2.552-7.668-.274 5.59v2.078h2.845l-.003-10.997zm-16.507 5.285v.417a4.355 4.355 0 01-.518 2.326 1.646 1.646 0 01-1.476.823 1.66 1.66 0 01-1.508-.813 4.446 4.446 0 01-.509-2.336v-.417c0-2.086.668-3.13 2.004-3.132a1.66 1.66 0 011.486.803c.35.537.521 1.31.521 2.33zm2.899.417v-.4c.024-1-.191-1.99-.627-2.89a4.6 4.6 0 00-1.744-1.901 5.214 5.214 0 00-5.087 0 4.538 4.538 0 00-1.73 1.9 6.37 6.37 0 00-.62 2.89v.4a6.38 6.38 0 00.62 2.891c.383.785.99 1.44 1.747 1.884a4.902 4.902 0 002.558.656 4.851 4.851 0 002.536-.656 4.508 4.508 0 001.733-1.894 6.338 6.338 0 00.624-2.89l-.01.01zM9.577 34.88H6.748a1.523 1.523 0 01-.472 1.229c-.387.282-.862.42-1.34.387a1.91 1.91 0 01-1.103-.276 1.597 1.597 0 01-.575-.94 7.613 7.613 0 01-.178-1.875v-.475a6.928 6.928 0 01.195-1.838c.082-.378.286-.718.581-.97a1.66 1.66 0 011.02-.292c.674 0 1.156.138 1.446.413a1.756 1.756 0 01.443 1.31h2.829a4.603 4.603 0 00-.677-2.087 3.843 3.843 0 00-1.595-1.425 5.45 5.45 0 00-2.446-.54 4.578 4.578 0 00-2.463.655 4.355 4.355 0 00-1.65 1.884 6.714 6.714 0 00-.581 2.89v.469a6.952 6.952 0 00.558 2.897 4.15 4.15 0 001.63 1.87c.775.452 1.661.68 2.559.656.823.017 1.64-.15 2.39-.488a3.82 3.82 0 001.621-1.383 3.958 3.958 0 00.637-2.071zM33.598 22.201a1.603 1.603 0 00-.773.18 1.36 1.36 0 00-.72 1.21c-.004.252.062.5.192.718.126.212.309.386.528.501a1.69 1.69 0 001.545 0c.22-.115.403-.289.529-.501.128-.218.194-.466.191-.718a1.357 1.357 0 00-.72-1.21 1.602 1.602 0 00-.772-.18zm-7.24.44h-1.65v-2.268h1.776c.86 0 1.29.403 1.29 1.21a.977.977 0 01-.33.76c-.309.223-.688.328-1.07.298h-.016zm-.472-6.443c.437-.035.874.062 1.254.279a1.057 1.057 0 01.39.92.941.941 0 01-.373.833 2.398 2.398 0 01-1.294.255h-1.166v-2.293l1.189.006zm2.971 3.15a2.143 2.143 0 001.156-.931c.247-.438.372-.934.363-1.436a2.56 2.56 0 00-.277-1.302 2.583 2.583 0 00-.895-.992c-.784-.517-1.884-.776-3.302-.776h-4.04v11h4.496c2.826 0 4.239-1.092 4.239-3.276a2.52 2.52 0 00-.42-1.426 2.104 2.104 0 00-1.32-.862zm-11.508-.145v.433a4.393 4.393 0 01-.519 2.326 1.76 1.76 0 01-1.485.805 1.776 1.776 0 01-1.486-.805c-.35-.544-.525-1.32-.525-2.326v-.433c0-2.09.667-3.136 2-3.136a1.68 1.68 0 011.506.806c.348.538.522 1.314.522 2.33h-.013zm2.895.433v-.416a6.328 6.328 0 00-.627-2.89 4.568 4.568 0 00-1.744-1.901 5.194 5.194 0 00-5.087 0 4.517 4.517 0 00-1.73 1.9 6.328 6.328 0 00-.62 2.89v.417a6.32 6.32 0 00.62 2.887c.378.787.98 1.447 1.734 1.897a4.944 4.944 0 002.561.655 4.867 4.867 0 002.532-.655 4.485 4.485 0 001.737-1.897c.433-.9.647-1.89.624-2.887zM4.992 22.657H3.34v-2.284h1.773c.86 0 1.292.403 1.294 1.21a.977.977 0 01-.33.76c-.308.223-.687.329-1.067.298l-.02.016zm-.472-6.459c.437-.035.874.062 1.254.279a1.063 1.063 0 01.39.92.94.94 0 01-.373.833 2.408 2.408 0 01-1.295.255H3.331v-2.293l1.189.006zm2.97 3.15a2.143 2.143 0 001.156-.931c.244-.44.367-.934.357-1.436.025-.45-.07-.9-.276-1.303a2.573 2.573 0 00-.896-.99c-.78-.518-1.885-.777-3.302-.777H.492v11h4.5c2.826 0 4.239-1.092 4.239-3.276a2.546 2.546 0 00-.42-1.426 2.114 2.114 0 00-1.32-.862M49.751 9.123c-.184 0-.365-.048-.524-.14a1.085 1.085 0 01-.41-.4 1.16 1.16 0 01-.155-.6 1.774 1.774 0 01.08-.57c.056-.163.14-.314.247-.45l.046-.029 1.79 1.966c-.342.138-.706.209-1.074.21v.013zm-.501-6.102a.835.835 0 01.218-.596.826.826 0 01.633-.236.714.714 0 01.562.24.783.783 0 01.214.537 1.017 1.017 0 01-.119.468 1.4 1.4 0 01-.528.492l-.449.288a3.272 3.272 0 01-.4-.636 1.34 1.34 0 01-.131-.566v.01zm6.625 8.124l-1.703-1.917c.693-.911 1.041-2.145 1.043-3.703h-2.268a3.863 3.863 0 01-.452 1.832l-1.558-1.753.624-.44a3.724 3.724 0 001.063-1.09c.262-.402.402-.87.402-1.348a2.623 2.623 0 00-.368-1.372A2.65 2.65 0 0051.627.37 3.075 3.075 0 0050.098 0a3.398 3.398 0 00-1.667.397c-.47.25-.858.629-1.12 1.09a3.17 3.17 0 00-.164 2.708c.184.437.415.853.69 1.241l-.076.046a8.837 8.837 0 00-1.007.82 3.058 3.058 0 00-.617.848c-.154.332-.23.694-.225 1.059-.01.568.144 1.127.442 1.612.305.481.745.864 1.265 1.101a4.412 4.412 0 001.925.393 6.062 6.062 0 001.492-.17c.46-.123.904-.302 1.32-.534l.489.544 3.03-.01zm-12.06-8.717V.134h-7.744v11.02h7.715V8.882h-4.88V6.616h4.117V4.424h-4.117V2.438l4.91-.01zm-9.273 4.916H31.72a1.523 1.523 0 01-.472 1.232 2.048 2.048 0 01-1.32.383 1.903 1.903 0 01-1.103-.275 1.617 1.617 0 01-.578-.94 7.604 7.604 0 01-.178-1.872v-.458a6.96 6.96 0 01.195-1.839 1.78 1.78 0 01.581-.983 1.66 1.66 0 011.02-.292c.676 0 1.158.138 1.446.413a1.755 1.755 0 01.443 1.311h2.829a4.641 4.641 0 00-.66-2.097A3.905 3.905 0 0032.327.5a5.475 5.475 0 00-2.46-.51 4.565 4.565 0 00-2.46.655 4.332 4.332 0 00-1.65 1.884 6.67 6.67 0 00-.584 2.89v.462a6.91 6.91 0 00.561 2.897 4.135 4.135 0 001.628 1.868 4.851 4.851 0 002.562.655 5.564 5.564 0 002.39-.485 3.875 3.875 0 001.617-1.383c.4-.62.616-1.338.624-2.074l-.013-.016zM23.443.157h-2.83v10.998h2.83V.157zm-8.726 8.724V.157h-2.829v10.998h7.395V8.88h-4.566zM4.316 7.055l1.073-3.477L6.47 7.055H4.315zm3.427 4.1h3.057L6.735.157H4.04L.003 11.155h3.054l.561-1.819h3.56l.564 1.819z"/></svg></svg>