<?xml version="1.0" encoding="utf-8"?><svg viewBox="0 0 239 69" xmlns="http://www.w3.org/2000/svg" xmlns:xlink="http://www.w3.org/1999/xlink"><style>:root>svg{display:none}:root>svg:target{display:block}</style><svg viewBox="0 0 202 29" id="bottom-logo-1" xmlns="http://www.w3.org/2000/svg"><g clip-path="url(#aclip0_12359_512)"><path d="M4.017 4.834c-.05.627-.087 1.21-.149 1.812a7.11 7.11 0 00.6 3.927 7 7 0 002.607 2.97c1.59 1.11 3.447 1.83 5.186 2.734a35.896 35.896 0 014.568 2.445 4.886 4.886 0 011.927 2.615 4.95 4.95 0 01-.126 3.26c-.693 1.95-2.618 3.216-4.951 3.26-6.06.113-11.76-4.564-13.097-10.765-.48-2-.506-4.083-.077-6.094A13.71 13.71 0 013.058 5.48c.224-.261.468-.504.73-.728l.229.082zM137.395 23.838v1.756h-2.346V3.022a15.272 15.272 0 012.005 0c.173 0 .402.476.409.733v6.452c0 .27 0 .546.049.997a6.745 6.745 0 012.453-1.569 6.672 6.672 0 012.876-.38c3.095.162 5.509 2.25 6.338 5.56.68 2.399.459 4.967-.619 7.211a6.987 6.987 0 01-1.97 2.425 6.88 6.88 0 01-2.819 1.308 6.826 6.826 0 01-3.099-.071 6.883 6.883 0 01-2.758-1.436c-.092-.088-.253-.176-.519-.414zm9.798-6.213l-.143-.063c-.093-.684-.13-1.373-.278-2.038-.477-2.194-2-3.655-3.943-3.85-2.278-.232-4.005.696-4.834 2.709a8.006 8.006 0 00.062 6.52c.329.791.888 1.461 1.602 1.923.714.461 1.55.692 2.396.66 1.857.038 3.38-.701 4.16-2.438.413-1.114.74-2.258.978-3.423zM165.346 25.613h-2.377l-.099-1.994a7.035 7.035 0 01-3.825 2.113 7.293 7.293 0 01-4.029-.301 4.151 4.151 0 01-2.015-1.529 4.234 4.234 0 01-.77-2.428 4.121 4.121 0 01.592-2.652 4.04 4.04 0 012.106-1.686c1.642-.54 3.319-.96 5.02-1.254a13.19 13.19 0 012.098-.345c.7-.044.916-.339.879-1.022-.08-1.436-.774-2.464-2.247-2.734a9.931 9.931 0 00-3.28 0 2.463 2.463 0 00-1.429.718 2.522 2.522 0 00-.7 1.451c-.045.196-.1.389-.167.577h-2.365a4.438 4.438 0 01.486-2.4 4.362 4.362 0 011.681-1.763 7.963 7.963 0 018.046-.176c1.857.947 2.408 2.71 2.414 4.697v10.032c.012.207-.006.413-.019.696zm-2.519-7.9c-1.238.219-2.383.407-3.546.627-1.05.178-2.084.436-3.095.77a2.158 2.158 0 00-1.161.99 2.204 2.204 0 00-.226 1.519c.118.947.749 1.567 1.857 1.837 3.64.878 6.672-1.887 6.171-5.744zM200.992 25.644c-.879 0-1.566-.038-2.241 0a1.305 1.305 0 01-1.275-.627c-1.758-2.395-3.565-4.759-5.36-7.129a1.183 1.183 0 00-.167-.15c-.557.514-1.151 1.009-1.671 1.56a1.348 1.348 0 00-.267.841v5.442h-2.438c0-.276-.037-.552-.037-.827V3.93c0-.765.204-1.04.959-.953.501.029 1.003.029 1.504 0v13.349c.365-.314.619-.496.805-.684 2.055-1.88 4.122-3.705 6.152-5.586a2.01 2.01 0 011.585-.627c.817.056 1.634 0 2.698 0l-7.26 6.665 7.013 9.549zM182.949 25.619h-2.432v-1.022c0-2.979.037-5.963 0-8.948-.044-2.307-1.003-3.642-2.68-3.956a4.223 4.223 0 00-2.974.404 4.31 4.31 0 00-1.978 2.286 6.636 6.636 0 00-.439 2.25c-.05 2.666 0 5.33 0 8.001v.966h-2.42V9.53h2.296l.068 1.549c.113-.055.22-.12.322-.195 1.98-1.818 4.295-2.019 6.691-1.204 2.29.778 3.385 2.684 3.478 4.96.186 3.63.068 7.273.068 10.979zM15.548 0l1.393.313c2.851.651 5.425 2.201 7.353 4.427a14.092 14.092 0 013.373 7.963 13.743 13.743 0 01-2.78 9.73c-.197.264-.45.484-.86.916a9.922 9.922 0 010-1.46 7.096 7.096 0 00-.247-3.793 7.01 7.01 0 00-2.166-3.104 22.118 22.118 0 00-4.259-2.628c-1.708-.89-3.553-1.517-5.248-2.439-1.696-.921-2.928-2.345-3.058-4.451a4.848 4.848 0 01.937-3.391A4.732 4.732 0 0112.955.25c.241-.057.476-.157.711-.232L15.548 0zM55.018 9.787h-2.475c0-.138-.069-.295-.1-.451-.488-2.621-2.19-4.164-4.846-4.17a12.416 12.416 0 00-3.584.54 3.263 3.263 0 00-1.537.979 3.328 3.328 0 00-.784 1.66c-.334 1.75.465 3.135 2.266 3.705 1.566.502 3.194.803 4.778 1.255 1.301.284 2.575.684 3.807 1.197a5.59 5.59 0 012.087 1.805 5.71 5.71 0 01.623 5.352 5.64 5.64 0 01-1.615 2.248 8.768 8.768 0 01-5.007 1.969c-2.476.25-4.834.037-7.013-1.254-2.179-1.292-3.163-3.26-3.25-5.825h2.538l.112.627c.107.775.416 1.506.896 2.12a4.336 4.336 0 001.833 1.366 8.855 8.855 0 007.13-.113 3.29 3.29 0 001.435-1.05 3.352 3.352 0 00.689-1.652c.247-1.881-.675-3.21-2.699-3.762-1.646-.452-3.311-.803-4.952-1.254a18.927 18.927 0 01-2.847-.86 5.579 5.579 0 01-2.297-1.757 5.71 5.71 0 01-.775-5.58 5.637 5.637 0 011.73-2.33c3.218-2.747 9.283-2.477 12.155.545a6.13 6.13 0 011.345 2.161c.294.808.415 1.67.357 2.529zM83.725 14.559a4.546 4.546 0 01.422-2.297 4.481 4.481 0 011.503-1.772c2.228-1.624 6.19-1.7 8.51-.207.633.37 1.16.9 1.53 1.537.37.637.573 1.36.588 2.1.068 3.868 0 7.737 0 11.662h-2.365c0-.571-.055-1.16-.093-1.881l-.618.507a7.157 7.157 0 01-3.37 1.583 7.112 7.112 0 01-3.699-.329 4 4 0 01-2.035-1.365 4.087 4.087 0 01-.874-2.309 4.3 4.3 0 01.397-2.599 4.225 4.225 0 011.831-1.865c1.727-1.01 3.714-1.097 5.57-1.46.787-.158 1.585-.227 2.353-.427a.872.872 0 00.538-.627 2.857 2.857 0 00-.647-2.095 2.791 2.791 0 00-.868-.693 2.757 2.757 0 00-1.066-.297 9.734 9.734 0 00-2.698 0 2.633 2.633 0 00-1.616.713c-.443.417-.73.976-.817 1.582a.91.91 0 01-.619.539c-.618.042-1.238.042-1.857 0zM93.92 17.65c-2.154.426-4.216.815-6.258 1.254-.464.13-.889.373-1.238.709-.27.237-.475.538-.599.877a2.176 2.176 0 00.3 2.045c.216.288.5.517.825.664a5.01 5.01 0 005.224-.771c1.541-1.148 1.814-2.84 1.745-4.778zM58.435 17.976c0-3.305.836-5.888 3.38-7.58a7.342 7.342 0 016.917-.567 7.438 7.438 0 012.85 2.187 7.568 7.568 0 011.51 3.282 10.36 10.36 0 01-.347 5.756 7.021 7.021 0 01-2.723 3.66 6.872 6.872 0 01-4.37 1.18c-3.819-.175-6.332-2.438-7.013-6.062-.13-.734-.173-1.48-.204-1.856zm2.426-.276c.163.967.39 1.923.681 2.859.36.875.97 1.621 1.75 2.143a4.66 4.66 0 005.252-.045 4.755 4.755 0 001.713-2.173 8.283 8.283 0 00.186-5.236c-.62-2.307-2.228-3.586-4.488-3.611a4.41 4.41 0 00-2.965.897 4.514 4.514 0 00-1.67 2.639 25.91 25.91 0 00-.465 2.527h.006zM118.287 20.396h2.476a2.898 2.898 0 00.566 1.773c.377.51.912.88 1.52 1.048a5.732 5.732 0 004.908-.395c.32-.187.58-.465.748-.799.168-.333.237-.709.199-1.082a1.657 1.657 0 00-.391-.99 1.627 1.627 0 00-.908-.54c-1.368-.376-2.761-.627-4.141-.984a14.72 14.72 0 01-1.634-.47 3.844 3.844 0 01-1.907-1.245 3.932 3.932 0 01-.885-2.116 4.141 4.141 0 01.348-2.403 4.068 4.068 0 011.633-1.779 7.392 7.392 0 017.718-.213 4.485 4.485 0 011.834 1.795c.425.766.62 1.641.562 2.519h-2.476a2.719 2.719 0 00-.549-1.707 2.654 2.654 0 00-1.488-.977c-1.541-.445-3.094-.426-4.369.627a1.8 1.8 0 00-.6.778 1.826 1.826 0 00.313 1.872c.219.252.502.438.819.535 1.234.369 2.486.672 3.751.91.778.157 1.542.382 2.284.67.7.283 1.311.755 1.767 1.364.456.608.739 1.332.819 2.091a4.235 4.235 0 01-.364 2.22 4.186 4.186 0 01-1.442 1.711c-2.433 1.812-6.951 1.73-9.285-.188a4.918 4.918 0 01-1.386-1.792 4.984 4.984 0 01-.44-2.233zM79.38 25.625h-2.376V3.053h2.382l-.006 22.572zM103.358 25.6h-2.345V9.543h2.333v1.994a5.978 5.978 0 012.639-1.92 5.9 5.9 0 013.241-.237v2.458a3.506 3.506 0 01-.576 0c-2.995-.533-5.267 1.88-5.248 4.953v8c0 .251-.025.502-.044.81zM112.067 9.505h2.346v16.09h-2.346V9.504zM111.77 6.985V3.944h3.027v3.04h-3.027z"/></g><defs><clipPath id="aclip0_12359_512"><path d="M0 0h201.462v28.064H0z"/></clipPath></defs></svg><svg viewBox="0 0 73 50" id="bottom-logo-2" xmlns="http://www.w3.org/2000/svg"><path d="M36.107 49.601H6.736a6.538 6.538 0 01-6.57-6.318v-.478V7.297a6.525 6.525 0 01.62-2.96A6.412 6.412 0 015.525.694c.415-.08.838-.119 1.262-.117h58.695a6.562 6.562 0 016.42 4.942c.14.576.209 1.165.206 1.757v35.691a6.565 6.565 0 01-5.525 6.566 6.918 6.918 0 01-1.121.072l-29.356-.004zm.045-5.023H65.62a1.465 1.465 0 001.4-1.113 2.35 2.35 0 00.061-.587V7.297v-.235a1.49 1.49 0 00-.975-1.344 1.927 1.927 0 00-.81-.11H6.638a1.465 1.465 0 00-.939.381 1.62 1.62 0 00-.518 1.303v35.622a2.27 2.27 0 000 .235 1.506 1.506 0 001.186 1.413c.186.03.375.042.563.032l29.222-.016z"/><path d="M56.942 24.581c.17.073.291.13.405.178.848.328 1.643.78 2.36 1.34a8.028 8.028 0 013.096 5.526 8.805 8.805 0 01-1.91 6.764 7.994 7.994 0 01-4.935 2.922c-.63.114-1.27.17-1.91.166H38.86V8.551h.259c4.922 0 9.845-.048 14.763 0 3.31.045 5.736 1.652 7.237 4.611a8.208 8.208 0 01.83 4.66 7.819 7.819 0 01-3.076 5.537c-.482.372-1.02.676-1.534 1.008-.114.052-.231.117-.397.214zm-10.65 11.027H50.1a4.011 4.011 0 10-.049-8.02H46.56c-.085 0-.17 0-.267.021v7.999zm0-22.053v7.998h3.19c.217-.004.433-.024.647-.06a4.011 4.011 0 00-.619-7.955h-2.963l-.255.017zM10.322 41.469V8.527H23.073c2.46.002 4.847.837 6.772 2.368a11.107 11.107 0 013.939 5.878 31.29 31.29 0 01.983 4.02c.138.886.24 1.78.332 2.67.105 1.113.123 2.233.053 3.348-.044.854-.13 1.713-.243 2.563-.194 1.429-.51 2.839-.947 4.214a11.099 11.099 0 01-3.097 4.898 11.216 11.216 0 01-5.938 2.853c-.487.08-.98.123-1.474.126h-12.86l-.271.004zm7.436-5.457h3.246a6.222 6.222 0 001.316-.162 5.92 5.92 0 004.348-3.975 18.898 18.898 0 001.097-5.703c.084-1.6-.052-3.203-.405-4.765-.276-1.137-.624-2.258-.956-3.388a4.89 4.89 0 00-.7-1.429 5.86 5.86 0 00-4.724-2.643c-.975-.044-1.955-.02-2.934-.024h-.272l-.016 22.09z"/></svg><svg viewBox="0 0 40 59" id="bottom-logo-3" xmlns="http://www.w3.org/2000/svg"><path d="M39.103 21.82v-.007a767.6 767.6 0 01-.006-7.496c.003-1.248.006-2.495.006-3.741-.007-3.064-1.006-5.567-2.725-7.306C34.66 1.532 32.182.516 29.142.5H16.945C12.377.5 7.807.51 3.233.532c-.623.002-1.14.132-1.546.384-.4.247-.728.633-.945 1.211-.426 1.13-.308 2.168.48 2.755a4.914 4.914 0 002.717.897c6.485.061 12.972.055 19.46.05 1.894-.002 3.787-.004 5.68-.004h.005c1.474.015 2.67.388 3.495 1.208.827.822 1.198 2.01 1.198 3.472 0 1.277.003 2.555.006 3.835.006 2.565.012 5.135-.006 7.704v.005c-.022 1.274-.406 2.376-1.144 3.165-.742.794-1.798 1.22-3.058 1.22m9.528-4.613l-9.53 4.113m9.53-4.113v.007a9.389 9.389 0 01-1.911 6.049c-.297.386-.503.783-.498 1.234.005.446.217.837.492 1.212l.004.005a9.404 9.404 0 011.9 6.055v.014c-.028 2.566-.02 5.137-.01 7.703.005 1.28.01 2.559.01 3.835-.027 5.663-4.18 9.847-9.806 9.86-8.48.018-16.962.009-25.443-.028a4.77 4.77 0 01-2.29-.638c-.916-.536-1.183-1.506-.94-2.657l.004-.015.002-.015c.075-.5.31-.96.668-1.313.358-.351.82-.574 1.315-.636.72-.088 1.446-.121 2.171-.098H28.587c.522.007 1.044-.02 1.562-.081l.008-.001c2.082-.28 3.57-1.778 3.601-3.94.055-4.154.055-8.31 0-12.47-.015-1.193-.46-2.233-1.236-2.976-.776-.742-1.853-1.16-3.087-1.168-3.77-.019-7.56-.018-11.347-.017-3.549 0-7.097 0-10.626-.015H7.46c-.555 0-1.042.13-1.348.533-.277.367-.31.849-.305 1.269v.002a201.4 201.4 0 010 6.36v.002c-.015 1.042-.305 1.837-.756 2.365-.444.52-1.079.823-1.881.833-.804.01-1.438-.276-1.879-.783C.843 41.792.554 41 .55 39.935.531 32.7.531 25.462.55 18.225c0-1.062.261-1.806.677-2.283.408-.468 1.024-.745 1.881-.761.841-.016 1.49.265 1.936.76.454.503.746 1.278.76 2.326v.002c.031 2.123.04 4.244 0 6.359v.01c0 .513.074 1.02.417 1.378.35.365.855.453 1.384.45m31.499-4.645l-31.5 4.145m21.972.468h-.001v-.5m0 .5h.002l-.002-.5m0 .5c-3.662.016-7.325.016-10.986.016-3.662 0-7.323 0-10.984.016m21.97-.532c-3.662.016-7.324.016-10.986.016-3.662 0-7.324 0-10.986.016m.002.5l-.002-.5m.002.5l-.002-.5"/></svg><svg viewBox="0 0 239 21" id="bottom-logo-4" xmlns="http://www.w3.org/2000/svg"><g clip-path="url(#dclip0_12359_544)"><path d="M.119 9.67h7.058v3.937l10.232-5.77L7.2 2.074v3.883H.206V2.346a.343.343 0 010-.086c.15-.599.501-1.13.996-1.511A2.843 2.843 0 012.936.163h13.531c.741 0 1.452.287 1.978.8.526.511.825 1.207.831 1.934v9.794a2.708 2.708 0 01-.799 1.901 2.81 2.81 0 01-1.923.817H2.833a2.795 2.795 0 01-1.904-.804 2.693 2.693 0 01-.802-1.875c-.024-.932-.008-1.996-.008-3.06zM175.757 16.574a6.827 6.827 0 004.431.691 2.86 2.86 0 001.413-.614c.404-.329.706-.761.874-1.25.206-.52.34-1.056.507-1.553l-.103-.046a1.779 1.779 0 00-.222.186 4.242 4.242 0 01-2.182 1.401c-.86.23-1.771.188-2.605-.12-1.804-.528-2.588-1.918-2.778-3.642a5.957 5.957 0 01.244-2.952 6.048 6.048 0 011.64-2.485 5.5 5.5 0 012.514-1.306 5.568 5.568 0 012.843.11c.483.14.933.374 1.323.688.39.313.712.7.948 1.137.126-.497.253-1.002.403-1.491 0-.124.159-.318.246-.318h3.165c-.238.877-.467 1.693-.665 2.524-.601 2.563-1.163 5.134-1.796 7.689a11.95 11.95 0 01-.831 2.221 4.368 4.368 0 01-1.532 1.699 4.476 4.476 0 01-2.195.709 14.21 14.21 0 01-5.966-.404c-.309-.101-.396-.186-.301-.513.229-.784.411-1.553.625-2.36zm5.808-9.102a2.409 2.409 0 00-1.218.27 2.349 2.349 0 00-.91.84 3.73 3.73 0 00-.649 2.206 1.916 1.916 0 00.673 1.487 1.992 1.992 0 001.59.462c.326-.032.642-.128.93-.281.288-.153.542-.361.747-.612a3.74 3.74 0 00.855-2.415 1.768 1.768 0 00-.538-1.447 1.838 1.838 0 00-.681-.418 1.87 1.87 0 00-.799-.092zM141.85.357c-.436 1.965-.847 3.884-1.267 5.779l.087.054.333-.28a4.5 4.5 0 011.775-.989 4.563 4.563 0 012.039-.113 3.55 3.55 0 011.77.736c.509.402.893.935 1.11 1.54a7.17 7.17 0 01.209 3.822 7.267 7.267 0 01-1.791 3.4 5.235 5.235 0 01-2.552 1.321 5.293 5.293 0 01-2.877-.218 3.154 3.154 0 01-1.733-1.405c-.095-.132-.174-.28-.34-.536-.158.582-.316 1.048-.411 1.553-.095.505-.254.482-.633.474h-2.778c.451-1.934.902-3.806 1.337-5.685.689-2.998 1.361-5.996 2.058-8.994.039-.156.206-.404.316-.404 1.076-.07 2.161-.055 3.348-.055zm2.437 9.367c0-1.553-.72-2.33-2.113-2.244a2.39 2.39 0 00-1.472.73 3.654 3.654 0 00-.9 1.43 3.583 3.583 0 00-.152 1.676c.026.465.236.902.584 1.218a1.85 1.85 0 001.283.475 2.618 2.618 0 001.82-.776 3.48 3.48 0 00.934-2.509h.016zM71.859 15.448c1.131-4.932 2.255-9.794 3.355-14.656.079-.334.213-.458.554-.45h2.58c.41 0 .545.085.434.528a161.89 161.89 0 00-1.131 5.08v.294l.435-.357a4.496 4.496 0 011.85-.991 4.552 4.552 0 012.107-.05c.77.138 1.475.513 2.012 1.072.537.56.877 1.272.97 2.035a7.698 7.698 0 01-.917 5.165 5.22 5.22 0 01-2.625 2.205 5.34 5.34 0 01-3.452.125 3.655 3.655 0 01-1.354-.724 3.574 3.574 0 01-.925-1.21.91.91 0 00-.166.21c-.135.458-.246.916-.388 1.359-.04.124-.182.295-.277.295-1.045.078-2.073.07-3.063.07zm9.495-5.794c0-1.553-.791-2.33-2.136-2.151a2.531 2.531 0 00-1.211.528 3.49 3.49 0 00-1.098 1.48 3.427 3.427 0 00-.184 1.82c.02.459.224.89.566 1.203a1.8 1.8 0 001.262.467 2.556 2.556 0 001.725-.714c.35-.344.625-.756.806-1.209.181-.453.265-.938.246-1.424h.024zM222.84 6.57c.213-1.025.435-2.05.649-3.106.213-1.056.364-1.856.577-2.773 0-.14.198-.357.309-.357h3.125c.048 0 .088 0 .167.085-.167.777-.341 1.647-.515 2.478-.823 3.899-1.643 7.798-2.461 11.697-.174.776-.158.823-1.028.823h-2.374c.055-.551.111-1.04.182-1.67l-.705.73c-1.432 1.491-4.589 1.724-6.14-.155a4.352 4.352 0 01-1.045-2.54 7.874 7.874 0 011.053-4.66 5.053 5.053 0 012.717-2.172 5.162 5.162 0 013.503.075c.802.313 1.492.85 1.986 1.546zm-.839 3.542c0-1.965-.831-2.819-2.208-2.602a2.91 2.91 0 00-1.456.73 3.46 3.46 0 00-.937 1.661 3.42 3.42 0 00.09 1.897c.1.375.334.703.659.924.326.22.721.32 1.114.28a2.523 2.523 0 001.583-.7 3.554 3.554 0 001.155-2.19zM112.492 15.456c.182-.855.34-1.64.514-2.416.892-4.075 1.786-8.15 2.683-12.225.071-.334.206-.481.578-.473h3.204L117.58 9.25l.103.047c.119-.132.237-.257.348-.396.966-1.197 1.939-2.393 2.896-3.596a.803.803 0 01.697-.35h3.663c-.118.155-.182.256-.253.342-1.258 1.437-2.508 2.881-3.782 4.303a.625.625 0 00-.119.838 190.433 190.433 0 012.327 4.528c.071.132.126.272.205.459h-3.798c-.119 0-.293-.187-.356-.327a495.971 495.971 0 01-1.86-4.287 1.271 1.271 0 00-.332-.49c-.119.529-.245 1.057-.356 1.554-.23 1.033-.459 2.074-.673 3.107a.451.451 0 01-.18.34.474.474 0 01-.381.087 109.54 109.54 0 01-3.237.047zM93.05 4.738a6.037 6.037 0 012.3.328 5.96 5.96 0 011.997 1.17c.394.37.707.815.921 1.308.213.493.323 1.023.32 1.559.014.782-.063 1.564-.229 2.33a4.953 4.953 0 01-1.212 2.318 5.091 5.091 0 01-2.238 1.402 8.86 8.86 0 01-5.816.109 4.148 4.148 0 01-2.057-1.407 4.025 4.025 0 01-.855-2.314 5.782 5.782 0 01.15-2.373 5.846 5.846 0 011.095-2.122 5.972 5.972 0 011.86-1.523 6.082 6.082 0 012.323-.677c.483-.038.966-.038 1.44-.108zm-1.053 8.48c.485.018.964-.105 1.378-.354.414-.249.744-.612.949-1.043.463-.902.637-1.92.498-2.92a1.773 1.773 0 00-.594-1.231 1.84 1.84 0 00-1.305-.463 2.517 2.517 0 00-1.11.224 2.471 2.471 0 00-.892.685 4.036 4.036 0 00-.835 1.45 3.983 3.983 0 00-.17 1.657 1.925 1.925 0 00.6 1.44c.195.188.427.333.682.429.255.095.527.139.8.127zM45.096 4.808a6.432 6.432 0 013.166.636 4.18 4.18 0 011.713 1.44c.427.624.672 1.351.708 2.102a7.013 7.013 0 01-.332 2.89 5.436 5.436 0 01-1.754 2.495 5.593 5.593 0 01-2.844 1.186 8.757 8.757 0 01-4.605-.249 4.294 4.294 0 01-2.06-1.475 4.168 4.168 0 01-.844-2.362 5.703 5.703 0 01.69-3.517 5.86 5.86 0 012.665-2.447 7.662 7.662 0 013.498-.7zm1.97 4.784h-.126c0-1.274-.482-2.058-1.503-2.276a2.417 2.417 0 00-2.066.497 4.068 4.068 0 00-1.225 1.904 4.005 4.005 0 00-.009 2.252c.097.334.29.633.558.862.266.229.595.377.946.427.541.11 1.105.037 1.599-.207a2.43 2.43 0 001.123-1.137c.29-.767.526-1.553.704-2.353v.03zM106.613 4.808a6.31 6.31 0 013.015.652c.765.37 1.403.954 1.834 1.678a4.21 4.21 0 01.587 2.392 8.394 8.394 0 01-.261 1.988 4.907 4.907 0 01-1.072 2.138 5.032 5.032 0 01-1.967 1.396 8.702 8.702 0 01-6.243.256 4.246 4.246 0 01-2.116-1.511 4.12 4.12 0 01-.812-2.442c-.087-2.617.902-4.66 3.355-5.833a8.045 8.045 0 013.68-.714zm1.812 4.8h-.135a3.533 3.533 0 000-.412c.01-.28-.045-.56-.16-.817a1.877 1.877 0 00-.505-.669 1.94 1.94 0 00-1.598-.417 2.624 2.624 0 00-1.709.932 4.121 4.121 0 00-.989 2.788c0 1.259.696 2.136 1.677 2.268a2.52 2.52 0 001.594-.218 2.451 2.451 0 001.12-1.133c.292-.77.527-1.559.705-2.361v.039zM26.445 4.994h3.292l-.221 1.724.443-.412a4.952 4.952 0 011.965-1.3 5.033 5.033 0 012.355-.253c.7.097 1.345.42 1.835.918.49.498.797 1.143.872 1.832a10.178 10.178 0 01-.333 3.526c-.253 1.328-.53 2.656-.791 3.976 0 .148-.182.389-.277.389h-3.53c.056-.366.104-.676.159-.979.332-1.608.657-3.215 1.013-4.823.356-1.608-.791-2.33-2.247-1.81-.516.204-.966.54-1.304.974a3.023 3.023 0 00-.62 1.488c-.38 1.554-.696 3.177-1.068 4.761 0 .148-.213.373-.332.373h-3.165a.805.805 0 01-.182-.062c.372-1.716.791-3.433 1.124-5.157a641.75 641.75 0 011.012-5.165zM191.947 11.262c-.087 1.118.696 1.88 1.963 2.042a8.287 8.287 0 003.719-.435l.514-.163a58.493 58.493 0 01-.388 2.183.4.4 0 01-.253.28c-1.85.621-3.847.69-5.737.193a4.658 4.658 0 01-2.649-2.018 4.509 4.509 0 01-.587-3.24 5.818 5.818 0 011.036-2.744 5.971 5.971 0 012.255-1.916 6.989 6.989 0 015.057-.373c2.374.684 3.094 2.742 2.936 4.715 0 .35-.119.691-.151 1.04-.031.35-.166.459-.53.459h-6.647c-.182-.047-.364-.031-.538-.023zm.261-2.02h4.139c.427 0 .49-.178.443-.52a1.684 1.684 0 00-.613-1.2 1.753 1.753 0 00-1.31-.385 2.634 2.634 0 00-1.73.565 2.544 2.544 0 00-.929 1.54zM230.476 11.238a1.903 1.903 0 00.516 1.443 2.005 2.005 0 001.423.624 8.304 8.304 0 003.727-.428l.395-.132h.151c-.143.777-.277 1.491-.428 2.23 0 .069-.118.147-.19.162-1.946.513-3.909.839-5.887.171a4.549 4.549 0 01-2.376-1.734 4.409 4.409 0 01-.789-2.802 5.822 5.822 0 011.486-4.002 6.035 6.035 0 013.847-1.97 6.497 6.497 0 013.537.372 3.879 3.879 0 011.753 1.4 3.78 3.78 0 01.669 2.119 18.184 18.184 0 01-.151 2.175c0 .365-.245.357-.514.357h-7.169v.015zm.269-1.996h4.479a1.67 1.67 0 00-.311-1.504 1.723 1.723 0 00-.633-.487 1.754 1.754 0 00-.789-.152 2.636 2.636 0 00-1.801.547c-.51.396-.85.966-.953 1.596h.008zM63.906 11.27c-.087 1.103.704 1.871 1.97 2.035a8.14 8.14 0 003.759-.459l.356-.116h.119c-.127.699-.238 1.398-.38 2.097a.448.448 0 01-.261.318c-1.978.52-3.957.855-5.959.125a4.665 4.665 0 01-2.475-2.027 4.526 4.526 0 01-.555-3.115 5.841 5.841 0 01.984-2.721 5.983 5.983 0 012.18-1.94 6.85 6.85 0 015.54-.31c.71.23 1.332.667 1.783 1.252.451.586.71 1.292.741 2.026.024.803-.008 1.608-.095 2.407 0 .319-.198.404-.53.404h-6.781a3.845 3.845 0 00-.396.024zm.269-2.05a.53.53 0 00.158.046h4.115c.324 0 .332-.194.317-.42-.095-1.227-.792-1.81-2.184-1.74a2.597 2.597 0 00-1.583.64 2.512 2.512 0 00-.823 1.473zM52.028 7.48c.143-.777.254-1.554.404-2.207a.506.506 0 01.364-.287c.47-.027.94-.027 1.409 0 .308 0 .443-.1.498-.388.11-.536.23-1.072.372-1.6 0-.117.142-.288.245-.31 1.18-.335 2.374-.638 3.632-.972l-.712 3.262h2.556c-.142.816-.269 1.554-.427 2.33 0 .078-.246.156-.372.156h-2.018a.52.52 0 00-.38.264c-.316 1.398-.633 2.796-.886 4.202-.198 1.103.57 1.732 1.701 1.468l.673-.164c-.127.715-.238 1.367-.372 2.02 0 .093-.119.24-.198.248a8.987 8.987 0 01-3.165.07 2.973 2.973 0 01-1.104-.455 2.914 2.914 0 01-.828-.85 2.856 2.856 0 01-.347-2.275c.261-1.36.554-2.719.83-4.07 0-.132.048-.264.08-.458l-1.955.015zM134.111 7.658a7.317 7.317 0 00-3.403-.536 2.468 2.468 0 00-.965.28.631.631 0 000 1.15c.363.203.741.38 1.131.527.507.21 1.021.38 1.511.606 1.828.777 2.082 2.229 1.195 3.883a3.847 3.847 0 01-1.201 1.283 3.944 3.944 0 01-1.655.628 13.924 13.924 0 01-6.014-.303.567.567 0 01-.135-.085c.222-.777.443-1.554.673-2.33.601.155 1.163.326 1.733.435a5.536 5.536 0 002.548 0c.427-.117.791-.303.87-.777.079-.474-.324-.777-.72-.901-.601-.256-1.234-.443-1.828-.7a2.862 2.862 0 01-1.246-.848 2.785 2.785 0 01-.627-1.355 2.752 2.752 0 01.167-1.479c.19-.47.507-.88.915-1.187a5.977 5.977 0 013.07-1.134 10.736 10.736 0 014.748.528l-.767 2.315zM155.452 15.456l.419-1.973c.903-4.24 1.807-8.479 2.715-12.714 0-.156.205-.396.324-.396h3.347c.012.134.012.27 0 .403-1.013 4.761-2.041 9.515-3.046 14.276-.064.318-.166.435-.507.435-1.028-.047-2.112-.031-3.252-.031zM161.941 15.456c.213-1.01.403-1.942.601-2.874.839-3.914 1.672-7.829 2.501-11.743.071-.365.205-.513.601-.497h3.165c-.166.777-.316 1.553-.482 2.33-.863 4.062-1.733 8.116-2.58 12.186-.095.481-.269.645-.791.614-.839-.047-1.686 0-2.525 0l-.49-.016zM209.435 8.07a3.435 3.435 0 00-2.089-.35 2.723 2.723 0 00-1.402.694 2.638 2.638 0 00-.774 1.341c-.34 1.15-.562 2.33-.791 3.503-.143.614-.246 1.227-.404 1.833 0 .132-.206.342-.317.342h-3.378a7204.02 7204.02 0 002.184-10.439h3.26l-.309 1.934h.071l.198-.248c.246-.347.511-.682.791-1.002a3.414 3.414 0 011.624-.906 3.456 3.456 0 011.866.075.4.4 0 01.23.326c-.238.986-.491 1.903-.76 2.897zM148.971 15.456c.222-1.087.428-2.113.649-3.107.491-2.33.981-4.66 1.488-6.99 0-.147.19-.373.293-.373h3.466c-.198.956-.388 1.857-.578 2.758-.515 2.415-1.037 4.823-1.543 7.23-.071.365-.19.505-.594.497-1.052-.038-2.089-.015-3.181-.015zM174.333 4.979c-.167.776-.309 1.553-.467 2.267-.554 2.59-1.105 5.178-1.654 7.767-.063.31-.166.466-.538.458h-3.237c.23-1.095.436-2.136.657-3.168.491-2.33.989-4.606 1.464-6.913.063-.303.166-.411.483-.404 1.076 0 2.144-.007 3.292-.007zM207.378 15.448c.221-1.01.419-1.941.633-2.873 0-.11.15-.272.229-.272h3.237c-.222 1.025-.428 1.988-.649 2.951a.388.388 0 01-.293.202c-1.029 0-2.058-.008-3.157-.008zM174.72 3.153h-3.671c.182-.776.34-1.553.53-2.33a.361.361 0 01.269-.225h3.434c-.198.87-.372 1.709-.562 2.555zM155.808.582c-.174.777-.324 1.554-.506 2.33a.437.437 0 01-.269.287h-3.458c.182-.776.34-1.553.53-2.33a.361.361 0 01.269-.225c1.124-.07 2.239-.062 3.434-.062z"/></g><defs><clipPath id="dclip0_12359_544"><path d="M0 0h238.547v20.046H0z"/></clipPath></defs></svg><svg viewBox="0 0 64 64" id="item-1" xmlns="http://www.w3.org/2000/svg"><g clip-path="url(#eclip0_12404_707)"><path d="M60.799 42.018v-5.095a1.6 1.6 0 00-1.6-1.6h-8v-6.4h8a1.6 1.6 0 001.6-1.6V22.23a4.8 4.8 0 10-3.2 0v3.494h-6.4v-4.8a1.6 1.6 0 00-1.6-1.6h-4.8v-6.4C44.8 5.855 39.07.124 32 .124c-7.07 0-12.8 5.731-12.8 12.8v6.4h-4.799a1.6 1.6 0 00-1.6 1.6v4.8H6.4V22.23a4.8 4.8 0 10-3.2 0v5.094a1.6 1.6 0 001.6 1.6h8v6.4h-8a1.6 1.6 0 00-1.6 1.6v5.094a4.8 4.8 0 103.2 0v-3.495h6.4v8a1.6 1.6 0 001.6 1.6h11.2v9.6h-3.495a4.8 4.8 0 100 3.2H27.2a1.6 1.6 0 001.6-1.6v-11.2h6.4v11.2a1.6 1.6 0 001.6 1.6h5.094a4.8 4.8 0 100-3.2H38.4v-9.6h11.199a1.6 1.6 0 001.6-1.6v-8h6.4v3.495a4.8 4.8 0 103.2 0zm-1.6-25.894a1.6 1.6 0 110 3.2 1.6 1.6 0 010-3.2zm-54.398 0a1.6 1.6 0 110 3.2 1.6 1.6 0 010-3.2zm0 32a1.6 1.6 0 110-3.2 1.6 1.6 0 010 3.2zm12.8 12.798a1.6 1.6 0 110-3.2 1.6 1.6 0 010 3.2zm28.799-3.2a1.6 1.6 0 110 3.2 1.6 1.6 0 010-3.2zm-24-44.798a9.6 9.6 0 019.6-9.6 9.6 9.6 0 019.6 9.6v6.4H22.4v-6.4zM48 44.923H16v-22.4h32v22.4zm11.199 3.2a1.6 1.6 0 110-3.2 1.6 1.6 0 010 3.2z"/><path d="M32 28.924a1.6 1.6 0 00-1.6 1.6v6.4a1.6 1.6 0 103.2 0v-6.4a1.6 1.6 0 00-1.6-1.6z"/></g><defs><clipPath id="eclip0_12404_707"><path d="M0 0h64v64H0z"/></clipPath></defs></svg><svg viewBox="0 0 64 64" id="item-2" xmlns="http://www.w3.org/2000/svg"><g clip-path="url(#fclip0_12404_708)"><path d="M13.728 26.353A5.653 5.653 0 008.08 32c.31 7.492 10.985 7.49 11.294 0a5.653 5.653 0 00-5.647-5.647zm0 7.53A1.884 1.884 0 0111.845 32c.104-2.497 3.662-2.497 3.765 0a1.885 1.885 0 01-1.882 1.882z"/><path d="M57.022 48.941a5.611 5.611 0 00-2.783.736l-4.747-3.56V38.81l2.327-1.163h5.982L63.45 32 57.8 26.353h-8.309v-8.47l4.747-3.56c3.677 2.146 8.472-.63 8.43-4.911a5.653 5.653 0 00-5.647-5.647c-3.91-.06-6.74 4.102-5.257 7.707L45.728 16v10.353h-3.765V10.97C47.858 8.79 46.446.12 40.081 0c-6.366.12-7.777 8.79-1.883 10.97v15.383h-3.764V16l-6.038-4.528c1.483-3.605-1.346-7.768-5.256-7.707a5.653 5.653 0 00-5.647 5.647c-.042 4.281 4.752 7.058 8.43 4.91l4.746 3.56v8.47h-5.034C19.495 13.797.735 17.963.551 32c.185 14.04 18.946 18.202 25.084 5.647h5.034v8.47l-4.747 3.56c-3.677-2.146-8.472.63-8.43 4.911a5.653 5.653 0 005.648 5.647c3.91.06 6.74-4.102 5.256-7.707L34.434 48V37.647h1.438l2.326 1.163v14.22C32.303 55.21 33.716 63.88 40.081 64c6.365-.12 7.776-8.79 1.882-10.97V38.81l1.882-.94 1.883.94V48l6.037 4.528c-1.483 3.605 1.346 7.768 5.257 7.707 7.491-.31 7.49-10.985 0-11.294zm0-41.412c1.038 0 1.882.845 1.882 1.883-.103 2.497-3.662 2.496-3.765 0 0-1.038.845-1.883 1.883-1.883zM40.08 3.765c1.038 0 1.882.844 1.882 1.882-.103 2.497-3.662 2.497-3.765 0 0-1.038.845-1.882 1.883-1.882zM21.257 9.412c0-1.038.845-1.883 1.883-1.883 2.497.104 2.496 3.662 0 3.765a1.885 1.885 0 01-1.883-1.882zM23.14 56.47a1.884 1.884 0 01-1.883-1.883c.104-2.497 3.662-2.496 3.765 0a1.885 1.885 0 01-1.882 1.883zm16.94 3.764a1.884 1.884 0 01-1.882-1.882c.104-2.497 3.662-2.497 3.765 0a1.884 1.884 0 01-1.882 1.882zm0-24.693l-3.32-1.66H23.047l-.443 1.255C18.924 45.013 4.497 42.55 4.316 32c.182-10.552 14.609-13.012 18.288-3.137l.443 1.255h33.195L58.125 32l-1.883 1.882h-5.311l-3.32 1.66-3.765-1.882-3.765 1.883zm16.942 20.929a1.884 1.884 0 01-1.883-1.883c.104-2.497 3.662-2.496 3.765 0a1.884 1.884 0 01-1.882 1.883z"/></g><defs><clipPath id="fclip0_12404_708"><path d="M0 0h64v64H0z"/></clipPath></defs></svg><svg viewBox="0 0 64 64" id="item-3" xmlns="http://www.w3.org/2000/svg"><path fill-rule="evenodd" clip-rule="evenodd" d="M49.059 28.986h7.463c.824 0 1.492-.668 1.492-1.493v-4.752a4.478 4.478 0 10-2.985 0V26h-5.97v2.985zm7.52-9.046a1.55 1.55 0 100-3.1 1.55 1.55 0 000 3.1zM35.004 50.716v7.463c0 .824.668 1.492 1.493 1.492h4.752a4.478 4.478 0 100-2.985h-3.26v-5.97h-2.985zm9.047 7.52a1.55 1.55 0 103.099 0 1.55 1.55 0 00-3.1 0zM14.941 28.986H7.48a1.493 1.493 0 01-1.493-1.493v-4.752a4.478 4.478 0 112.985 0V26h5.97v2.985zm-7.52-9.047a1.55 1.55 0 110-3.099 1.55 1.55 0 010 3.1zM45.648 37.515h10.874c.825 0 1.493.669 1.493 1.493v4.752a4.478 4.478 0 11-2.986 0V40.5h-9.381v-2.985zm10.932 9.047a1.55 1.55 0 110 3.099 1.55 1.55 0 010-3.1zM26.477 49.863v8.316c0 .825-.669 1.493-1.493 1.493H20.23a4.478 4.478 0 110-2.986h3.26v-6.823h2.986zm-9.047 8.374a1.55 1.55 0 11-3.1 0 1.55 1.55 0 013.1 0zM18.352 37.516H7.478c-.825 0-1.493.668-1.493 1.492v4.753a4.478 4.478 0 102.986 0V40.5h9.381v-2.985zM7.42 46.562a1.55 1.55 0 100 3.1 1.55 1.55 0 000-3.1z"/><path d="M50.513 18.23C49.483 7.892 40.263.355 29.925 1.385A18.816 18.816 0 0013.08 18.23l-.251 2.512.44 2.575 4.195 23.414a4.45 4.45 0 002.726 3.367 30.653 30.653 0 0023.2 0 4.448 4.448 0 002.726-3.38l4.196-23.401.452-2.563-.252-2.524zM20.855 8.017c6.67-6.042 16.97-5.54 23.013 1.13a16.223 16.223 0 014.02 8.417c-3.669-2.073-10.175-3.053-16.104-3.053-5.93 0-12.424.968-16.104 3.053a16.357 16.357 0 015.175-9.547zm22.8 38.275a1.984 1.984 0 01-1.207 1.494 28.172 28.172 0 01-21.304 0 1.99 1.99 0 01-1.206-1.482l-3.68-20.626c3.78 1.885 9.986 2.751 15.538 2.751s11.77-.866 15.538-2.75l-3.68 20.613zm4.571-24.445a.973.973 0 00-.2.302c-1.533 1.846-7.638 3.78-16.23 3.78S17.1 23.996 15.567 22.15a1.263 1.263 0 00-.201-.302.597.597 0 01-.088-.264l.038-.364c.615-1.746 6.733-4.208 16.493-4.208 9.735 0 15.852 2.45 16.48 4.196l.038.376a.827.827 0 01-.1.264z"/></svg><svg viewBox="0 0 107 69" id="logo" xmlns="http://www.w3.org/2000/svg"><g clip-path="url(#hclip0_12359_364)"><path d="M71.867 32.252l-1.935-4.588h-3.05l3.539 7.091v3.907h2.889v-3.897l3.532-7.091h-3.05l-1.925 4.578zm-6.078 6.42V27.674h-2.832v6.38l-3.688-6.39h-2.84v10.998h2.84v-6.387l3.698 6.397h2.822zm-16.926-4.103l1.073-3.474 1.08 3.474h-2.153zm3.424 4.102h3.06l-4.064-10.997H48.59l-4.04 10.998h3.05l.564-1.822h3.563l.56 1.822zm-11.555-5.855h-1.63v-2.861h1.63a1.356 1.356 0 011.103.445 1.7 1.7 0 01.373 1.124 1.236 1.236 0 01-.367.94 1.542 1.542 0 01-1.109.352zm0-5.142h-4.467v10.998h2.836v-3.566h1.631a5.466 5.466 0 002.31-.452 3.542 3.542 0 001.52-1.272c.358-.558.543-1.209.531-1.87a3.725 3.725 0 00-.532-1.967 3.623 3.623 0 00-1.521-1.366 5.063 5.063 0 00-2.311-.495l.003-.01zm-6.804.01h-3.74l-2.311 7.294-2.311-7.294h-3.728V38.68h2.846v-2.077l-.28-5.59 2.548 7.667h1.855l2.552-7.668-.274 5.59v2.078h2.846l-.003-10.997zM17.42 32.97v.416a4.356 4.356 0 01-.518 2.326 1.644 1.644 0 01-1.476.823 1.66 1.66 0 01-1.509-.813 4.446 4.446 0 01-.508-2.336v-.416c0-2.087.668-3.131 2.004-3.133a1.66 1.66 0 011.486.803c.35.537.521 1.31.521 2.33zm2.899.416v-.4a6.285 6.285 0 00-.628-2.89 4.601 4.601 0 00-1.743-1.901 5.214 5.214 0 00-5.087 0 4.538 4.538 0 00-1.73 1.9 6.37 6.37 0 00-.62 2.89v.4a6.38 6.38 0 00.62 2.891c.383.785.99 1.44 1.747 1.884a4.901 4.901 0 002.558.656 4.852 4.852 0 002.536-.656 4.508 4.508 0 001.733-1.894 6.336 6.336 0 00.624-2.89l-.01.01zM9.577 34.88h-2.83a1.524 1.524 0 01-.471 1.229c-.387.282-.862.42-1.34.387a1.91 1.91 0 01-1.103-.276 1.597 1.597 0 01-.575-.94 7.613 7.613 0 01-.178-1.875v-.475a6.927 6.927 0 01.195-1.838c.082-.378.286-.718.58-.97a1.66 1.66 0 011.021-.292c.673 0 1.155.138 1.446.413a1.756 1.756 0 01.442 1.31h2.83a4.603 4.603 0 00-.677-2.087 3.843 3.843 0 00-1.595-1.425 5.451 5.451 0 00-2.446-.54 4.578 4.578 0 00-2.463.655 4.355 4.355 0 00-1.65 1.884 6.714 6.714 0 00-.581 2.89v.469a6.952 6.952 0 00.557 2.897 4.15 4.15 0 001.631 1.87c.775.452 1.661.68 2.559.656.823.017 1.64-.15 2.39-.488a3.82 3.82 0 001.621-1.383 3.957 3.957 0 00.637-2.071zM33.598 22.201a1.603 1.603 0 00-.773.18 1.36 1.36 0 00-.72 1.21c-.004.252.062.5.192.718.126.212.309.386.528.501a1.69 1.69 0 001.545 0c.22-.115.403-.289.529-.501.128-.218.194-.466.191-.718a1.357 1.357 0 00-.72-1.21 1.602 1.602 0 00-.772-.18zm-7.24.44h-1.65v-2.268h1.776c.86 0 1.29.403 1.29 1.21a.977.977 0 01-.33.76c-.309.223-.688.328-1.07.298h-.016zm-.472-6.443c.437-.035.874.062 1.254.279a1.057 1.057 0 01.39.92.941.941 0 01-.373.833 2.398 2.398 0 01-1.294.255h-1.166v-2.293l1.189.006zm2.971 3.15a2.143 2.143 0 001.156-.931c.247-.438.372-.934.363-1.436a2.56 2.56 0 00-.277-1.302 2.583 2.583 0 00-.895-.992c-.784-.517-1.884-.776-3.302-.776h-4.04v11h4.496c2.826 0 4.239-1.092 4.239-3.276a2.52 2.52 0 00-.42-1.426 2.104 2.104 0 00-1.32-.862zm-11.508-.145v.433a4.393 4.393 0 01-.519 2.326 1.76 1.76 0 01-1.485.805 1.776 1.776 0 01-1.486-.805c-.35-.544-.525-1.32-.525-2.326v-.433c0-2.09.667-3.136 2-3.136a1.68 1.68 0 011.506.806c.348.538.522 1.314.522 2.33h-.013zm2.895.433v-.416a6.328 6.328 0 00-.627-2.89 4.568 4.568 0 00-1.744-1.901 5.194 5.194 0 00-5.087 0 4.517 4.517 0 00-1.73 1.9 6.328 6.328 0 00-.62 2.89v.417a6.32 6.32 0 00.62 2.887c.378.787.98 1.447 1.734 1.897a4.944 4.944 0 002.561.655 4.867 4.867 0 002.532-.655 4.485 4.485 0 001.737-1.897c.433-.9.647-1.89.624-2.887zM4.992 22.657H3.34v-2.284h1.773c.86 0 1.292.403 1.294 1.21a.977.977 0 01-.33.76c-.308.223-.687.329-1.067.298l-.02.016zm-.472-6.459c.437-.035.874.062 1.254.279a1.063 1.063 0 01.39.92.94.94 0 01-.373.833 2.408 2.408 0 01-1.295.255H3.331v-2.293l1.189.006zm2.97 3.15a2.143 2.143 0 001.156-.931c.244-.44.367-.934.357-1.436.025-.45-.07-.9-.276-1.303a2.573 2.573 0 00-.896-.99c-.78-.518-1.885-.777-3.302-.777H.492v11h4.5c2.826 0 4.239-1.092 4.239-3.276a2.545 2.545 0 00-.42-1.426 2.114 2.114 0 00-1.32-.862zM49.751 9.123c-.184 0-.366-.048-.525-.14a1.086 1.086 0 01-.409-.4 1.16 1.16 0 01-.155-.6 1.774 1.774 0 01.08-.57c.056-.163.14-.314.247-.45l.046-.029 1.79 1.966c-.342.138-.706.209-1.074.21v.013zm-.502-6.102a.835.835 0 01.218-.596.826.826 0 01.634-.236.714.714 0 01.562.24.783.783 0 01.214.537 1.016 1.016 0 01-.119.468c-.13.207-.312.377-.528.492l-.449.288a3.272 3.272 0 01-.4-.636 1.34 1.34 0 01-.132-.566v.01zm6.626 8.124l-1.703-1.917c.693-.911 1.04-2.145 1.043-3.703h-2.268a3.863 3.863 0 01-.452 1.832l-1.558-1.753.623-.44a3.727 3.727 0 001.063-1.09c.263-.402.403-.87.403-1.348a2.624 2.624 0 00-.368-1.372A2.65 2.65 0 0051.626.37 3.075 3.075 0 0050.099 0a3.397 3.397 0 00-1.667.397c-.47.25-.859.629-1.12 1.09a3.168 3.168 0 00-.164 2.708c.184.437.415.853.69 1.242l-.076.045a8.837 8.837 0 00-1.007.82 3.059 3.059 0 00-.618.848c-.153.332-.23.694-.224 1.059-.01.568.143 1.127.442 1.612.305.481.744.864 1.265 1.101a4.413 4.413 0 001.924.393 6.06 6.06 0 001.492-.17 5.74 5.74 0 001.321-.534l.489.544 3.03-.01zm-12.06-8.717V.134h-7.744v11.02h7.715V8.882h-4.88V6.616h4.117V4.424h-4.117V2.438l4.91-.01zm-9.273 4.916h-2.823a1.525 1.525 0 01-.472 1.232 2.048 2.048 0 01-1.32.383 1.902 1.902 0 01-1.103-.275 1.617 1.617 0 01-.578-.94 7.603 7.603 0 01-.178-1.872v-.458a6.956 6.956 0 01.195-1.839 1.78 1.78 0 01.58-.983 1.66 1.66 0 011.021-.292c.676 0 1.158.138 1.446.413a1.755 1.755 0 01.442 1.311h2.83a4.643 4.643 0 00-.66-2.097A3.906 3.906 0 0032.326.5a5.475 5.475 0 00-2.46-.51 4.565 4.565 0 00-2.46.655 4.332 4.332 0 00-1.65 1.884 6.667 6.667 0 00-.584 2.89v.462a6.91 6.91 0 00.561 2.897 4.134 4.134 0 001.628 1.868 4.851 4.851 0 002.561.655 5.564 5.564 0 002.39-.485 3.875 3.875 0 001.618-1.383c.4-.62.616-1.338.624-2.074l-.013-.016zM23.442.157h-2.828v10.998h2.829V.157zm-8.725 8.724V.157h-2.829v10.998h7.395V8.88h-4.566zM4.315 7.055l1.073-3.477L6.47 7.055H4.315zm3.427 4.1h3.057L6.735.157H4.04L.003 11.155h3.054l.561-1.819h3.56l.564 1.819zM107 44.206H.29V69H107V44.206z"/></g><defs><clipPath id="hclip0_12359_364"><path d="M0 0h107v69H0z"/></clipPath></defs></svg><svg viewBox="0 0 77 39" id="logo-preload" xmlns="http://www.w3.org/2000/svg"><path d="M71.867 32.252l-1.934-4.588h-3.05l3.538 7.091v3.907h2.889v-3.897l3.532-7.091h-3.05l-1.925 4.578zm-6.078 6.42V27.674h-2.832v6.38l-3.688-6.39H56.43v10.998h2.84v-6.387l3.697 6.397h2.822zm-16.926-4.103l1.073-3.474 1.08 3.474h-2.153zm3.424 4.102h3.06l-4.064-10.997H48.59l-4.04 10.998h3.05l.564-1.822h3.563l.56 1.822zm-11.555-5.855h-1.63v-2.861h1.63a1.356 1.356 0 011.103.445 1.7 1.7 0 01.373 1.124 1.236 1.236 0 01-.367.94 1.543 1.543 0 01-1.109.352zm0-5.142h-4.467v10.998h2.836v-3.566h1.631a5.464 5.464 0 002.311-.452 3.543 3.543 0 001.519-1.272c.358-.558.543-1.209.531-1.87a3.725 3.725 0 00-.531-1.967 3.622 3.622 0 00-1.522-1.366 5.062 5.062 0 00-2.311-.495l.003-.01zm-6.804.01h-3.74l-2.311 7.294-2.311-7.294h-3.727V38.68h2.845v-2.077l-.28-5.59 2.548 7.667h1.856l2.552-7.668-.274 5.59v2.078h2.845l-.003-10.997zm-16.507 5.285v.417a4.355 4.355 0 01-.518 2.326 1.646 1.646 0 01-1.476.823 1.66 1.66 0 01-1.508-.813 4.446 4.446 0 01-.509-2.336v-.417c0-2.086.668-3.13 2.004-3.132a1.66 1.66 0 011.486.803c.35.537.521 1.31.521 2.33zm2.899.417v-.4c.024-1-.191-1.99-.627-2.89a4.6 4.6 0 00-1.744-1.901 5.214 5.214 0 00-5.087 0 4.538 4.538 0 00-1.73 1.9 6.37 6.37 0 00-.62 2.89v.4a6.38 6.38 0 00.62 2.891c.383.785.99 1.44 1.747 1.884a4.902 4.902 0 002.558.656 4.851 4.851 0 002.536-.656 4.508 4.508 0 001.733-1.894 6.338 6.338 0 00.624-2.89l-.01.01zM9.577 34.88H6.748a1.523 1.523 0 01-.472 1.229c-.387.282-.862.42-1.34.387a1.91 1.91 0 01-1.103-.276 1.597 1.597 0 01-.575-.94 7.613 7.613 0 01-.178-1.875v-.475a6.928 6.928 0 01.195-1.838c.082-.378.286-.718.581-.97a1.66 1.66 0 011.02-.292c.674 0 1.156.138 1.446.413a1.756 1.756 0 01.443 1.31h2.829a4.603 4.603 0 00-.677-2.087 3.843 3.843 0 00-1.595-1.425 5.45 5.45 0 00-2.446-.54 4.578 4.578 0 00-2.463.655 4.355 4.355 0 00-1.65 1.884 6.714 6.714 0 00-.581 2.89v.469a6.952 6.952 0 00.558 2.897 4.15 4.15 0 001.63 1.87c.775.452 1.661.68 2.559.656.823.017 1.64-.15 2.39-.488a3.82 3.82 0 001.621-1.383 3.958 3.958 0 00.637-2.071zM33.598 22.201a1.603 1.603 0 00-.773.18 1.36 1.36 0 00-.72 1.21c-.004.252.062.5.192.718.126.212.309.386.528.501a1.69 1.69 0 001.545 0c.22-.115.403-.289.529-.501.128-.218.194-.466.191-.718a1.357 1.357 0 00-.72-1.21 1.602 1.602 0 00-.772-.18zm-7.24.44h-1.65v-2.268h1.776c.86 0 1.29.403 1.29 1.21a.977.977 0 01-.33.76c-.309.223-.688.328-1.07.298h-.016zm-.472-6.443c.437-.035.874.062 1.254.279a1.057 1.057 0 01.39.92.941.941 0 01-.373.833 2.398 2.398 0 01-1.294.255h-1.166v-2.293l1.189.006zm2.971 3.15a2.143 2.143 0 001.156-.931c.247-.438.372-.934.363-1.436a2.56 2.56 0 00-.277-1.302 2.583 2.583 0 00-.895-.992c-.784-.517-1.884-.776-3.302-.776h-4.04v11h4.496c2.826 0 4.239-1.092 4.239-3.276a2.52 2.52 0 00-.42-1.426 2.104 2.104 0 00-1.32-.862zm-11.508-.145v.433a4.393 4.393 0 01-.519 2.326 1.76 1.76 0 01-1.485.805 1.776 1.776 0 01-1.486-.805c-.35-.544-.525-1.32-.525-2.326v-.433c0-2.09.667-3.136 2-3.136a1.68 1.68 0 011.506.806c.348.538.522 1.314.522 2.33h-.013zm2.895.433v-.416a6.328 6.328 0 00-.627-2.89 4.568 4.568 0 00-1.744-1.901 5.194 5.194 0 00-5.087 0 4.517 4.517 0 00-1.73 1.9 6.328 6.328 0 00-.62 2.89v.417a6.32 6.32 0 00.62 2.887c.378.787.98 1.447 1.734 1.897a4.944 4.944 0 002.561.655 4.867 4.867 0 002.532-.655 4.485 4.485 0 001.737-1.897c.433-.9.647-1.89.624-2.887zM4.992 22.657H3.34v-2.284h1.773c.86 0 1.292.403 1.294 1.21a.977.977 0 01-.33.76c-.308.223-.687.329-1.067.298l-.02.016zm-.472-6.459c.437-.035.874.062 1.254.279a1.063 1.063 0 01.39.92.94.94 0 01-.373.833 2.408 2.408 0 01-1.295.255H3.331v-2.293l1.189.006zm2.97 3.15a2.143 2.143 0 001.156-.931c.244-.44.367-.934.357-1.436.025-.45-.07-.9-.276-1.303a2.573 2.573 0 00-.896-.99c-.78-.518-1.885-.777-3.302-.777H.492v11h4.5c2.826 0 4.239-1.092 4.239-3.276a2.546 2.546 0 00-.42-1.426 2.114 2.114 0 00-1.32-.862M49.751 9.123c-.184 0-.365-.048-.524-.14a1.085 1.085 0 01-.41-.4 1.16 1.16 0 01-.155-.6 1.774 1.774 0 01.08-.57c.056-.163.14-.314.247-.45l.046-.029 1.79 1.966c-.342.138-.706.209-1.074.21v.013zm-.501-6.102a.835.835 0 01.218-.596.826.826 0 01.633-.236.714.714 0 01.562.24.783.783 0 01.214.537 1.017 1.017 0 01-.119.468 1.4 1.4 0 01-.528.492l-.449.288a3.272 3.272 0 01-.4-.636 1.34 1.34 0 01-.131-.566v.01zm6.625 8.124l-1.703-1.917c.693-.911 1.041-2.145 1.043-3.703h-2.268a3.863 3.863 0 01-.452 1.832l-1.558-1.753.624-.44a3.724 3.724 0 001.063-1.09c.262-.402.402-.87.402-1.348a2.623 2.623 0 00-.368-1.372A2.65 2.65 0 0051.627.37 3.075 3.075 0 0050.098 0a3.398 3.398 0 00-1.667.397c-.47.25-.858.629-1.12 1.09a3.17 3.17 0 00-.164 2.708c.184.437.415.853.69 1.241l-.076.046a8.837 8.837 0 00-1.007.82 3.058 3.058 0 00-.617.848c-.154.332-.23.694-.225 1.059-.01.568.144 1.127.442 1.612.305.481.745.864 1.265 1.101a4.412 4.412 0 001.925.393 6.062 6.062 0 001.492-.17c.46-.123.904-.302 1.32-.534l.489.544 3.03-.01zm-12.06-8.717V.134h-7.744v11.02h7.715V8.882h-4.88V6.616h4.117V4.424h-4.117V2.438l4.91-.01zm-9.273 4.916H31.72a1.523 1.523 0 01-.472 1.232 2.048 2.048 0 01-1.32.383 1.903 1.903 0 01-1.103-.275 1.617 1.617 0 01-.578-.94 7.604 7.604 0 01-.178-1.872v-.458a6.96 6.96 0 01.195-1.839 1.78 1.78 0 01.581-.983 1.66 1.66 0 011.02-.292c.676 0 1.158.138 1.446.413a1.755 1.755 0 01.443 1.311h2.829a4.641 4.641 0 00-.66-2.097A3.905 3.905 0 0032.327.5a5.475 5.475 0 00-2.46-.51 4.565 4.565 0 00-2.46.655 4.332 4.332 0 00-1.65 1.884 6.67 6.67 0 00-.584 2.89v.462a6.91 6.91 0 00.561 2.897 4.135 4.135 0 001.628 1.868 4.851 4.851 0 002.562.655 5.564 5.564 0 002.39-.485 3.875 3.875 0 001.617-1.383c.4-.62.616-1.338.624-2.074l-.013-.016zM23.443.157h-2.83v10.998h2.83V.157zm-8.726 8.724V.157h-2.829v10.998h7.395V8.88h-4.566zM4.316 7.055l1.073-3.477L6.47 7.055H4.315zm3.427 4.1h3.057L6.735.157H4.04L.003 11.155h3.054l.561-1.819h3.56l.564 1.819z"/></svg></svg>