<svg width="73" height="50" viewBox="0 0 73 50" fill="none" xmlns="http://www.w3.org/2000/svg">
<path d="M36.1073 49.6014H6.73557C5.03337 49.6107 3.39463 48.9558 2.16777 47.7758C0.940905 46.5958 0.222679 44.9838 0.165789 43.2826C0.165789 43.1247 0.165789 42.9628 0.165789 42.8049C0.165789 30.9688 0.165789 19.1326 0.165789 7.2965C0.137749 6.27527 0.349886 5.26173 0.78512 4.33747C1.21986 3.39086 1.87869 2.56442 2.7046 1.92964C3.53051 1.29487 4.49864 0.870871 5.52524 0.694333C5.94148 0.614785 6.36442 0.575477 6.78819 0.576945C26.3532 0.576945 45.9181 0.576945 65.4831 0.576945C66.952 0.563253 68.383 1.04286 69.5471 1.93898C70.711 2.8351 71.5407 4.09588 71.9031 5.51946C72.0427 6.09456 72.112 6.68447 72.1095 7.27626V17.562C72.1095 26.0303 72.1095 34.4986 72.1095 42.9668C72.1294 44.5421 71.5823 46.0719 70.5679 47.2773C69.5535 48.4826 68.1396 49.2831 66.5841 49.5325C66.213 49.5872 65.838 49.6115 65.4629 49.6054L36.1073 49.6014ZM36.1518 44.5779H65.6207C65.9443 44.5731 66.2572 44.4612 66.5106 44.2598C66.764 44.0585 66.9436 43.7789 67.0213 43.4647C67.0661 43.2724 67.0865 43.0752 67.082 42.8778V7.2965C67.082 7.21959 67.082 7.13863 67.082 7.06172C67.0712 6.76618 66.9726 6.48055 66.7989 6.24121C66.6252 6.00188 66.3841 5.81967 66.1065 5.71781C65.8475 5.62393 65.5715 5.58666 65.2969 5.60851H6.63842C6.29009 5.61964 5.95713 5.75454 5.6993 5.98902C5.52074 6.15353 5.38145 6.3561 5.29177 6.58172C5.20208 6.80734 5.16428 7.05024 5.18117 7.29245C5.18117 19.1664 5.18117 31.0403 5.18117 42.9142C5.17712 42.9924 5.17712 43.0708 5.18117 43.149C5.19425 43.4826 5.31786 43.8025 5.53256 44.0582C5.74725 44.3139 6.04086 44.491 6.36721 44.5617C6.55304 44.5928 6.74169 44.6036 6.92987 44.5941L36.1518 44.5779Z" fill="white"/>
<path d="M56.9419 24.5812C57.112 24.654 57.2334 24.7107 57.3467 24.7593C58.1949 25.0875 58.9901 25.539 59.7067 26.0991C60.5706 26.7619 61.2907 27.5936 61.8231 28.5435C62.3554 29.4934 62.6889 30.5417 62.8034 31.6245C62.9665 32.8228 62.881 34.0418 62.5523 35.2055C62.2236 36.3693 61.6587 37.4528 60.8927 38.3886C59.666 39.9396 57.908 40.9808 55.9583 41.3112C55.3279 41.425 54.6883 41.4806 54.0477 41.4772H38.8599V8.55137C38.9489 8.55137 39.0339 8.55137 39.1189 8.55137C44.0412 8.55137 48.9635 8.5028 53.8817 8.55137C57.1929 8.5959 59.6176 10.2029 61.1194 13.162C61.8474 14.5999 62.136 16.2203 61.9492 17.8211C61.8511 18.9077 61.5266 19.9617 60.9968 20.9153C60.467 21.869 59.7435 22.7013 58.8728 23.3587C58.3911 23.7311 57.8527 24.0347 57.3386 24.3666C57.2253 24.4192 57.1079 24.484 56.9419 24.5812ZM46.2919 35.6077C46.389 35.6077 46.4659 35.6077 46.5428 35.6077C47.7289 35.6077 48.9149 35.6077 50.101 35.6077C50.6381 35.6212 51.1725 35.5267 51.6724 35.3297C52.1723 35.1327 52.6276 34.8373 53.0111 34.4609C53.3947 34.0846 53.6987 33.6351 53.9052 33.1391C54.1117 32.643 54.2164 32.1105 54.2132 31.5732C54.2099 31.0359 54.0987 30.5047 53.8863 30.0112C53.6738 29.5176 53.3643 29.0718 52.9762 28.7002C52.5881 28.3286 52.1294 28.0387 51.6271 27.8478C51.1248 27.6568 50.5893 27.5688 50.0524 27.5888C48.8906 27.5888 47.7248 27.5888 46.559 27.5888C46.474 27.5888 46.389 27.5888 46.2919 27.609V35.6077ZM46.2919 13.5546V21.5533H46.5185H49.4816C49.6987 21.5493 49.9152 21.529 50.1293 21.4926C51.1034 21.312 51.9761 20.7773 52.5795 19.9915C53.1829 19.2058 53.4741 18.2246 53.3972 17.2369C53.3203 16.2493 52.8807 15.325 52.163 14.6421C51.4452 13.9592 50.5002 13.5661 49.51 13.5384C48.5223 13.5384 47.5346 13.5384 46.5469 13.5384L46.2919 13.5546Z" fill="white"/>
<path d="M10.322 41.4689V8.52686C10.4232 8.52686 10.5082 8.52686 10.5932 8.52686C14.7545 8.52686 18.9117 8.52686 23.073 8.52686C25.533 8.52917 27.9198 9.36377 29.8452 10.8949C31.7636 12.3724 33.1467 14.4363 33.7838 16.7725C34.2 18.0892 34.5286 19.432 34.7674 20.7921C34.9051 21.6786 35.0063 22.5732 35.0994 23.4637C35.2039 24.5765 35.2215 25.6958 35.152 26.8113C35.1075 27.6654 35.0224 28.5236 34.9091 29.3737C34.7152 30.8029 34.3983 32.2128 33.9619 33.5876C33.3816 35.4656 32.313 37.1559 30.8652 38.4855C29.2161 40.0098 27.1474 41.004 24.9269 41.3393C24.4398 41.4196 23.9472 41.4616 23.4535 41.4648C19.1681 41.4648 14.8813 41.4648 10.5932 41.4648L10.322 41.4689ZM17.7581 36.0123C17.839 36.0123 17.8957 36.0123 17.9524 36.0123C18.9724 36.0123 19.9763 36.0123 21.0045 36.0123C21.4475 36.0053 21.8886 35.951 22.3201 35.8503C23.3286 35.6247 24.2604 35.1391 25.0231 34.4417C25.7858 33.7444 26.3527 32.8596 26.6675 31.8753C27.3249 30.042 27.6949 28.1181 27.7645 26.1718C27.849 24.5726 27.7128 22.9694 27.3597 21.4073C27.0845 20.2699 26.7364 19.1486 26.4044 18.0192C26.2506 17.5079 26.014 17.0252 25.7041 16.5903C25.1872 15.8024 24.4879 15.1508 23.6656 14.6907C22.8433 14.2305 21.9221 13.9754 20.9802 13.947C20.0047 13.9025 19.0251 13.9268 18.0455 13.9227C17.9605 13.9227 17.8714 13.9227 17.7743 13.9227L17.7581 36.0123Z" fill="white"/>
</svg>
