<svg width="202" height="29" viewBox="0 0 202 29" fill="none" xmlns="http://www.w3.org/2000/svg">
<g clip-path="url(#clip0_12359_512)">
<path d="M4.01693 4.83395C3.96741 5.46095 3.93028 6.04406 3.86838 6.64597C3.69127 7.98619 3.89954 9.34971 4.46822 10.573C5.0369 11.7964 5.94184 12.8275 7.07454 13.5429C8.66525 14.6527 10.5221 15.3738 12.2613 16.2766C13.8397 16.98 15.3663 17.7972 16.8292 18.7219C17.7479 19.3444 18.428 20.2673 18.7558 21.3366C19.0837 22.4059 19.0394 23.5567 18.6303 24.5969C17.9371 26.5468 16.0122 27.8134 13.6787 27.8573C7.61922 27.9701 1.91869 23.2927 0.581756 17.0917C0.102591 15.0924 0.0764136 13.0092 0.505185 10.9982C0.933956 8.98713 1.80655 7.10053 3.05756 5.47976C3.28227 5.21874 3.52644 4.97558 3.78792 4.75244L4.01693 4.83395Z" fill="white"/>
<path d="M137.395 23.838V25.5936H135.049V3.02171C135.716 2.97779 136.386 2.97779 137.054 3.02171C137.227 3.02171 137.456 3.49823 137.463 3.7553C137.463 5.9059 137.463 8.0565 137.463 10.2071C137.463 10.4767 137.463 10.7526 137.512 11.204C138.208 10.5073 139.045 9.97213 139.965 9.63544C140.885 9.29875 141.867 9.16862 142.841 9.25406C145.936 9.41708 148.35 11.505 149.179 14.8155C149.859 17.214 149.638 19.7823 148.56 22.026C148.093 22.9748 147.419 23.8039 146.59 24.4505C145.76 25.0971 144.796 25.5444 143.771 25.7588C142.746 25.9731 141.686 25.9488 140.672 25.6878C139.657 25.4268 138.714 24.9357 137.914 24.2518C137.822 24.164 137.661 24.0763 137.395 23.838ZM147.193 17.6245L147.05 17.5618C146.957 16.8783 146.92 16.1886 146.772 15.524C146.295 13.3295 144.772 11.8686 142.829 11.6743C140.551 11.4423 138.824 12.3702 137.995 14.3829C137.547 15.4118 137.321 16.5256 137.332 17.65C137.343 18.7744 137.59 19.8836 138.057 20.9037C138.386 21.694 138.945 22.3643 139.659 22.8257C140.373 23.287 141.209 23.5176 142.055 23.4869C143.912 23.5245 145.435 22.7846 146.215 21.0479C146.628 19.9342 146.955 18.7896 147.193 17.6245Z" fill="white"/>
<path d="M165.346 25.6127H162.969L162.87 23.6188C161.847 24.7139 160.508 25.4535 159.045 25.7318C157.701 26.0129 156.305 25.9087 155.016 25.4308C154.204 25.145 153.5 24.6108 153.001 23.902C152.502 23.1933 152.233 22.345 152.231 21.4745C152.123 20.5478 152.332 19.6117 152.823 18.8222C153.314 18.0327 154.058 17.4375 154.929 17.1357C156.571 16.5957 158.248 16.1766 159.949 15.8817C160.638 15.7104 161.34 15.5951 162.047 15.5368C162.747 15.4929 162.963 15.1983 162.926 14.5148C162.846 13.079 162.152 12.0507 160.679 11.7811C159.593 11.5993 158.485 11.5993 157.399 11.7811C156.857 11.8542 156.355 12.1065 155.97 12.4989C155.585 12.8913 155.339 13.4017 155.27 13.9505C155.225 14.146 155.17 14.3387 155.103 14.5274H152.738C152.672 13.6967 152.84 12.864 153.224 12.1267C153.608 11.3895 154.19 10.7781 154.905 10.3641C156.112 9.62185 157.492 9.21484 158.904 9.18402C160.317 9.1532 161.713 9.49966 162.951 10.1886C164.808 11.1353 165.359 12.8972 165.365 14.8848V24.9167C165.377 25.1236 165.359 25.3305 165.346 25.6127ZM162.827 17.7125C161.589 17.932 160.444 18.1201 159.281 18.3395C158.231 18.5177 157.197 18.7755 156.186 19.1107C155.693 19.2865 155.281 19.6381 155.025 20.0997C154.77 20.5614 154.69 21.1014 154.799 21.6187C154.917 22.5655 155.548 23.1862 156.656 23.4558C160.296 24.3336 163.328 21.5685 162.827 17.7125Z" fill="white"/>
<path d="M200.992 25.644C200.113 25.644 199.426 25.6064 198.751 25.644C198.502 25.6733 198.249 25.6299 198.023 25.5188C197.797 25.4078 197.608 25.2337 197.476 25.017C195.718 22.6219 193.911 20.2581 192.116 17.8881C192.065 17.8325 192.009 17.7821 191.949 17.7376C191.392 18.2517 190.798 18.747 190.278 19.2988C190.097 19.5402 190.004 19.8365 190.011 20.139C190.011 21.9385 190.011 23.7379 190.011 25.5813H187.573C187.573 25.3054 187.536 25.0295 187.536 24.7537C187.536 17.8128 187.536 10.872 187.536 3.93111C187.536 3.16617 187.74 2.8903 188.495 2.97808C188.996 3.00667 189.498 3.00667 189.999 2.97808V16.3268C190.364 16.0133 190.618 15.8315 190.804 15.6434C192.859 13.7624 194.926 11.9379 196.956 10.0569C197.16 9.84248 197.407 9.67539 197.68 9.56714C197.954 9.45889 198.247 9.41206 198.541 9.42987C199.358 9.4863 200.175 9.42987 201.239 9.42987L193.979 16.0948L200.992 25.644Z" fill="white"/>
<path d="M182.949 25.6187H180.517V24.5967C180.517 21.6185 180.554 18.634 180.517 15.6495C180.473 13.3421 179.514 12.0066 177.837 11.6931C176.83 11.459 175.773 11.6025 174.863 12.097C173.952 12.5916 173.25 13.4037 172.885 14.3829C172.609 15.1013 172.461 15.8632 172.446 16.6339C172.396 19.2986 172.446 21.9633 172.446 24.6343V25.5999H170.026V9.52999H172.322L172.39 11.0787C172.503 11.0238 172.61 10.9588 172.712 10.8843C174.692 9.06602 177.007 8.86537 179.403 9.68046C181.693 10.4579 182.788 12.364 182.881 14.64C183.067 18.2703 182.949 21.9132 182.949 25.6187Z" fill="white"/>
<path d="M15.548 0L16.9406 0.313498C19.7921 0.964313 22.3665 2.51414 24.2938 4.74027C26.2211 6.96639 27.4021 9.75417 27.667 12.7029C28.0104 16.1879 27.0151 19.673 24.8879 22.4339C24.6899 22.6973 24.4361 22.9167 24.0276 23.3493C23.9917 22.8631 23.9917 22.3747 24.0276 21.8884C24.2914 20.6251 24.2055 19.3126 23.7796 18.0956C23.3536 16.8785 22.6041 15.8044 21.6137 14.9915C20.2963 13.9564 18.8678 13.0751 17.3553 12.3644C15.647 11.474 13.8025 10.847 12.1066 9.92535C10.4107 9.00366 9.17899 7.58039 9.04901 5.47368C8.92632 4.26398 9.2612 3.05217 9.98607 2.08282C10.7109 1.11347 11.7718 0.458748 12.9546 0.250795C13.196 0.194365 13.4312 0.0940487 13.6664 0.0188091L15.548 0Z" fill="white"/>
<path d="M55.0184 9.787H52.5426C52.5426 9.64906 52.4745 9.49231 52.4436 9.33556C51.9546 6.71472 50.2525 5.1723 47.5972 5.16603C46.3832 5.16944 45.1761 5.35107 44.0135 5.70524C43.4199 5.8781 42.8868 6.2178 42.476 6.68498C42.0652 7.15217 41.7935 7.72771 41.6924 8.34491C41.3582 10.0942 42.1566 11.4799 43.9578 12.0505C45.5237 12.5521 47.1516 12.853 48.7361 13.3045C50.0374 13.5886 51.3113 13.9893 52.5426 14.502C53.3762 14.9179 54.0938 15.5385 54.6301 16.3071C55.1664 17.0758 55.5044 17.9681 55.6133 18.9029C55.7222 19.8377 55.5985 20.7852 55.2535 21.6592C54.9086 22.5332 54.3532 23.3059 53.6382 23.907C52.2113 25.0739 50.4612 25.762 48.6308 25.8757C46.155 26.1265 43.7968 25.9133 41.6181 24.6217C39.4394 23.3301 38.4553 21.3614 38.3687 18.7969H40.9063L41.0178 19.4239C41.1247 20.1987 41.4342 20.9304 41.9141 21.5434C42.394 22.1563 43.0269 22.6281 43.7473 22.91C44.8801 23.3869 46.0975 23.6229 47.324 23.6035C48.5506 23.5841 49.7601 23.3096 50.8776 22.7972C51.4416 22.5865 51.9378 22.2231 52.3121 21.7467C52.6864 21.2702 52.9246 20.6989 53.0006 20.0948C53.2482 18.2138 52.326 16.8846 50.302 16.3328C48.6556 15.8814 46.9906 15.5303 45.3504 15.0788C44.3808 14.8678 43.4289 14.5806 42.5032 14.2199C41.5988 13.8479 40.8067 13.2418 40.2064 12.4622C39.606 11.6826 39.2183 10.7568 39.0823 9.77765C38.9463 8.79851 39.0666 7.80034 39.4313 6.88314C39.796 5.96594 40.3921 5.1619 41.1601 4.55157C44.3787 1.80533 50.4444 2.07493 53.3163 5.09706C53.9098 5.71349 54.3681 6.44986 54.6614 7.25802C54.9547 8.06618 55.0764 8.92796 55.0184 9.787Z" fill="white"/>
<path d="M83.7254 14.559C83.6637 13.769 83.8093 12.9766 84.1473 12.262C84.4854 11.5474 85.0039 10.936 85.6503 10.4897C87.8785 8.86583 91.8398 8.79058 94.1609 10.2828C94.7925 10.6535 95.3192 11.1829 95.69 11.8199C96.0608 12.457 96.2632 13.1801 96.2777 13.9194C96.3458 17.788 96.2777 21.6566 96.2777 25.5816H93.9133C93.9133 25.011 93.8576 24.4216 93.8204 23.7006L93.2015 24.2084C92.2345 25.0255 91.0729 25.5712 89.8325 25.7913C88.5922 26.0113 87.3166 25.8979 86.1331 25.4624C85.331 25.2328 84.6197 24.7554 84.0983 24.0968C83.5768 23.4382 83.2712 22.6312 83.224 21.7882C83.0819 20.9011 83.2209 19.9911 83.6213 19.189C84.0216 18.3869 84.6626 17.734 85.4522 17.324C87.1791 16.3145 89.1659 16.2268 91.0228 15.8631C91.8088 15.7064 92.6073 15.6374 93.3748 15.4368C93.5084 15.385 93.6274 15.3007 93.7213 15.1913C93.8152 15.082 93.8811 14.951 93.9133 14.8098C93.9489 14.4345 93.9099 14.0559 93.7987 13.6962C93.6874 13.3365 93.5062 13.003 93.2656 12.7155C93.025 12.4279 92.7299 12.1921 92.3979 12.022C92.0658 11.8518 91.7035 11.7508 91.3323 11.7249C90.437 11.5996 89.5289 11.5996 88.6336 11.7249C88.0305 11.7688 87.4604 12.0203 87.0179 12.4378C86.5754 12.8552 86.2872 13.4135 86.2012 14.0197C86.1474 14.1528 86.0633 14.271 85.9557 14.3648C85.8481 14.4585 85.7201 14.5251 85.5822 14.559C84.964 14.6011 84.3436 14.6011 83.7254 14.559ZM93.9195 17.6501C91.7655 18.0764 89.7044 18.4651 87.6619 18.904C87.1982 19.0338 86.773 19.2771 86.424 19.6126C86.1548 19.8496 85.9489 20.1515 85.8253 20.4904C85.7017 20.8294 85.6643 21.1944 85.7168 21.5518C85.7692 21.9092 85.9097 22.2475 86.1252 22.5354C86.3408 22.8232 86.6245 23.0515 86.9501 23.199C87.8068 23.5689 88.7475 23.6926 89.669 23.5566C90.5905 23.4206 91.4572 23.03 92.174 22.4278C93.7152 21.2804 93.9876 19.5875 93.9195 17.6501Z" fill="white"/>
<path d="M58.4351 17.9757C58.4351 14.6714 59.2706 12.0882 61.8145 10.3953C62.8349 9.73745 63.9983 9.34198 65.2039 9.24323C66.4094 9.14448 67.6205 9.34544 68.7319 9.82867C69.8434 10.3119 70.8215 11.0628 71.5813 12.016C72.3411 12.9692 72.8596 14.096 73.0918 15.2984C73.5233 17.211 73.403 19.209 72.7452 21.0542C72.2665 22.5477 71.3079 23.8359 70.0224 24.7132C68.7368 25.5905 67.1982 26.0064 65.652 25.8947C61.8331 25.7191 59.3202 23.4556 58.6393 19.8316C58.5093 19.098 58.466 18.3519 58.4351 17.9757ZM60.8613 17.6998C61.024 18.6674 61.2515 19.6226 61.5422 20.5589C61.902 21.4338 62.5111 22.1801 63.2917 22.7025C64.0724 23.2249 64.989 23.4996 65.9246 23.4915C66.8601 23.4834 67.772 23.1929 68.5438 22.6571C69.3155 22.1214 69.912 21.3646 70.257 20.4837C70.8836 18.8063 70.9489 16.9668 70.4427 15.2483C69.8237 12.9409 68.2145 11.6618 65.9553 11.6368C64.8927 11.5669 63.8407 11.8853 62.99 12.5341C62.1394 13.1829 61.5467 14.1192 61.3194 15.173C61.123 16.0069 60.9681 16.8502 60.8552 17.6998H60.8613Z" fill="white"/>
<path d="M118.287 20.3959H120.763C120.752 21.0341 120.951 21.658 121.329 22.169C121.706 22.6799 122.241 23.0488 122.849 23.2174C123.646 23.5203 124.498 23.642 125.347 23.5737C126.195 23.5054 127.018 23.2489 127.757 22.8224C128.077 22.6346 128.337 22.3572 128.505 22.0235C128.673 21.6898 128.742 21.314 128.704 20.9414C128.686 20.5765 128.548 20.2283 128.313 19.9514C128.077 19.6745 127.758 19.4846 127.405 19.4115C126.037 19.0353 124.644 18.7845 123.264 18.4271C122.711 18.302 122.165 18.145 121.63 17.9569C120.885 17.7455 120.221 17.3119 119.723 16.7124C119.225 16.113 118.917 15.3756 118.838 14.5962C118.711 13.7779 118.833 12.9398 119.186 12.193C119.54 11.4462 120.109 10.8258 120.819 10.4141C121.964 9.66989 123.289 9.25669 124.649 9.21912C126.009 9.18155 127.354 9.52103 128.537 10.2009C129.308 10.6055 129.945 11.2293 130.371 11.9956C130.796 12.7619 130.991 13.6374 130.933 14.5147H128.457C128.472 13.8988 128.278 13.2962 127.908 12.8077C127.537 12.3193 127.012 11.9745 126.42 11.8311C124.879 11.3859 123.326 11.4048 122.051 12.4581C121.783 12.656 121.576 12.9254 121.451 13.2362C121.326 13.5469 121.29 13.8866 121.345 14.2173C121.4 14.548 121.545 14.8566 121.764 15.1084C121.983 15.3603 122.266 15.5455 122.583 15.6433C123.817 16.0117 125.069 16.3151 126.334 16.5524C127.112 16.7102 127.876 16.9347 128.618 17.2233C129.318 17.5064 129.929 17.9778 130.385 18.5866C130.841 19.1954 131.124 19.9185 131.204 20.6783C131.285 21.438 131.159 22.2055 130.84 22.8982C130.522 23.5909 130.023 24.1825 129.398 24.6093C126.965 26.4213 122.447 26.3398 120.113 24.4212C119.519 23.9418 119.045 23.3278 118.727 22.6287C118.41 21.9296 118.26 21.1648 118.287 20.3959Z" fill="white"/>
<path d="M79.3803 25.6251H77.0035V3.05322H79.3865L79.3803 25.6251Z" fill="white"/>
<path d="M103.358 25.6002H101.013V9.54281H103.346V11.5367C104.034 10.6618 104.947 9.99711 105.985 9.61637C107.023 9.23563 108.145 9.15374 109.226 9.37979V11.8376C109.034 11.8534 108.842 11.8534 108.65 11.8376C105.655 11.3047 103.383 13.7186 103.402 16.7909C103.402 19.4619 103.402 22.1266 103.402 24.7914C103.402 25.0422 103.377 25.293 103.358 25.6002Z" fill="white"/>
<path d="M112.067 9.50537H114.413V25.5941H112.067V9.50537Z" fill="white"/>
<path d="M111.77 6.98478V3.94385H114.797V6.98478H111.77Z" fill="white"/>
</g>
<defs>
<clipPath id="clip0_12359_512">
<rect width="201.462" height="28.0644" fill="white"/>
</clipPath>
</defs>
</svg>
