<svg width="239" height="21" viewBox="0 0 239 21" fill="none" xmlns="http://www.w3.org/2000/svg">
<g clip-path="url(#clip0_12359_544)">
<path d="M0.118692 9.66959H7.17714V13.6073L17.4087 7.83664L7.20088 2.07371V5.95709H0.205736V2.34555C0.202177 2.31718 0.202177 2.28848 0.205736 2.26011C0.356212 1.66122 0.706951 1.12914 1.20187 0.748977C1.69678 0.368814 2.30728 0.16252 2.93574 0.163087C7.44618 0.163087 11.9566 0.163087 16.4671 0.163087C17.208 0.163061 17.9189 0.450352 18.4451 0.962398C18.9712 1.47444 19.2699 2.16978 19.2762 2.89699C19.2762 6.15902 19.2762 9.42364 19.2762 12.6909C19.2723 13.4026 18.9857 14.0848 18.4774 14.5924C17.9691 15.1 17.2791 15.3931 16.5541 15.4092C11.9804 15.4092 7.40662 15.4092 2.83287 15.4092C2.11616 15.3932 1.43369 15.105 0.928988 14.6053C0.424282 14.1056 0.136663 13.4333 0.126607 12.7297C0.102868 11.7977 0.118692 10.7336 0.118692 9.66959Z" fill="white"/>
<path d="M175.757 16.5742C177.11 17.2963 178.674 17.5403 180.188 17.2654C180.708 17.1932 181.197 16.9806 181.601 16.6515C182.005 16.3224 182.307 15.8896 182.475 15.4014C182.681 14.881 182.815 14.3451 182.982 13.8481L182.879 13.8015C182.8 13.8574 182.726 13.9198 182.657 13.9879C182.098 14.6688 181.334 15.1592 180.475 15.3893C179.615 15.6194 178.704 15.5774 177.87 15.2694C176.066 14.7412 175.282 13.351 175.092 11.6268C174.924 10.6384 175.007 9.62433 175.336 8.67549C175.665 7.72665 176.228 6.87267 176.976 6.19006C177.682 5.54447 178.549 5.09376 179.49 4.88369C180.431 4.67361 181.412 4.71167 182.333 4.99398C182.816 5.13433 183.266 5.3681 183.656 5.68153C184.046 5.99497 184.368 6.38176 184.604 6.81916C184.73 6.32209 184.857 5.81725 185.007 5.32795C185.007 5.20368 185.166 5.00952 185.253 5.00952C186.289 5.00952 187.334 5.00952 188.418 5.00952C188.18 5.88716 187.951 6.70267 187.753 7.53371C187.152 10.0967 186.59 12.6675 185.957 15.2228C185.755 15.9881 185.476 16.7321 185.126 17.4441C184.778 18.1336 184.249 18.7199 183.594 19.1429C182.94 19.566 182.182 19.8106 181.399 19.8518C179.404 20.1418 177.368 20.004 175.433 19.4479C175.124 19.3469 175.037 19.2615 175.132 18.9353C175.361 18.1509 175.543 17.3819 175.757 16.5742ZM181.565 7.47157C181.142 7.45329 180.721 7.54665 180.347 7.74196C179.972 7.93727 179.658 8.22741 179.437 8.58222C178.993 9.23394 178.766 10.0046 178.788 10.788C178.784 11.0689 178.842 11.3474 178.958 11.6042C179.074 11.861 179.246 12.09 179.461 12.2754C179.676 12.4607 179.93 12.598 180.204 12.6778C180.479 12.7576 180.768 12.7779 181.051 12.7374C181.377 12.7048 181.693 12.6091 181.981 12.4558C182.269 12.3025 182.523 12.0946 182.728 11.8442C183.29 11.1609 183.592 10.3069 183.583 9.42879C183.608 9.16365 183.573 8.8964 183.48 8.64627C183.387 8.39613 183.238 8.16932 183.045 7.98217C182.852 7.79501 182.62 7.65215 182.364 7.56386C182.108 7.47558 181.835 7.44406 181.565 7.47157V7.47157Z" fill="white"/>
<path d="M141.85 0.357428C141.414 2.32241 141.003 4.2408 140.583 6.13589L140.67 6.19026L141.003 5.91065C141.509 5.45099 142.117 5.11232 142.778 4.92101C143.44 4.72971 144.138 4.69096 144.817 4.80778C145.465 4.88682 146.078 5.14164 146.587 5.54362C147.096 5.9456 147.48 6.47883 147.697 7.08343C148.112 8.31675 148.184 9.63629 147.906 10.906C147.627 12.1757 147.009 13.3495 146.115 14.3065C145.408 14.9743 144.523 15.4322 143.563 15.6273C142.602 15.8225 141.605 15.7469 140.686 15.4094C139.953 15.1647 139.336 14.6646 138.953 14.0036C138.858 13.8716 138.779 13.724 138.613 13.4677C138.455 14.0502 138.297 14.5162 138.202 15.0211C138.107 15.5259 137.948 15.5026 137.569 15.4948C136.635 15.4948 135.709 15.4948 134.791 15.4948C135.242 13.5609 135.693 11.6891 136.128 9.80956C136.817 6.8116 137.489 3.81363 138.186 0.815669C138.225 0.660334 138.392 0.411795 138.502 0.411795C139.578 0.341894 140.663 0.357428 141.85 0.357428ZM144.287 9.72413C144.287 8.17078 143.567 7.39411 142.174 7.47954C141.61 7.54245 141.088 7.80144 140.702 8.20961C140.293 8.61163 139.985 9.1017 139.802 9.64095C139.619 10.1802 139.567 10.7538 139.65 11.3163C139.676 11.7812 139.886 12.2178 140.234 12.5337C140.583 12.8497 141.043 13.0203 141.517 13.0095C142.205 12.9974 142.859 12.7181 143.337 12.2328C143.972 11.5495 144.308 10.6483 144.271 9.72413H144.287Z" fill="white"/>
<path d="M71.8585 15.448C72.9901 10.5161 74.1137 5.65411 75.2136 0.792122C75.2928 0.458152 75.4273 0.333883 75.7676 0.341649C76.6301 0.341649 77.4847 0.341649 78.3472 0.341649C78.7587 0.341649 78.8932 0.427084 78.7824 0.869788C78.3868 2.55517 77.9911 4.25609 77.6509 5.94924C77.6509 6.00361 77.6509 6.06574 77.6509 6.24438L78.0861 5.88711C78.6134 5.41674 79.2475 5.07688 79.9358 4.89584C80.624 4.71481 81.3464 4.69784 82.0426 4.84637C82.8128 4.98351 83.5179 5.35913 84.0548 5.91819C84.5916 6.47726 84.9319 7.19038 85.0259 7.95306C85.3344 9.72707 85.0102 11.5512 84.1079 13.1179C83.5118 14.1227 82.5867 14.8999 81.4832 15.323C80.3798 15.746 79.1629 15.7901 78.0307 15.448C77.532 15.3044 77.0705 15.0575 76.6773 14.7239C76.2842 14.3902 75.9685 13.9777 75.7517 13.5141C75.6862 13.5756 75.6302 13.6462 75.5856 13.7238C75.451 14.182 75.3403 14.6402 75.1978 15.0829C75.1583 15.2072 75.0158 15.3781 74.9209 15.3781C73.8763 15.4557 72.8477 15.448 71.8585 15.448ZM81.3542 9.65398C81.3542 8.10063 80.5629 7.32396 79.2177 7.50259C78.7732 7.56896 78.355 7.75137 78.007 8.03073C77.5132 8.41906 77.134 8.92976 76.9087 9.51006C76.6833 10.0904 76.6199 10.7192 76.725 11.3316C76.7456 11.7897 76.9488 12.2214 77.2907 12.5338C77.6327 12.8462 78.086 13.0141 78.553 13.0015C79.1999 12.9883 79.8171 12.7327 80.278 12.2869C80.6287 11.9428 80.9032 11.5314 81.0843 11.0783C81.2654 10.6252 81.3492 10.1403 81.3305 9.65398H81.3542Z" fill="white"/>
<path d="M222.84 6.57068C223.053 5.54547 223.275 4.52026 223.489 3.46398C223.702 2.4077 223.853 1.60773 224.066 0.691254C224.066 0.551453 224.264 0.333984 224.375 0.333984C225.419 0.333984 226.464 0.333984 227.5 0.333984C227.548 0.333984 227.588 0.333985 227.667 0.419419C227.5 1.19609 227.326 2.06597 227.152 2.89701C226.329 6.79592 225.509 10.6948 224.691 14.5937C224.517 15.3704 224.533 15.417 223.663 15.417H221.289C221.344 14.8656 221.4 14.3763 221.471 13.7472L220.766 14.4772C219.334 15.9684 216.177 16.2014 214.626 14.3219C214.011 13.6064 213.645 12.7164 213.581 11.7822C213.44 10.1599 213.808 8.53399 214.634 7.12213C215.248 6.10441 216.211 5.33448 217.351 4.95023C218.49 4.56598 219.732 4.59253 220.854 5.0251C221.656 5.3379 222.346 5.87541 222.84 6.57068V6.57068ZM222.001 10.1123C222.001 8.14733 221.17 7.29299 219.793 7.51046C219.246 7.6111 218.741 7.86461 218.337 8.24053C217.874 8.69815 217.549 9.27314 217.4 9.90129C217.25 10.5294 217.282 11.186 217.49 11.7977C217.59 12.1732 217.824 12.5011 218.149 12.722C218.475 12.9428 218.87 13.042 219.263 13.0016C219.859 12.9615 220.42 12.7135 220.846 12.3025C221.483 11.7302 221.893 10.9539 222.001 10.1123V10.1123Z" fill="white"/>
<path d="M112.492 15.4557C112.674 14.6013 112.832 13.8169 113.006 13.0402C113.898 8.96528 114.792 4.89033 115.689 0.815371C115.76 0.481401 115.895 0.333833 116.267 0.341599C117.311 0.341599 118.356 0.341599 119.471 0.341599L117.58 9.25006L117.683 9.29666C117.802 9.16462 117.92 9.04035 118.031 8.90055C118.997 7.70447 119.97 6.5084 120.927 5.30455C121.003 5.19207 121.106 5.10073 121.229 5.03946C121.351 4.97819 121.487 4.9491 121.624 4.95505C122.819 4.95505 123.998 4.95505 125.287 4.95505C125.169 5.11038 125.105 5.21135 125.034 5.29678C123.776 6.73363 122.526 8.17825 121.252 9.59956C121.129 9.69979 121.049 9.84131 121.027 9.99643C121.005 10.1516 121.043 10.3091 121.133 10.4384C121.924 11.9374 122.716 13.4596 123.46 14.9664C123.531 15.0984 123.586 15.2382 123.665 15.4246C122.36 15.4246 121.109 15.4246 119.867 15.4246C119.748 15.4246 119.574 15.2382 119.511 15.0984C118.883 13.6693 118.263 12.2403 117.651 10.8112C117.581 10.625 117.467 10.4575 117.319 10.3219C117.2 10.85 117.074 11.3781 116.963 11.8752C116.733 12.9082 116.504 13.9489 116.29 14.9819C116.287 15.0482 116.269 15.113 116.238 15.1718C116.207 15.2307 116.163 15.2822 116.11 15.3228C116.056 15.3634 115.995 15.3922 115.929 15.4071C115.863 15.422 115.795 15.4227 115.729 15.4091C114.668 15.4402 113.608 15.4557 112.492 15.4557Z" fill="white"/>
<path d="M93.0497 4.73762C93.8312 4.69706 94.6132 4.80862 95.3506 5.06588C96.088 5.32314 96.7663 5.72101 97.3465 6.23659C97.7408 6.60656 98.0544 7.05144 98.268 7.54415C98.4815 8.03686 98.5907 8.56708 98.5888 9.10252C98.602 9.88521 98.5251 10.6668 98.3593 11.4325C98.1719 12.2972 97.7536 13.0973 97.1473 13.751C96.5411 14.4048 95.7687 14.8885 94.9092 15.1528C93.0406 15.8426 90.9872 15.881 89.0932 15.2616C88.276 15.0122 87.5574 14.5208 87.036 13.8547C86.5147 13.1886 86.2161 12.3805 86.1811 11.5413C86.0662 10.7483 86.1174 9.94067 86.3315 9.16777C86.5455 8.39487 86.9181 7.67298 87.4262 7.04627C87.9343 6.41955 88.5674 5.9012 89.2867 5.52294C90.006 5.14467 90.7964 4.91445 91.6095 4.84635C92.0922 4.80752 92.5749 4.80752 93.0497 4.73762ZM91.9972 13.2189C92.4821 13.236 92.9613 13.1125 93.375 12.8639C93.7888 12.6153 94.1187 12.2525 94.3237 11.8209C94.7868 10.9193 94.9606 9.9011 94.8222 8.90059C94.7976 8.42941 94.5841 7.98692 94.2283 7.66971C93.8725 7.35249 93.4033 7.18631 92.9231 7.20744C92.5405 7.1968 92.1607 7.27331 91.8133 7.43098C91.466 7.58864 91.1606 7.82317 90.9211 8.11615C90.5437 8.53755 90.2595 9.03124 90.0865 9.566C89.9135 10.1008 89.8555 10.6649 89.9161 11.2228C89.9104 11.4905 89.9608 11.7564 90.064 12.0042C90.1672 12.252 90.321 12.4763 90.5161 12.6634C90.7111 12.8505 90.9432 12.9963 91.198 13.0919C91.4528 13.1874 91.7248 13.2306 91.9972 13.2189Z" fill="white"/>
<path d="M45.0965 4.80754C46.19 4.74754 47.2806 4.96697 48.2618 5.44442C48.9559 5.76209 49.5484 6.25994 49.9751 6.88415C50.4019 7.50836 50.6467 8.23518 50.6831 8.98605C50.7755 9.96131 50.6624 10.9448 50.3508 11.8753C50.0191 12.8537 49.4107 13.7193 48.5966 14.3712C47.7826 15.023 46.7964 15.4342 45.7533 15.5567C44.2237 15.8869 42.6314 15.801 41.1479 15.3082C40.3252 15.0321 39.6071 14.5176 39.0886 13.8326C38.5701 13.1476 38.2755 12.3242 38.2438 11.4714C38.0894 10.2568 38.3309 9.02536 38.9337 7.95377C39.5364 6.88218 40.4695 6.02548 41.599 5.50655C42.691 5.0022 43.8905 4.76248 45.0965 4.80754V4.80754ZM47.0669 9.59186H46.9403C46.9403 8.31812 46.4576 7.53367 45.4368 7.31621C45.0769 7.23575 44.7028 7.23878 44.3443 7.32506C43.9857 7.41135 43.6527 7.57852 43.3715 7.81328C42.7891 8.32235 42.3645 8.98203 42.1462 9.71685C41.9279 10.4517 41.9247 11.232 42.137 11.9685C42.2342 12.3029 42.4278 12.6025 42.6946 12.8313C42.9614 13.06 43.2899 13.2082 43.6405 13.2578C44.1821 13.3678 44.7457 13.295 45.2399 13.0511C45.734 12.8071 46.1297 12.4065 46.3626 11.9141C46.6536 11.147 46.889 10.3606 47.0669 9.5608V9.59186Z" fill="white"/>
<path d="M106.613 4.8078C107.658 4.77278 108.695 4.99717 109.628 5.4602C110.393 5.83066 111.031 6.41403 111.462 7.13768C111.892 7.86132 112.097 8.69328 112.049 9.52998C112.042 10.2005 111.954 10.8679 111.788 11.5183C111.614 12.3059 111.245 13.0398 110.716 13.6557C110.186 14.2717 109.511 14.7511 108.749 15.0521C106.775 15.9073 104.545 15.9989 102.506 15.3084C101.656 15.0356 100.916 14.5066 100.39 13.7968C99.8644 13.0871 99.5802 12.2326 99.5779 11.3552C99.4909 8.73777 100.48 6.69511 102.933 5.52234C104.084 4.99815 105.346 4.75309 106.613 4.8078V4.8078ZM108.425 9.60765H108.29C108.298 9.47054 108.298 9.33312 108.29 9.19601C108.3 8.91524 108.245 8.6359 108.13 8.37871C108.015 8.12152 107.842 7.89306 107.625 7.71029C107.408 7.52753 107.151 7.39513 106.874 7.32292C106.598 7.25071 106.308 7.24053 106.027 7.29315C105.356 7.37484 104.743 7.70896 104.318 8.22517C103.653 9.00512 103.301 9.99672 103.329 11.0134C103.329 12.2716 104.025 13.1493 105.006 13.2813C105.547 13.3847 106.108 13.3078 106.6 13.0631C107.091 12.8183 107.486 12.4195 107.72 11.9299C108.012 11.1603 108.247 10.3713 108.425 9.56881V9.60765Z" fill="white"/>
<path d="M26.4454 4.99391H29.7373L29.5157 6.71813L29.9588 6.30649C30.4968 5.72331 31.1712 5.27721 31.9238 5.00662C32.6765 4.73602 33.4849 4.64903 34.2794 4.75314C34.9782 4.84973 35.624 5.17276 36.1144 5.67091C36.6047 6.16906 36.9114 6.81376 36.9856 7.50257C37.0818 8.68795 36.9694 9.88073 36.6533 11.0287C36.4001 12.3568 36.1231 13.6849 35.862 15.0052C35.862 15.1528 35.68 15.3936 35.585 15.3936C34.4297 15.3936 33.2823 15.3936 32.0558 15.3936C32.1112 15.0285 32.1587 14.7179 32.214 14.415C32.5464 12.8073 32.8708 11.1995 33.2269 9.59183C33.583 7.98411 32.4356 7.2618 30.9796 7.78217C30.4642 7.98643 30.0139 8.32255 29.6757 8.75556C29.3376 9.18856 29.1238 9.70262 29.0567 10.2442C28.6769 11.7976 28.3604 13.4208 27.9885 15.0052C27.9885 15.1528 27.7748 15.3781 27.6561 15.3781C26.5958 15.3781 25.5354 15.3781 24.4909 15.3781C24.4279 15.3647 24.3668 15.3438 24.3089 15.3159C24.6808 13.5995 25.1002 11.883 25.4326 10.1588C25.7649 8.43458 26.0893 6.76473 26.4454 4.99391Z" fill="white"/>
<path d="M191.947 11.2616C191.86 12.38 192.643 13.1411 193.91 13.3042C195.167 13.4449 196.44 13.2959 197.629 12.8693L198.143 12.7062C198.016 13.4828 197.898 14.1819 197.755 14.8886C197.739 14.9518 197.708 15.0103 197.664 15.0589C197.62 15.1076 197.564 15.1451 197.502 15.1682C195.652 15.7905 193.655 15.8581 191.765 15.3624C190.658 15.0349 189.714 14.3159 189.116 13.3445C188.518 12.3731 188.309 11.2185 188.529 10.1043C188.633 9.11835 188.99 8.17429 189.565 7.35965C190.141 6.54501 190.916 5.88618 191.82 5.44426C193.396 4.69154 195.205 4.55817 196.877 5.07145C199.251 5.75493 199.971 7.81312 199.813 9.78587C199.813 10.1354 199.694 10.4771 199.662 10.8266C199.631 11.1761 199.496 11.2848 199.132 11.2848C196.917 11.2848 194.701 11.2848 192.485 11.2848C192.303 11.2382 192.121 11.2538 191.947 11.2616ZM192.208 9.2422C192.343 9.2422 192.477 9.2422 192.612 9.2422C193.854 9.2422 195.097 9.2422 196.347 9.2422C196.774 9.2422 196.837 9.06356 196.79 8.72183C196.776 8.49143 196.715 8.26618 196.61 8.0599C196.504 7.85362 196.357 7.67068 196.177 7.5223C195.997 7.37392 195.788 7.26323 195.562 7.19705C195.337 7.13086 195.101 7.11056 194.867 7.13741C194.24 7.11473 193.625 7.31523 193.137 7.70199C192.648 8.08874 192.318 8.63572 192.208 9.2422V9.2422Z" fill="white"/>
<path d="M230.476 11.2383C230.458 11.5006 230.494 11.7637 230.583 12.0117C230.671 12.2597 230.811 12.4874 230.992 12.6807C231.174 12.8741 231.393 13.0291 231.638 13.1363C231.883 13.2435 232.147 13.3007 232.415 13.3043C233.674 13.448 234.95 13.3018 236.142 12.8771L236.537 12.7451C236.537 12.7451 236.593 12.7451 236.688 12.7451C236.545 13.5217 236.411 14.2363 236.26 14.9741C236.26 15.044 236.142 15.1217 236.07 15.1372C234.124 15.6498 232.161 15.976 230.183 15.3081C229.216 15.0057 228.38 14.3953 227.807 13.5737C227.233 12.7521 226.956 11.7663 227.018 10.7723C226.987 9.30303 227.517 7.87552 228.504 6.77034C229.491 5.66516 230.863 4.96222 232.351 4.79968C233.542 4.59259 234.769 4.72188 235.888 5.17249C236.601 5.45905 237.211 5.94601 237.641 6.57207C238.072 7.19814 238.305 7.93532 238.31 8.69082C238.303 9.41797 238.253 10.1441 238.159 10.8655C238.159 11.2306 237.914 11.2228 237.645 11.2228H230.476V11.2383ZM230.745 9.24226H235.224C235.296 8.98519 235.306 8.71493 235.252 8.45351C235.198 8.19209 235.081 7.94692 234.913 7.73796C234.744 7.529 234.527 7.36217 234.28 7.25106C234.033 7.13996 233.762 7.08774 233.491 7.09864C232.842 7.05368 232.199 7.24878 231.69 7.64552C231.18 8.04225 230.84 8.61188 230.737 9.24226H230.745Z" fill="white"/>
<path d="M63.9059 11.2696C63.8188 12.3725 64.6102 13.1414 65.8762 13.3045C67.1485 13.4493 68.4375 13.2921 69.635 12.8463L69.991 12.7298C69.991 12.7298 70.0464 12.7298 70.1097 12.7298C69.9831 13.4288 69.8723 14.1278 69.7299 14.8268C69.715 14.8963 69.6836 14.9614 69.6383 15.0167C69.5929 15.0721 69.5348 15.1161 69.4688 15.1452C67.4905 15.6656 65.5122 15.9996 63.5102 15.2695C62.4672 14.9027 61.5903 14.1849 61.0354 13.2435C60.4806 12.3022 60.2836 11.1983 60.4795 10.1279C60.5734 9.15483 60.9117 8.2198 61.4641 7.40654C62.0165 6.59327 62.7657 5.92716 63.6448 5.46785C64.4926 5.03285 65.4251 4.78015 66.3802 4.72659C67.3353 4.67302 68.2911 4.8198 69.1839 5.15718C69.8942 5.38699 70.5162 5.82377 70.9672 6.40931C71.4181 6.99486 71.6766 7.70138 71.7082 8.43475C71.7318 9.23849 71.7 10.0429 71.6132 10.8424C71.6132 11.1609 71.4154 11.2463 71.083 11.2463C68.8278 11.2463 66.5647 11.2463 64.3015 11.2463C64.1693 11.2473 64.0373 11.255 63.9059 11.2696V11.2696ZM64.1749 9.21919C64.2248 9.24287 64.2783 9.2586 64.3332 9.26579H68.448C68.7724 9.26579 68.7803 9.07162 68.7645 8.84638C68.6696 7.61924 67.9732 7.03673 66.5805 7.10663C65.9941 7.13629 65.4356 7.36203 64.998 7.74635C64.5604 8.13067 64.2699 8.65041 64.1749 9.21919V9.21919Z" fill="white"/>
<path d="M52.0284 7.47924C52.1708 6.70256 52.2816 5.92589 52.4319 5.27348C52.4652 5.20078 52.5155 5.13684 52.5788 5.0869C52.6421 5.03695 52.7165 5.00242 52.7959 4.98611C53.2651 4.95893 53.7354 4.95893 54.2045 4.98611C54.5131 4.98611 54.6476 4.88515 54.703 4.59778C54.8138 4.06187 54.9325 3.52596 55.0749 2.99782C55.0749 2.88132 55.2173 2.71045 55.3202 2.68715C56.4993 2.35318 57.6941 2.05028 58.9523 1.71631L58.2401 4.97835H60.7961C60.6536 5.79385 60.527 6.5317 60.3688 7.30837C60.3688 7.38604 60.1234 7.4637 59.9968 7.4637C59.3242 7.4637 58.6516 7.4637 57.979 7.4637C57.899 7.47531 57.8229 7.50528 57.7569 7.55116C57.6909 7.59704 57.6369 7.65755 57.5992 7.72777C57.2827 9.12579 56.9661 10.5238 56.7129 11.9296C56.5151 13.0325 57.2827 13.6616 58.4142 13.3975L59.0868 13.2344C58.9602 13.9489 58.8494 14.6013 58.7149 15.2537C58.7149 15.3469 58.5962 15.4945 58.5171 15.5023C57.4749 15.7127 56.4026 15.7364 55.3519 15.5722C54.9561 15.4962 54.5804 15.3412 54.2481 15.1167C53.9159 14.8923 53.6342 14.6032 53.4205 14.2675C53.2068 13.9318 53.0657 13.5565 53.0059 13.165C52.9461 12.7736 52.9689 12.3742 53.0729 11.9917C53.334 10.6325 53.6268 9.27336 53.9038 7.92194C53.9038 7.78991 53.9513 7.65787 53.9829 7.4637L52.0284 7.47924Z" fill="white"/>
<path d="M134.111 7.65786C133.037 7.21125 131.87 7.02734 130.708 7.12195C130.37 7.14821 130.041 7.24343 129.743 7.40155C129.632 7.45336 129.539 7.53483 129.473 7.63654C129.408 7.73825 129.373 7.85605 129.373 7.9763C129.373 8.09655 129.408 8.21434 129.473 8.31605C129.539 8.41776 129.632 8.49923 129.743 8.55103C130.106 8.75502 130.484 8.93158 130.874 9.07917C131.381 9.28887 131.895 9.45974 132.385 9.68498C134.213 10.4617 134.467 11.914 133.58 13.5684C133.286 14.0808 132.875 14.5198 132.379 14.8512C131.884 15.1825 131.317 15.3974 130.724 15.479C128.721 15.8179 126.667 15.7144 124.71 15.1761C124.661 15.1541 124.616 15.1254 124.575 15.0906C124.797 14.314 125.018 13.5373 125.248 12.7606C125.849 12.9159 126.411 13.0868 126.981 13.1956C127.818 13.3937 128.692 13.3937 129.529 13.1956C129.956 13.0791 130.32 12.8926 130.399 12.4189C130.478 11.9451 130.075 11.6422 129.679 11.5179C129.078 11.2616 128.445 11.0752 127.851 10.8189C127.366 10.6514 126.935 10.3582 126.605 9.9703C126.276 9.58243 126.059 9.1143 125.978 8.6154C125.897 8.11651 125.954 7.60538 126.145 7.13606C126.335 6.66674 126.652 6.25666 127.06 5.94917C127.954 5.29445 129.018 4.90132 130.13 4.81523C131.733 4.6325 133.357 4.81318 134.878 5.34337L134.111 7.65786Z" fill="white"/>
<path d="M155.452 15.4556L155.871 13.4828C156.774 9.24218 157.678 5.00413 158.586 0.768664C158.586 0.613329 158.791 0.372559 158.91 0.372559C160.01 0.372559 161.118 0.372559 162.257 0.372559C162.269 0.506928 162.269 0.642057 162.257 0.776427C161.244 5.53744 160.216 10.2907 159.211 15.0517C159.147 15.3701 159.045 15.4866 158.704 15.4866C157.676 15.44 156.592 15.4556 155.452 15.4556Z" fill="white"/>
<path d="M161.941 15.456C162.154 14.4463 162.344 13.5143 162.542 12.5823C163.381 8.66788 164.214 4.75344 165.043 0.838995C165.114 0.473958 165.248 0.326391 165.644 0.341924C166.673 0.341924 167.701 0.341924 168.809 0.341924C168.643 1.1186 168.493 1.89527 168.327 2.67195C167.464 6.73396 166.594 10.7882 165.747 14.858C165.652 15.3395 165.478 15.5026 164.956 15.4716C164.117 15.425 163.27 15.4716 162.431 15.4716L161.941 15.456Z" fill="white"/>
<path d="M209.435 8.0698C208.795 7.73644 208.062 7.61391 207.346 7.7203C206.819 7.81041 206.331 8.0518 205.944 8.41398C205.556 8.77616 205.287 9.24288 205.17 9.75519C204.83 10.9047 204.608 12.0852 204.379 13.258C204.236 13.8716 204.133 14.4851 203.975 15.0909C203.975 15.223 203.769 15.4327 203.658 15.4327C202.558 15.4327 201.451 15.4327 200.28 15.4327C201.015 11.9299 201.736 8.48921 202.464 4.99417H205.724L205.415 6.92809H205.486L205.684 6.67956C205.93 6.33264 206.195 5.99824 206.475 5.67765C206.92 5.23276 207.482 4.91907 208.099 4.77217C208.716 4.62527 209.362 4.65106 209.965 4.84661C210.029 4.8764 210.084 4.92224 210.124 4.9795C210.165 5.03677 210.189 5.10344 210.195 5.17281C209.957 6.15918 209.704 7.07566 209.435 8.0698Z" fill="white"/>
<path d="M148.971 15.4559C149.193 14.3686 149.399 13.3433 149.62 12.3492C150.111 10.0192 150.601 7.68915 151.108 5.35913C151.108 5.21156 151.298 4.98633 151.401 4.98633C152.532 4.98633 153.672 4.98633 154.867 4.98633C154.669 5.94164 154.479 6.84258 154.289 7.74352C153.774 10.159 153.252 12.5667 152.746 14.9744C152.675 15.3394 152.556 15.4792 152.152 15.4714C151.1 15.4326 150.063 15.4559 148.971 15.4559Z" fill="white"/>
<path d="M174.333 4.97852C174.166 5.75519 174.024 6.53186 173.866 7.2464C173.312 9.83532 172.761 12.4242 172.212 15.0132C172.149 15.3238 172.046 15.4792 171.674 15.4714C170.613 15.4714 169.553 15.4714 168.437 15.4714C168.667 14.3763 168.873 13.3355 169.094 12.3026C169.585 9.97253 170.083 7.69688 170.558 5.39015C170.621 5.08725 170.724 4.97852 171.041 4.98628C172.117 4.98628 173.185 4.97852 174.333 4.97852Z" fill="white"/>
<path d="M207.378 15.4483C207.599 14.4386 207.797 13.5066 208.011 12.5746C208.011 12.4658 208.161 12.3027 208.24 12.3027C209.3 12.3027 210.353 12.3027 211.477 12.3027C211.255 13.3279 211.049 14.291 210.828 15.2541C210.799 15.3084 210.757 15.355 210.706 15.3902C210.655 15.4253 210.597 15.4479 210.535 15.456C209.506 15.456 208.477 15.4483 207.378 15.4483Z" fill="white"/>
<path d="M174.72 3.15341H171.049C171.231 2.37673 171.389 1.60006 171.579 0.823381C171.601 0.766871 171.637 0.716691 171.684 0.677369C171.731 0.638048 171.788 0.610822 171.848 0.598145C172.972 0.598145 174.095 0.598145 175.282 0.598145C175.084 1.46802 174.91 2.30683 174.72 3.15341Z" fill="white"/>
<path d="M155.808 0.582288C155.634 1.35896 155.484 2.13564 155.302 2.91231C155.283 2.97775 155.249 3.03794 155.203 3.08792C155.156 3.13789 155.098 3.17621 155.033 3.19968C154.02 3.19968 153.007 3.19968 151.986 3.19968H151.575C151.757 2.42301 151.915 1.64633 152.105 0.86966C152.127 0.81315 152.163 0.762969 152.21 0.723648C152.257 0.684327 152.314 0.6571 152.374 0.644423C153.498 0.574523 154.613 0.582288 155.808 0.582288Z" fill="white"/>
</g>
<defs>
<clipPath id="clip0_12359_544">
<rect width="238.547" height="20.046" fill="white"/>
</clipPath>
</defs>
</svg>
