<svg width="64" height="64" viewBox="0 0 64 64" fill="none" xmlns="http://www.w3.org/2000/svg">
<g clip-path="url(#clip0_12404_707)">
<path d="M60.799 42.0181V36.9234C60.799 36.0401 60.0827 35.3237 59.1989 35.3237H51.1994V28.9238H59.1989C60.0827 28.9238 60.799 28.2075 60.799 27.3237V22.2295C63.298 21.3457 64.6076 18.6035 63.7243 16.104C62.8405 13.6049 60.0983 12.2954 57.5988 13.1787C55.0998 14.0625 53.7902 16.8047 54.6735 19.3042C55.1569 20.6709 56.2321 21.7461 57.5988 22.2295V25.7241H51.1994V20.9243C51.1994 20.0405 50.4831 19.3242 49.5993 19.3242H44.7995V12.9243C44.7995 5.85541 39.069 0.124924 32.0001 0.124924C24.9308 0.124924 19.2003 5.85541 19.2003 12.9243V19.3242H14.401C13.5172 19.3242 12.8009 20.0405 12.8009 20.9238V25.7236H6.40093V22.2295C8.90045 21.3457 10.21 18.603 9.32623 16.104C8.44293 13.6049 5.70025 12.2949 3.20122 13.1787C0.702187 14.062 -0.607875 16.8047 0.275917 19.3037C0.759316 20.6709 1.83451 21.7461 3.20122 22.2295V27.3237C3.20122 28.2075 3.91753 28.9238 4.80132 28.9238H12.8009V35.3233H4.80132C3.91753 35.3233 3.20122 36.0396 3.20122 36.9234V42.0176C0.701699 42.9014 -0.607875 45.6436 0.275917 48.1431C1.15922 50.6421 3.9019 51.9517 6.40093 51.0684C8.90045 50.1846 10.21 47.4424 9.32672 44.9429C8.84332 43.5762 7.76812 42.501 6.40093 42.0176V38.523H12.8009V46.523C12.8009 47.4063 13.5172 48.1226 14.401 48.1226H25.6002V57.7222H22.1056C21.2223 55.2232 18.4796 53.9132 15.9805 54.7969C13.481 55.6807 12.1715 58.4229 13.0552 60.9224C13.9385 63.4215 16.6812 64.731 19.1803 63.8477C20.5475 63.3643 21.6222 62.2892 22.1056 60.9224H27.2003C28.0836 60.9224 28.7999 60.2061 28.7999 59.3223V48.1231H35.1998V59.3223C35.1998 60.2061 35.9161 60.9224 36.7994 60.9224H41.8942C42.7775 63.4215 45.5202 64.731 48.0192 63.8477C50.5187 62.964 51.8283 60.2218 50.9445 57.7222C50.0612 55.2232 47.3185 53.9132 44.8195 54.7969C43.4523 55.2803 42.3776 56.3555 41.8942 57.7222H38.3995V48.1226H49.5988C50.4826 48.1226 51.1989 47.4063 51.1989 46.523V38.523H57.5988V42.0176C55.0993 42.9014 53.7897 45.6436 54.673 48.1431C55.5568 50.6421 58.2995 51.9517 60.7985 51.0684C63.298 50.1846 64.6076 47.4424 63.7238 44.9429C63.2409 43.5762 62.1657 42.501 60.799 42.0181ZM59.1989 16.124C60.0827 16.124 60.799 16.8403 60.799 17.7241C60.799 18.6079 60.0827 19.3242 59.1989 19.3242C58.3156 19.3242 57.5993 18.6079 57.5993 17.7241C57.6003 16.8408 58.3161 16.1255 59.1989 16.124ZM4.80132 16.124C5.68462 16.124 6.40093 16.8403 6.40093 17.7241C6.40093 18.6079 5.68462 19.3242 4.80132 19.3242C3.91753 19.3242 3.20122 18.6079 3.20122 17.7241C3.2017 16.8408 3.91753 16.1245 4.80132 16.124ZM4.80132 48.1231C3.91753 48.1231 3.20122 47.4068 3.20122 46.523C3.20122 45.6397 3.91753 44.9234 4.80132 44.9234C5.68462 44.9234 6.40093 45.6397 6.40093 46.523C6.40044 47.4063 5.68462 48.1226 4.80132 48.1231ZM17.6007 60.9224C16.7169 60.9224 16.0006 60.2061 16.0006 59.3223C16.0006 58.439 16.7169 57.7227 17.6007 57.7227C18.4845 57.7227 19.2008 58.439 19.2008 59.3223C19.2003 60.2061 18.484 60.922 17.6007 60.9224ZM46.3996 57.7227C47.2829 57.7227 47.9992 58.439 47.9992 59.3223C47.9992 60.2061 47.2829 60.9224 46.3996 60.9224C45.5158 60.9224 44.7995 60.2061 44.7995 59.3223C44.8004 58.4395 45.5163 57.7237 46.3996 57.7227ZM22.4005 12.9243C22.4005 7.6225 26.6983 3.32464 32.0001 3.32464C37.3019 3.32464 41.5998 7.6225 41.5998 12.9243V19.3242H22.4005V12.9243ZM47.9997 44.9229H16.0006V22.5239H47.9992V44.9229H47.9997ZM59.1989 48.1231C58.3156 48.1231 57.5993 47.4068 57.5993 46.523C57.5993 45.6397 58.3156 44.9234 59.1989 44.9234C60.0827 44.9234 60.799 45.6397 60.799 46.523C60.7976 47.4063 60.0822 48.1221 59.1989 48.1231Z" fill="#F57A17"/>
<path d="M32.0001 28.9238C31.1163 28.9238 30.4 29.6401 30.4 30.5234V36.9233C30.4 37.8071 31.1163 38.5235 32.0001 38.5235C32.8834 38.5235 33.5997 37.8071 33.5997 36.9233V30.5234C33.6002 29.6401 32.8839 28.9238 32.0001 28.9238Z" fill="#F57A17"/>
</g>
<defs>
<clipPath id="clip0_12404_707">
<rect width="64" height="64" fill="white"/>
</clipPath>
</defs>
</svg>
