<svg width="64" height="64" viewBox="0 0 64 64" fill="none" xmlns="http://www.w3.org/2000/svg">
<path fill-rule="evenodd" clip-rule="evenodd" d="M49.0588 28.986H56.5216C57.3461 28.986 58.0143 28.3178 58.0143 27.4933V22.7407C60.3456 21.9162 61.5673 19.358 60.7433 17.0262C59.9188 14.6948 57.3606 13.473 55.0289 14.2971C52.6975 15.1216 51.4758 17.6798 52.2998 20.0117C52.7508 21.2867 53.7539 22.2898 55.0289 22.7407V26.001H49.0588V28.986ZM56.5795 19.9396C57.4353 19.9396 58.1291 19.2458 58.1291 18.39C58.1291 17.5343 57.4353 16.8405 56.5795 16.8405C55.7238 16.8405 55.03 17.5343 55.03 18.39C55.03 19.2458 55.7238 19.9396 56.5795 19.9396Z" fill="#F57A17"/>
<path fill-rule="evenodd" clip-rule="evenodd" d="M35.0038 50.716L35.0038 58.1788C35.0038 59.0033 35.6721 59.6715 36.4966 59.6715L41.2491 59.6715C42.0736 62.0029 44.6319 63.2246 46.9637 62.4005C49.2951 61.576 50.5168 59.0179 49.6928 56.6861C48.8683 54.3547 46.31 53.133 43.9782 53.9571C42.7031 54.408 41.7001 55.4111 41.2491 56.6861L37.9889 56.6861L37.9889 50.716L35.0038 50.716ZM44.0507 58.2369C44.0507 59.0926 44.7445 59.7864 45.6003 59.7864C46.456 59.7864 47.1498 59.0926 47.1498 58.2369C47.1498 57.3811 46.456 56.6873 45.6003 56.6873C44.7445 56.6873 44.0507 57.3811 44.0507 58.2369Z" fill="#F57A17"/>
<path fill-rule="evenodd" clip-rule="evenodd" d="M14.9414 28.986H7.47866C6.65418 28.986 5.98594 28.3178 5.98594 27.4933V22.7407C3.6546 21.9162 2.4329 19.358 3.25693 17.0262C4.08142 14.6948 6.6396 13.473 8.9714 14.2971C11.3027 15.1216 12.5244 17.6798 11.7004 20.0117C11.2494 21.2867 10.2464 22.2898 8.9714 22.7407V26.001H14.9414V28.986ZM7.42069 19.9394C6.56491 19.9394 5.87117 19.2457 5.87117 18.3899C5.87117 17.5341 6.56491 16.8404 7.42069 16.8404C8.27647 16.8404 8.97021 17.5341 8.97021 18.3899C8.97021 19.2457 8.27647 19.9394 7.42069 19.9394Z" fill="#F57A17"/>
<path fill-rule="evenodd" clip-rule="evenodd" d="M45.6477 37.5153H56.5222C57.3467 37.5153 58.0149 38.1835 58.0149 39.008V43.7605C60.3463 44.5851 61.568 47.1433 60.7439 49.4751C59.9194 51.8065 57.3612 53.0283 55.0295 52.2042C52.6981 51.3797 51.4764 48.8215 52.3005 46.4896C52.7514 45.2146 53.7545 44.2115 55.0295 43.7605V40.5003H45.6477V37.5153ZM56.5801 46.5618C57.4359 46.5618 58.1296 47.2556 58.1296 48.1114C58.1296 48.9671 57.4359 49.6609 56.5801 49.6609C55.7243 49.6609 55.0306 48.9671 55.0306 48.1114C55.0306 47.2556 55.7243 46.5618 56.5801 46.5618Z" fill="#F57A17"/>
<path fill-rule="evenodd" clip-rule="evenodd" d="M26.4767 49.8633L26.4767 58.179C26.4767 59.0035 25.8084 59.6717 24.9839 59.6717L20.2314 59.6717C19.4069 62.0031 16.8486 63.2248 14.5168 62.4007C12.1854 61.5762 10.9636 59.0181 11.7877 56.6863C12.6122 54.3549 15.1704 53.1332 17.5023 53.9573C18.7773 54.4082 19.7804 55.4113 20.2314 56.6863L23.4916 56.6863L23.4916 49.8633L26.4767 49.8633ZM17.4297 58.2371C17.4297 59.0928 16.736 59.7866 15.8802 59.7866C15.0244 59.7866 14.3307 59.0928 14.3307 58.2371C14.3307 57.3813 15.0244 56.6875 15.8802 56.6875C16.736 56.6875 17.4297 57.3813 17.4297 58.2371Z" fill="#F57A17"/>
<path fill-rule="evenodd" clip-rule="evenodd" d="M18.3523 37.5155H7.47781C6.65333 37.5155 5.98509 38.1837 5.98509 39.0082V43.7608C3.65375 44.5853 2.43205 47.1435 3.25608 49.4754C4.08057 51.8068 6.63875 53.0285 8.97055 52.2044C11.3019 51.3799 12.5236 48.8217 11.6995 46.4898C11.2486 45.2148 10.2455 44.2117 8.97055 43.7608V40.5005H18.3523V37.5155ZM7.41988 46.5621C6.5641 46.5621 5.87036 47.2558 5.87036 48.1116C5.87036 48.9674 6.5641 49.6611 7.41988 49.6611C8.27565 49.6611 8.9694 48.9674 8.9694 48.1116C8.9694 47.2558 8.27565 46.5621 7.41988 46.5621Z" fill="#F57A17"/>
<path d="M50.5125 18.2295C49.4825 7.89157 40.2625 0.354783 29.9245 1.38481C21.0186 2.27666 13.9717 9.32356 13.0798 18.2295L12.8286 20.7418L13.2683 23.3169L17.4637 46.7311C17.7275 48.251 18.7575 49.5197 20.1895 50.0976C27.6258 53.1374 35.954 53.1374 43.3903 50.0976C44.8223 49.5197 45.8523 48.251 46.1161 46.7186L50.3115 23.3169L50.7638 20.7543L50.5125 18.2295ZM20.8553 8.01718C27.5253 1.97519 37.8256 2.47764 43.8676 9.1477C46.003 11.4967 47.3973 14.4234 47.8872 17.5638C44.2193 15.4912 37.7126 14.5114 31.7836 14.5114C25.8547 14.5114 19.3605 15.4786 15.68 17.5638C16.2704 13.8833 18.0918 10.5169 20.8553 8.01718ZM43.6541 46.2915C43.541 46.9698 43.0762 47.5225 42.4482 47.7863C35.6274 50.5749 27.9775 50.5749 21.1442 47.7863C20.5161 47.535 20.0639 46.9698 19.9383 46.304L16.2578 25.6784C20.0388 27.5626 26.2441 28.4293 31.7962 28.4293C37.3483 28.4293 43.5661 27.5626 47.3345 25.6784L43.6541 46.2915ZM48.2264 21.8472C48.1384 21.9351 48.0756 22.0356 48.0254 22.1486C46.4929 23.9952 40.3881 25.9296 31.7962 25.9296C23.2043 25.9296 17.0995 23.9952 15.567 22.1486C15.5167 22.0356 15.4414 21.9351 15.366 21.8472C15.3158 21.7718 15.2906 21.6839 15.2781 21.5834L15.3158 21.2191C15.9313 19.4731 22.0486 17.0111 31.8087 17.0111C41.5438 17.0111 47.6611 19.4605 48.2892 21.2066L48.3269 21.5834C48.3017 21.6839 48.2766 21.7718 48.2264 21.8472Z" fill="#F57A17"/>
</svg>
