<svg width="64" height="64" viewBox="0 0 64 64" fill="none" xmlns="http://www.w3.org/2000/svg">
<g clip-path="url(#clip0_12404_708)">
<path d="M13.7277 26.353C10.614 26.353 8.08069 28.8861 8.08069 32C8.3909 39.4916 19.0657 39.4894 19.3748 32C19.3748 28.8861 16.8415 26.353 13.7277 26.353ZM13.7277 33.8824C12.6898 33.8824 11.8454 33.0381 11.8454 32C11.9488 29.5028 15.5071 29.5035 15.6101 32C15.6101 33.0379 14.7657 33.8824 13.7277 33.8824Z" fill="#F57A17"/>
<path d="M57.0219 48.9412C56.0103 48.9412 55.0609 49.2098 54.2389 49.6774L49.4924 46.1176V38.8103L51.8191 37.6471H57.8015L63.4486 32L57.8015 26.3529H49.4924V17.8823L54.2389 14.3226C57.9162 16.4695 62.7111 13.6935 62.6688 9.41176C62.6688 6.29798 60.1356 3.76483 57.0217 3.76483C53.1116 3.70447 50.2814 7.8671 51.7653 11.4718L45.7277 16V26.3529H41.963V10.9704C47.8583 8.7887 46.4455 0.120094 40.0807 0C33.7149 0.120596 32.304 8.78983 38.1984 10.9704V26.3529H34.4337V16L28.3959 11.4717C29.8793 7.86698 27.0502 3.70409 23.1395 3.76471C20.0258 3.76471 17.4926 6.29785 17.4926 9.41176C17.4508 13.6932 22.2453 16.4698 25.9225 14.3226L30.669 17.8823V26.3529H25.6351C19.4946 13.7964 0.735737 17.9612 0.551392 32.0001C0.73649 46.0405 19.497 50.2023 25.6351 37.6471H30.6689V46.1176L25.9224 49.6774C22.2451 47.5305 17.4502 50.3065 17.4924 54.5882C17.4924 57.702 20.0257 60.2352 23.1395 60.2352C27.0497 60.2955 29.8798 56.1329 28.3959 52.5282L34.4336 47.9999V37.6471H35.8716L38.1983 38.8105V53.0298C32.3032 55.2113 33.7159 63.88 40.0808 64.0001C46.4465 63.8795 47.8574 55.2102 41.963 53.0298V38.8103L43.8454 37.8692L45.7277 38.8103V48L51.7654 52.5283C50.2822 56.1333 53.1112 60.2958 57.0219 60.2353C64.5131 59.9254 64.5117 49.2503 57.0219 48.9412ZM57.0219 7.52941C58.0598 7.52941 58.9042 8.37371 58.9042 9.41176C58.8009 11.909 55.2424 11.9083 55.1395 9.41176C55.1395 8.37371 55.9839 7.52941 57.0219 7.52941ZM40.0807 3.76471C41.1186 3.76471 41.963 4.60913 41.963 5.64706C41.8597 8.14431 38.3012 8.14356 38.1983 5.64706C38.1983 4.609 39.0427 3.76471 40.0807 3.76471ZM21.2571 9.41176C21.2571 8.37383 22.1016 7.52941 23.1395 7.52941C25.6368 7.63281 25.636 11.1911 23.1395 11.2941C22.1016 11.2941 21.2571 10.4497 21.2571 9.41176ZM23.1395 56.4706C22.1016 56.4706 21.2571 55.6263 21.2571 54.5882C21.3606 52.091 24.9188 52.0917 25.0219 54.5882C25.0219 55.6262 24.1774 56.4706 23.1395 56.4706ZM40.0807 60.2353C39.0426 60.2353 38.1983 59.391 38.1983 58.3529C38.3016 55.8557 41.8601 55.8564 41.963 58.3529C41.963 59.3909 41.1187 60.2353 40.0807 60.2353ZM40.0807 35.5425L36.7603 33.8823H23.0473L22.6037 35.1374C18.9232 45.0128 4.49705 42.5505 4.3161 31.9999C4.49781 21.448 18.9249 18.9885 22.6037 28.8626L23.0473 30.1176H56.2423L58.1247 32L56.2423 33.8823H50.9306L47.6102 35.5426L43.8455 33.6602L40.0807 35.5425ZM57.0219 56.4706C55.9838 56.4706 55.1395 55.6263 55.1395 54.5882C55.2428 52.091 58.8013 52.0917 58.9042 54.5882C58.9042 55.6262 58.0599 56.4706 57.0219 56.4706Z" fill="#F57A17"/>
</g>
<defs>
<clipPath id="clip0_12404_708">
<rect width="64" height="64" fill="white"/>
</clipPath>
</defs>
</svg>
