<svg width="77" height="39" viewBox="0 0 77 39" fill="none" xmlns="http://www.w3.org/2000/svg">
<path d="M71.8671 32.2519L69.9325 27.6641H66.8821L70.4211 34.7555V38.6617H73.3098V34.7653L76.8422 27.674H73.7918L71.8671 32.2519ZM65.7893 38.6715V27.674H62.9568V34.0542L59.2692 27.6641H56.43V38.6617H59.2692V32.2748L62.9667 38.6715H65.7893ZM48.8633 34.5687L49.9363 31.0951L51.0158 34.5687H48.8633ZM52.2868 38.6715H55.3472L51.2832 27.674H48.5893L44.5485 38.6715H47.5989L48.1634 36.8495H51.7256L52.2868 38.6715ZM40.7321 32.8155H39.1012V29.9547H40.7321C40.938 29.9402 41.1445 29.9728 41.3357 30.0501C41.5269 30.1273 41.6976 30.2472 41.8347 30.4004C42.0901 30.7189 42.2224 31.1176 42.2078 31.5244C42.2162 31.6979 42.1879 31.8711 42.1248 32.0331C42.0617 32.1951 41.9651 32.3422 41.8413 32.4649C41.5323 32.7218 41.1339 32.8477 40.7321 32.8155ZM40.7321 27.674H36.2654V38.6715H39.1012V35.1061H40.7321C41.5265 35.125 42.3153 34.9707 43.043 34.6539C43.6609 34.3822 44.1877 33.9411 44.5617 33.3824C44.9199 32.824 45.1047 32.1733 45.0932 31.5113C45.1023 30.8198 44.9183 30.1392 44.5617 29.5451C44.1973 28.9538 43.6688 28.4794 43.0397 28.1786C42.32 27.8338 41.5278 27.6642 40.7288 27.6838L40.7321 27.674ZM33.928 27.6838H30.1876L27.8766 34.9783L25.5657 27.6838H21.8385V38.6813H24.6842V36.6037L24.4036 31.0132L26.9523 38.6813H28.8076L31.3596 31.0132L31.0856 36.6037V38.6813H33.9313L33.928 27.6838ZM17.4213 32.9695V33.3857C17.4684 34.1939 17.289 34.9992 16.903 35.7124C16.7547 35.9689 16.5392 36.1808 16.2794 36.3257C16.0196 36.4705 15.7251 36.5428 15.4273 36.5349C15.1249 36.5498 14.8242 36.4819 14.5581 36.3385C14.292 36.1952 14.0708 35.982 13.9185 35.7222C13.5387 35.0036 13.3629 34.1959 13.4101 33.3857V32.9695C13.4101 30.8832 14.0781 29.8389 15.4141 29.8368C15.7116 29.8251 16.0068 29.8936 16.2683 30.0349C16.5299 30.1763 16.748 30.3852 16.8997 30.6396C17.2496 31.177 17.4213 31.9504 17.4213 32.9695ZM20.3199 33.3857V32.9859C20.3438 31.9868 20.1288 30.9963 19.6926 30.0956C19.3059 29.3102 18.7011 28.6507 17.9495 28.195C17.173 27.7609 16.2969 27.5328 15.4058 27.5328C14.5147 27.5328 13.6386 27.7609 12.8621 28.195C12.1131 28.65 11.5124 29.3099 11.1322 30.0956C10.7013 30.9979 10.4888 31.9877 10.5115 32.9859V33.3857C10.4892 34.384 10.7017 35.3736 11.1322 36.276C11.5153 37.0607 12.1227 37.716 12.8786 38.1603C13.6544 38.6085 14.5398 38.8353 15.4372 38.8157C16.327 38.8336 17.2046 38.6068 17.9726 38.1603C18.723 37.7089 19.3251 37.0509 19.7058 36.2662C20.139 35.3646 20.3527 34.3745 20.3298 33.3759L20.3199 33.3857ZM9.57727 34.88H6.74801C6.76606 35.1068 6.73306 35.3347 6.65141 35.5472C6.56976 35.7598 6.44149 35.9516 6.27592 36.1089C5.88934 36.3912 5.41438 36.5282 4.93557 36.4956C4.54832 36.5178 4.1635 36.4217 3.83292 36.2203C3.53544 35.9841 3.33192 35.6509 3.25849 35.2798C3.12172 34.6646 3.06184 34.0351 3.08021 33.4054V32.9302C3.0627 32.3116 3.12821 31.6933 3.27499 31.0918C3.35683 30.7142 3.56089 30.3736 3.85603 30.1219C4.15444 29.9158 4.51303 29.8133 4.87615 29.8302C5.54962 29.8302 6.03162 29.9678 6.32214 30.2431C6.4812 30.4206 6.6024 30.6283 6.67843 30.8536C6.75446 31.0789 6.78374 31.3171 6.76452 31.5539H9.59377C9.53995 30.8143 9.30784 30.0984 8.917 29.4665C8.53221 28.851 7.97924 28.3567 7.32244 28.041C6.5608 27.6734 5.72295 27.4882 4.87615 27.5003C4.00908 27.4814 3.15463 27.7088 2.41334 28.1557C1.68924 28.6099 1.11532 29.2651 0.762666 30.0399C0.357093 30.9492 0.158696 31.9361 0.181629 32.9302V33.3988C0.158121 34.3928 0.348322 35.3804 0.739556 36.2957C1.07843 37.0698 1.64744 37.7226 2.37042 38.1668C3.14491 38.6181 4.0312 38.8451 4.92897 38.8222C5.75241 38.8385 6.56909 38.6717 7.31914 38.334C7.98083 38.0352 8.5431 37.5555 8.94011 36.9511C9.34133 36.3325 9.56189 35.6156 9.57727 34.88Z" fill="white"/>
<path d="M33.5979 22.2015C33.3292 22.1959 33.0634 22.2579 32.8253 22.3817C32.6054 22.4987 32.422 22.6732 32.2951 22.8864C32.1682 23.0996 32.1027 23.3433 32.1057 23.591C32.1007 23.8432 32.167 24.0919 32.2971 24.3086C32.423 24.5211 32.6059 24.6947 32.8253 24.81C33.0641 24.9327 33.329 24.9967 33.5979 24.9967C33.8667 24.9967 34.1316 24.9327 34.3704 24.81C34.5898 24.6947 34.7727 24.5211 34.8986 24.3086C35.0273 24.0913 35.0935 23.843 35.0901 23.591C35.0925 23.3421 35.0263 23.0973 34.8986 22.8831C34.7727 22.6707 34.5898 22.4971 34.3704 22.3817C34.1323 22.2579 33.8666 22.1959 33.5979 22.2015V22.2015ZM26.358 22.6406H24.7073V20.373H26.4835C27.344 20.373 27.7743 20.776 27.7743 21.5822C27.7783 21.7251 27.7508 21.8672 27.6938 21.9985C27.6368 22.1298 27.5516 22.2472 27.4441 22.3424C27.135 22.5656 26.7555 22.6714 26.3745 22.6406H26.358ZM25.8859 16.1981C26.3228 16.163 26.7602 16.2601 27.1404 16.4766C27.2769 16.5863 27.3839 16.7277 27.4519 16.8884C27.5199 17.0491 27.5467 17.224 27.53 17.3975C27.5433 17.5562 27.5161 17.7156 27.4509 17.8611C27.3857 18.0066 27.2846 18.1334 27.1569 18.2298C26.7584 18.4342 26.3098 18.5228 25.8628 18.4854H24.6974V16.1915L25.8859 16.1981ZM28.8571 19.3473C29.3418 19.1838 29.7516 18.8537 30.0126 18.4166C30.2598 17.9786 30.3852 17.4832 30.3757 16.9813C30.4 16.5305 30.3045 16.0813 30.0989 15.6788C29.8932 15.2762 29.5845 14.9343 29.2038 14.6874C28.4202 14.1696 27.3198 13.9108 25.9024 13.9108H21.8616V24.9116H26.358C29.184 24.9116 30.5969 23.8192 30.5969 21.6346C30.6038 21.1285 30.4577 20.632 30.1777 20.2091C29.8671 19.7623 29.3935 19.4532 28.8571 19.3473V19.3473ZM17.3486 19.2031V19.6356C17.3937 20.4437 17.2144 21.2485 16.8303 21.9623C16.6704 22.2092 16.4505 22.4123 16.191 22.5529C15.9314 22.6936 15.6404 22.7673 15.3447 22.7673C15.049 22.7673 14.758 22.6936 14.4984 22.5529C14.2389 22.4123 14.019 22.2092 13.8591 21.9623C13.5092 21.4183 13.3342 20.6428 13.3342 19.6356V19.2031C13.3342 17.1124 14.0011 16.067 15.3348 16.067C15.6356 16.0542 15.9343 16.1224 16.1993 16.2643C16.4643 16.4062 16.6858 16.6166 16.8402 16.8732C17.188 17.4106 17.3618 18.1872 17.3618 19.2031H17.3486ZM20.2439 19.6356V19.2195C20.2662 18.2205 20.0513 17.2304 19.6167 16.3292C19.2315 15.5427 18.6263 14.8828 17.8735 14.4285C17.0977 13.9926 16.2214 13.7634 15.3299 13.7634C14.4383 13.7634 13.562 13.9926 12.7862 14.4285C12.0364 14.8826 11.4355 15.5429 11.0563 16.3292C10.6239 17.231 10.4113 18.2211 10.4356 19.2195V19.6356C10.4115 20.633 10.6241 21.6219 11.0563 22.5227C11.4339 23.3103 12.0366 23.9701 12.7895 24.42C13.567 24.8668 14.4531 25.0934 15.3513 25.0754C16.24 25.0919 17.116 24.8651 17.8834 24.42C18.6364 23.9693 19.24 23.3097 19.62 22.5227C20.0532 21.6222 20.2669 20.6332 20.2439 19.6356ZM4.99168 22.657H3.34101V20.373H5.11383C5.97438 20.373 6.40576 20.776 6.40796 21.5822C6.41194 21.7251 6.38446 21.8672 6.32745 21.9985C6.27043 22.1298 6.18524 22.2472 6.07783 22.3424C5.76997 22.5657 5.39147 22.6715 5.01149 22.6406L4.99168 22.657ZM4.51959 16.1981C4.95651 16.163 5.39389 16.2601 5.7741 16.4766C5.91014 16.5866 6.01683 16.7282 6.08477 16.8887C6.1527 17.0493 6.1798 17.224 6.16366 17.3975C6.17699 17.5562 6.14979 17.7156 6.08459 17.8611C6.01938 18.0066 5.91827 18.1334 5.79061 18.2298C5.39188 18.4337 4.94346 18.5223 4.49648 18.4854H3.3311V16.1915L4.51959 16.1981ZM7.4908 19.3473C7.97546 19.1838 8.38527 18.8537 8.64627 18.4166C8.88976 17.9774 9.01271 17.4825 9.00282 16.9813C9.02812 16.5304 8.93308 16.0808 8.72729 15.6781C8.52151 15.2753 8.21228 14.9336 7.83084 14.6874C7.05172 14.1696 5.94577 13.9108 4.52949 13.9108H0.491943V24.9116H4.99168C7.81764 24.9116 9.23061 23.8192 9.23061 21.6346C9.23586 21.1287 9.08995 20.6327 8.81134 20.2091C8.50005 19.7631 8.02672 19.4542 7.4908 19.3473" fill="white"/>
<path d="M49.7514 9.12309C49.5669 9.12381 49.3856 9.07513 49.2265 8.98219C49.0565 8.88766 48.9151 8.7496 48.8172 8.58239C48.712 8.40002 48.6584 8.19283 48.662 7.98271C48.6572 7.78964 48.6839 7.59708 48.7412 7.41251C48.7982 7.25033 48.8819 7.09863 48.9888 6.96357L49.035 6.93408L50.8244 8.90026C50.4835 9.03765 50.1193 9.10885 49.7514 9.10999V9.12309ZM49.2496 3.02137C49.2408 2.80192 49.319 2.58779 49.4675 2.42496C49.5504 2.34339 49.6497 2.28018 49.759 2.23951C49.8682 2.19884 49.9849 2.18163 50.1014 2.18901C50.207 2.18491 50.3122 2.20425 50.4092 2.24564C50.5063 2.28702 50.5929 2.34941 50.6626 2.42824C50.8003 2.57384 50.877 2.76597 50.8772 2.96566C50.8759 3.12904 50.8351 3.28973 50.7584 3.43427C50.6286 3.64116 50.4465 3.81066 50.2301 3.92581L49.7812 4.21419C49.624 4.01813 49.4899 3.80483 49.3817 3.57845C49.2966 3.40129 49.2515 3.2078 49.2496 3.01154V3.02137ZM55.8754 11.145L54.1719 9.22796C54.8652 8.31696 55.213 7.08263 55.2152 5.52498H52.9471C52.9502 6.16318 52.7949 6.79232 52.4949 7.3568L50.9366 5.60362L51.5606 5.16451C51.9869 4.87731 52.3488 4.50581 52.6236 4.07328C52.8858 3.67224 53.0257 3.20453 53.0264 2.72644C53.0323 2.24422 52.905 1.76961 52.6582 1.35421C52.4114 0.938808 52.0546 0.598505 51.6266 0.370294C51.1584 0.116598 50.6314 -0.0110617 50.0981 -3.39095e-06C49.5173 -0.0123699 48.943 0.124201 48.4309 0.39651C47.9608 0.647097 47.5725 1.02567 47.3117 1.48774C47.0853 1.89907 46.9531 2.35494 46.9245 2.82283C46.896 3.29071 46.9718 3.75909 47.1467 4.19452C47.3309 4.63197 47.5623 5.04838 47.8367 5.4365L47.7607 5.48238C47.4053 5.73054 47.0687 6.00436 46.7538 6.30162C46.5004 6.5472 46.2916 6.83432 46.1365 7.15036C45.9834 7.48225 45.9067 7.84383 45.912 8.20882C45.902 8.77706 46.0555 9.33635 46.3544 9.82109C46.6592 10.3022 47.0985 10.6848 47.6188 10.9222C48.2221 11.1961 48.8802 11.3306 49.5435 11.3154C50.0461 11.3207 50.5474 11.2634 51.0357 11.145C51.4966 11.0223 51.9402 10.8429 52.3562 10.6108L52.8448 11.1548L55.8754 11.145ZM43.8156 2.42824V0.134353H36.0707V11.1548H43.7859V8.8806H38.9065V6.61621H43.0233V4.42391H38.9065V2.43807L43.8156 2.42824ZM34.5421 7.3437H31.7195C31.738 7.571 31.7053 7.79954 31.6236 8.01269C31.5419 8.22583 31.4134 8.41822 31.2474 8.57584C30.8653 8.8518 30.3985 8.98734 29.9268 8.95925C29.5396 8.9819 29.1546 8.8858 28.8242 8.68398C28.5268 8.44716 28.3224 8.11438 28.2465 7.74349C28.1099 7.1294 28.05 6.50095 28.0682 5.87234V5.41356C28.0511 4.79492 28.1166 4.17675 28.263 3.57518C28.343 3.19319 28.5472 2.84784 28.844 2.59208C29.1424 2.38602 29.501 2.2835 29.8641 2.30043C30.5398 2.30043 31.0218 2.43807 31.3101 2.71333C31.4693 2.89076 31.5906 3.09841 31.6667 3.32371C31.7427 3.54902 31.7719 3.78729 31.7525 4.02412H34.5817C34.533 3.28283 34.3066 2.56381 33.9215 1.92686C33.5341 1.31357 32.9818 0.819863 32.3269 0.501373C31.5585 0.142801 30.7162 -0.0322715 29.8674 -0.00983517C29.0014 -0.0287882 28.148 0.198627 27.4079 0.64556C26.6829 1.09877 26.1087 1.75422 25.7572 2.52982C25.3491 3.43836 25.1495 4.4256 25.1729 5.42011V5.88217C25.1491 6.87651 25.3405 7.86435 25.7341 8.77901C26.0718 9.55199 26.6398 10.2038 27.3617 10.6469C28.1374 11.0981 29.0247 11.3251 29.9235 11.3023C30.7467 11.3193 31.5633 11.1536 32.3137 10.8173C32.9725 10.5154 33.5329 10.0364 33.9314 9.43441C34.3308 8.81453 34.547 8.09585 34.5553 7.36008L34.5421 7.3437ZM23.443 0.157291H20.6137V11.1548H23.443V0.157291ZM14.7175 8.8806V0.157291H11.8883V11.1548H19.2833V8.8806H14.7175ZM4.31498 7.05532L5.38792 3.57845L6.47076 7.05532H4.31498ZM7.74178 11.1548H10.7988L6.73487 0.157291H4.04097L0.00341797 11.1548H3.05717L3.6184 9.3361H7.17725L7.74178 11.1548Z" fill="white"/>
</svg>
