<svg width="107" height="69" viewBox="0 0 107 69" fill="none" xmlns="http://www.w3.org/2000/svg">
<g clip-path="url(#clip0_12359_364)">
<path d="M71.867 32.2519L69.9324 27.6641H66.882L70.421 34.7555V38.6617H73.3097V34.7653L76.8421 27.674H73.7917L71.867 32.2519ZM65.7892 38.6715V27.674H62.9567V34.0542L59.269 27.6641H56.4299V38.6617H59.269V32.2748L62.9666 38.6715H65.7892ZM48.8632 34.5687L49.9361 31.0951L51.0157 34.5687H48.8632ZM52.2867 38.6715H55.347L51.2831 27.674H48.5892L44.5483 38.6715H47.5988L48.1633 36.8495H51.7255L52.2867 38.6715ZM40.732 32.8155H39.1011V29.9547H40.732C40.9379 29.9402 41.1444 29.9728 41.3356 30.0501C41.5268 30.1274 41.6975 30.2472 41.8346 30.4004C42.09 30.719 42.2223 31.1176 42.2077 31.5244C42.216 31.6979 42.1878 31.8712 42.1246 32.0331C42.0615 32.1951 41.965 32.3422 41.8412 32.4649C41.5322 32.7218 41.1338 32.8478 40.732 32.8155ZM40.732 27.674H36.2652V38.6715H39.1011V35.1062H40.732C41.5263 35.125 42.3152 34.9707 43.0429 34.6539C43.6607 34.3823 44.1876 33.9411 44.5615 33.3825C44.9198 32.824 45.1046 32.1733 45.0931 31.5113C45.1021 30.8198 44.9182 30.1392 44.5615 29.5451C44.1971 28.9539 43.6687 28.4794 43.0396 28.1786C42.3198 27.8338 41.5276 27.6642 40.7287 27.6838L40.732 27.674ZM33.9279 27.6838H30.1875L27.8765 34.9783L25.5656 27.6838H21.8384V38.6813H24.6841V36.6037L24.4035 31.0132L26.9521 38.6813H28.8075L31.3594 31.0132L31.0854 36.6037V38.6813H33.9312L33.9279 27.6838ZM17.4212 32.9696V33.3857C17.4682 34.1939 17.2888 34.9993 16.9028 35.7124C16.7546 35.9689 16.5391 36.1809 16.2793 36.3257C16.0195 36.4705 15.725 36.5428 15.4271 36.5349C15.1248 36.5498 14.8241 36.4819 14.558 36.3385C14.2919 36.1952 14.0706 35.982 13.9184 35.7222C13.5386 35.0036 13.3628 34.1959 13.41 33.3857V32.9696C13.41 30.8832 14.078 29.839 15.4139 29.8368C15.7115 29.8251 16.0067 29.8936 16.2682 30.035C16.5298 30.1763 16.7479 30.3852 16.8995 30.6396C17.2495 31.1771 17.4212 31.9504 17.4212 32.9696ZM20.3197 33.3857V32.9859C20.3436 31.9869 20.1287 30.9964 19.6925 30.0957C19.3057 29.3102 18.701 28.6508 17.9494 28.195C17.1729 27.7609 16.2968 27.5328 15.4057 27.5328C14.5145 27.5328 13.6384 27.7609 12.862 28.195C12.113 28.65 11.5123 29.31 11.1321 30.0957C10.7012 30.9979 10.4887 31.9877 10.5114 32.9859V33.3857C10.4891 34.384 10.7016 35.3736 11.1321 36.276C11.5152 37.0607 12.1226 37.716 12.8785 38.1603C13.6543 38.6085 14.5397 38.8353 15.437 38.8157C16.3269 38.8336 17.2044 38.6068 17.9725 38.1603C18.7228 37.7089 19.325 37.0509 19.7057 36.2662C20.1389 35.3646 20.3526 34.3745 20.3296 33.3759L20.3197 33.3857ZM9.57714 34.88H6.74789C6.76594 35.1068 6.73294 35.3347 6.65129 35.5473C6.56963 35.7598 6.44137 35.9516 6.2758 36.1089C5.88922 36.3912 5.41426 36.5283 4.93545 36.4956C4.5482 36.5178 4.16338 36.4217 3.8328 36.2203C3.53532 35.9841 3.3318 35.6509 3.25836 35.2798C3.1216 34.6647 3.06172 34.0351 3.08009 33.4054V32.9302C3.06258 32.3116 3.12808 31.6934 3.27487 31.0919C3.35671 30.7142 3.56077 30.3736 3.85591 30.1219C4.15432 29.9158 4.51291 29.8133 4.87602 29.8302C5.5495 29.8302 6.0315 29.9679 6.32201 30.2431C6.48108 30.4206 6.60228 30.6283 6.67831 30.8536C6.75433 31.0789 6.78362 31.3171 6.7644 31.5539H9.59365C9.53982 30.8143 9.30771 30.0984 8.91687 29.4665C8.53209 28.851 7.97912 28.3567 7.32232 28.041C6.56068 27.6734 5.72282 27.4883 4.87602 27.5003C4.00896 27.4814 3.1545 27.7088 2.41322 28.1557C1.68912 28.6099 1.11519 29.2651 0.762544 30.0399C0.356971 30.9492 0.158574 31.9361 0.181507 32.9302V33.3988C0.157999 34.3928 0.3482 35.3804 0.739434 36.2957C1.07831 37.0698 1.64732 37.7226 2.3703 38.1668C3.14479 38.6181 4.03108 38.8451 4.92885 38.8222C5.75229 38.8385 6.56897 38.6717 7.31902 38.334C7.98071 38.0352 8.54297 37.5555 8.93998 36.9511C9.34121 36.3325 9.56177 35.6156 9.57714 34.88Z" fill="white"/>
<path d="M33.5979 22.2015C33.3292 22.1959 33.0634 22.2579 32.8253 22.3817C32.6054 22.4987 32.422 22.6732 32.2951 22.8864C32.1682 23.0996 32.1027 23.3433 32.1057 23.591C32.1007 23.8432 32.167 24.0919 32.2971 24.3086C32.423 24.5211 32.6059 24.6947 32.8253 24.81C33.0641 24.9327 33.329 24.9967 33.5979 24.9967C33.8667 24.9967 34.1316 24.9327 34.3704 24.81C34.5898 24.6947 34.7727 24.5211 34.8986 24.3086C35.0273 24.0913 35.0935 23.843 35.0901 23.591C35.0925 23.3421 35.0263 23.0973 34.8986 22.8831C34.7727 22.6707 34.5898 22.4971 34.3704 22.3817C34.1323 22.2579 33.8666 22.1959 33.5979 22.2015ZM26.358 22.6406H24.7073V20.373H26.4835C27.344 20.373 27.7743 20.776 27.7743 21.5822C27.7783 21.7251 27.7508 21.8672 27.6938 21.9985C27.6368 22.1298 27.5516 22.2472 27.4441 22.3424C27.135 22.5656 26.7555 22.6714 26.3745 22.6406H26.358ZM25.8859 16.1981C26.3228 16.163 26.7602 16.2601 27.1404 16.4766C27.2769 16.5863 27.3839 16.7277 27.4519 16.8884C27.5199 17.0491 27.5467 17.224 27.53 17.3975C27.5433 17.5562 27.5161 17.7156 27.4509 17.8611C27.3857 18.0066 27.2846 18.1334 27.1569 18.2298C26.7584 18.4342 26.3098 18.5228 25.8628 18.4854H24.6974V16.1915L25.8859 16.1981ZM28.8571 19.3473C29.3418 19.1838 29.7516 18.8537 30.0126 18.4166C30.2598 17.9786 30.3852 17.4832 30.3757 16.9813C30.4 16.5305 30.3045 16.0813 30.0989 15.6788C29.8932 15.2762 29.5845 14.9343 29.2038 14.6874C28.4202 14.1696 27.3198 13.9108 25.9024 13.9108H21.8616V24.9116H26.358C29.184 24.9116 30.5969 23.8192 30.5969 21.6346C30.6038 21.1285 30.4577 20.632 30.1777 20.2091C29.8671 19.7623 29.3935 19.4532 28.8571 19.3473ZM17.3486 19.2031V19.6356C17.3937 20.4437 17.2144 21.2485 16.8303 21.9623C16.6704 22.2092 16.4505 22.4123 16.191 22.5529C15.9314 22.6936 15.6404 22.7673 15.3447 22.7673C15.049 22.7673 14.758 22.6936 14.4984 22.5529C14.2389 22.4123 14.019 22.2092 13.8591 21.9623C13.5092 21.4183 13.3342 20.6428 13.3342 19.6356V19.2031C13.3342 17.1124 14.0011 16.067 15.3348 16.067C15.6356 16.0542 15.9343 16.1224 16.1993 16.2643C16.4643 16.4062 16.6858 16.6166 16.8402 16.8732C17.188 17.4106 17.3618 18.1872 17.3618 19.2031H17.3486ZM20.2439 19.6356V19.2195C20.2662 18.2205 20.0513 17.2304 19.6167 16.3292C19.2315 15.5427 18.6263 14.8828 17.8735 14.4285C17.0977 13.9926 16.2214 13.7634 15.3299 13.7634C14.4383 13.7634 13.562 13.9926 12.7862 14.4285C12.0364 14.8826 11.4355 15.5429 11.0563 16.3292C10.6239 17.231 10.4113 18.2211 10.4356 19.2195V19.6356C10.4115 20.633 10.6241 21.6219 11.0563 22.5227C11.4339 23.3103 12.0366 23.9701 12.7895 24.42C13.567 24.8668 14.4531 25.0934 15.3513 25.0754C16.24 25.0919 17.116 24.8651 17.8834 24.42C18.6364 23.9693 19.24 23.3097 19.62 22.5227C20.0532 21.6222 20.2669 20.6332 20.2439 19.6356ZM4.99168 22.657H3.34101V20.373H5.11383C5.97438 20.373 6.40576 20.776 6.40796 21.5822C6.41194 21.7251 6.38446 21.8672 6.32745 21.9985C6.27043 22.1298 6.18524 22.2472 6.07783 22.3424C5.76997 22.5657 5.39147 22.6715 5.01149 22.6406L4.99168 22.657ZM4.51959 16.1981C4.95651 16.163 5.39389 16.2601 5.7741 16.4766C5.91014 16.5866 6.01683 16.7282 6.08477 16.8887C6.1527 17.0493 6.1798 17.224 6.16366 17.3975C6.17699 17.5562 6.14979 17.7156 6.08459 17.8611C6.01938 18.0066 5.91827 18.1334 5.79061 18.2298C5.39188 18.4337 4.94346 18.5223 4.49648 18.4854H3.3311V16.1915L4.51959 16.1981ZM7.4908 19.3473C7.97546 19.1838 8.38527 18.8537 8.64627 18.4166C8.88976 17.9774 9.01271 17.4825 9.00282 16.9813C9.02812 16.5304 8.93307 16.0808 8.72729 15.6781C8.52151 15.2753 8.21228 14.9336 7.83084 14.6874C7.05172 14.1696 5.94577 13.9108 4.52949 13.9108H0.491943V24.9116H4.99168C7.81764 24.9116 9.23061 23.8192 9.23061 21.6346C9.23586 21.1287 9.08996 20.6327 8.81134 20.2091C8.50005 19.7631 8.02672 19.4542 7.4908 19.3473Z" fill="white"/>
<path d="M49.7513 9.12312C49.5668 9.12384 49.3854 9.07516 49.2264 8.98222C49.0564 8.88769 48.915 8.74963 48.817 8.58242C48.7118 8.40005 48.6582 8.19286 48.6619 7.98274C48.6571 7.78967 48.6838 7.59711 48.7411 7.41254C48.7981 7.25036 48.8818 7.09866 48.9887 6.9636L49.0349 6.93411L50.8243 8.90029C50.4834 9.03768 50.1192 9.10888 49.7513 9.11002V9.12312ZM49.2495 3.0214C49.2407 2.80195 49.3189 2.58782 49.4674 2.42499C49.5502 2.34342 49.6496 2.28021 49.7588 2.23954C49.8681 2.19887 49.9848 2.18166 50.1013 2.18905C50.2068 2.18494 50.312 2.20428 50.4091 2.24567C50.5062 2.28705 50.5928 2.34944 50.6625 2.42827C50.8002 2.57387 50.8769 2.766 50.8771 2.96569C50.8758 3.12907 50.835 3.28976 50.7582 3.4343C50.6285 3.6412 50.4464 3.81069 50.23 3.92584L49.781 4.21422C49.6238 4.01816 49.4898 3.80486 49.3816 3.57848C49.2965 3.40132 49.2514 3.20783 49.2495 3.01157V3.0214ZM55.8753 11.145L54.1718 9.22799C54.8651 8.31699 55.2129 7.08266 55.2151 5.52501H52.947C52.9501 6.16322 52.7947 6.79235 52.4947 7.35683L50.9365 5.60365L51.5605 5.16454C51.9867 4.87735 52.3486 4.50584 52.6235 4.07331C52.8857 3.67227 53.0256 3.20456 53.0263 2.72647C53.0322 2.24425 52.9048 1.76965 52.6581 1.35424C52.4113 0.938839 52.0545 0.598535 51.6265 0.370324C51.1583 0.116629 50.6313 -0.0110312 50.098 2.71266e-05C49.5171 -0.0123394 48.9429 0.124232 48.4308 0.396541C47.9607 0.647127 47.5724 1.0257 47.3116 1.48777C47.0852 1.8991 46.9529 2.35497 46.9244 2.82286C46.8959 3.29075 46.9717 3.75912 47.1466 4.19456C47.3308 4.632 47.5622 5.04841 47.8365 5.43653L47.7606 5.48241C47.4052 5.73057 47.0686 6.00439 46.7537 6.30165C46.5003 6.54723 46.2914 6.83435 46.1363 7.15039C45.9833 7.48228 45.9066 7.84386 45.9118 8.20885C45.9019 8.77709 46.0553 9.33638 46.3542 9.82112C46.659 10.3022 47.0984 10.6848 47.6186 10.9222C48.222 11.1961 48.8801 11.3306 49.5433 11.3154C50.046 11.3207 50.5473 11.2634 51.0355 11.145C51.4965 11.0224 51.9401 10.8429 52.3561 10.6109L52.8447 11.1549L55.8753 11.145ZM43.8155 2.42827V0.134383H36.0705V11.1549H43.7858V8.88063H38.9064V6.61624H43.0232V4.42394H38.9064V2.4381L43.8155 2.42827ZM34.542 7.34373H31.7194C31.7379 7.57103 31.7051 7.79957 31.6235 8.01272C31.5418 8.22586 31.4133 8.41825 31.2473 8.57587C30.8652 8.85184 30.3984 8.98737 29.9267 8.95928C29.5394 8.98193 29.1545 8.88583 28.8241 8.68401C28.5267 8.44719 28.3222 8.11441 28.2463 7.74352C28.1097 7.12943 28.0499 6.50098 28.0681 5.87237V5.41359C28.0509 4.79495 28.1164 4.17678 28.2628 3.57521C28.3429 3.19322 28.547 2.84787 28.8439 2.59211C29.1423 2.38605 29.5009 2.28353 29.864 2.30046C30.5397 2.30046 31.0217 2.4381 31.31 2.71336C31.4692 2.89079 31.5905 3.09844 31.6666 3.32374C31.7426 3.54905 31.7718 3.78732 31.7524 4.02415H34.5816C34.5328 3.28286 34.3065 2.56384 33.9214 1.92689C33.5339 1.3136 32.9817 0.819893 32.3268 0.501404C31.5584 0.142831 30.7161 -0.032241 29.8673 -0.00980465C29.0013 -0.0287576 28.1478 0.198658 27.4078 0.64559C26.6828 1.0988 26.1086 1.75425 25.7571 2.52985C25.3489 3.43839 25.1493 4.42563 25.1728 5.42014V5.8822C25.149 6.87654 25.3404 7.86438 25.734 8.77904C26.0717 9.55202 26.6396 10.2039 27.3616 10.6469C28.1373 11.0981 29.0246 11.3251 29.9234 11.3023C30.7466 11.3193 31.5632 11.1536 32.3136 10.8173C32.9724 10.5155 33.5328 10.0364 33.9313 9.43444C34.3307 8.81456 34.5468 8.09588 34.5552 7.36011L34.542 7.34373ZM23.4429 0.157322H20.6136V11.1549H23.4429V0.157322ZM14.7174 8.88063V0.157322H11.8882V11.1549H19.2832V8.88063H14.7174ZM4.31486 7.05535L5.3878 3.57848L6.47064 7.05535H4.31486ZM7.74166 11.1549H10.7987L6.73475 0.157322H4.04085L0.0032959 11.1549H3.05704L3.61827 9.33613H7.17713L7.74166 11.1549Z" fill="white"/>
<path d="M107 44.2064H0.290405V69H107V44.2064Z" fill="white"/>
</g>
<defs>
<clipPath id="clip0_12359_364">
<rect width="107" height="69" fill="white"/>
</clipPath>
</defs>
</svg>
