<svg width="40" height="59" viewBox="0 0 40 59" fill="none" xmlns="http://www.w3.org/2000/svg">
<path d="M39.103 21.8206L39.1029 21.8129C39.0846 19.3162 39.0907 16.8154 39.0968 14.3168C39.0999 13.069 39.1029 11.8217 39.1029 10.5758C39.0963 7.51191 38.0966 5.00916 36.3778 3.27026C34.6598 1.53204 32.1825 0.515846 29.1422 0.5H29.1197H29.0959H29.072H29.0482H29.0244H29.0006H28.9768H28.953H28.9291H28.9053H28.8815H28.8577H28.8339H28.81H28.7862H28.7624H28.7386H28.7148H28.691H28.6671H28.6433H28.6195H28.5957H28.5719H28.548H28.5242H28.5004H28.4766H28.4528H28.4289H28.4051H28.3813H28.3575H28.3337H28.3098H28.286H28.2622H28.2384H28.2146H28.1907H28.1669H28.1431H28.1193H28.0955H28.0716H28.0478H28.024H28.0002H27.9763H27.9525H27.9287H27.9049H27.8811H27.8572H27.8334H27.8096H27.7858H27.7619H27.7381H27.7143H27.6905H27.6667H27.6428H27.619H27.5952H27.5714H27.5475H27.5237H27.4999H27.4761H27.4523H27.4284H27.4046H27.3808H27.357H27.3331H27.3093H27.2855H27.2617H27.2378H27.214H27.1902H27.1664H27.1425H27.1187H27.0949H27.0711H27.0472H27.0234H26.9996H26.9758H26.9519H26.9281H26.9043H26.8805H26.8566H26.8328H26.809H26.7852H26.7613H26.7375H26.7137H26.6899H26.666H26.6422H26.6184H26.5946H26.5707H26.5469H26.5231H26.4993H26.4754H26.4516H26.4278H26.404H26.3801H26.3563H26.3325H26.3087H26.2848H26.261H26.2372H26.2133H26.1895H26.1657H26.1419H26.118H26.0942H26.0704H26.0466H26.0227H25.9989H25.9751H25.9512H25.9274H25.9036H25.8798H25.8559H25.8321H25.8083H25.7845H25.7606H25.7368H25.713H25.6891H25.6653H25.6415H25.6177H25.5938H25.57H25.5462H25.5224H25.4985H25.4747H25.4509H25.427H25.4032H25.3794H25.3556H25.3317H25.3079H25.2841H25.2602H25.2364H25.2126H25.1888H25.1649H25.1411H25.1173H25.0934H25.0696H25.0458H25.022H24.9981H24.9743H24.9505H24.9266H24.9028H24.879H24.8551H24.8313H24.8075H24.7837H24.7598H24.736H24.7122H24.6883H24.6645H24.6407H24.6169H24.593H24.5692H24.5454H24.5215H24.4977H24.4739H24.45H24.4262H24.4024H24.3786H24.3547H24.3309H24.3071H24.2832H24.2594H24.2356H24.2118H24.1879H24.1641H24.1403H24.1164H24.0926H24.0688H24.0449H24.0211H23.9973H23.9735H23.9496H23.9258H23.902H23.8781H23.8543H23.8305H23.8066H23.7828H23.759H23.7351H23.7113H23.6875H23.6637H23.6398H23.616H23.5922H23.5683H23.5445H23.5207H23.4968H23.473H23.4492H23.4254H23.4015H23.3777H23.3539H23.33H23.3062H23.2824H23.2585H23.2347H23.2109H23.1871H23.1632H23.1394H23.1156H23.0917H23.0679H23.0441H23.0202H22.9964H22.9726H22.9488H22.9249H22.9011H22.8773H22.8534H22.8296H22.8058H22.7819H22.7581H22.7343H22.7104H22.6866H22.6628H22.639H22.6151H22.5913H22.5675H22.5436H22.5198H22.496H22.4721H22.4483H22.4245H22.4007H22.3768H22.353H22.3292H22.3053H22.2815H22.2577H22.2338H22.21H22.1862H22.1624H22.1385H22.1147H22.0909H22.067H22.0432H22.0194H21.9955H21.9717H21.9479H21.9241H21.9002H21.8764H21.8526H21.8287H21.8049H21.7811H21.7572H21.7334H21.7096H21.6858H21.6619H21.6381H21.6143H21.5904H21.5666H21.5428H21.5189H21.4951H21.4713H21.4475H21.4236H21.3998H21.376H21.3521H21.3283H21.3045H21.2807H21.2568H21.233H21.2092H21.1853H21.1615H21.1377H21.1139H21.09H21.0662H21.0424H21.0185H20.9947H20.9709H20.9471H20.9232H20.8994H20.8756H20.8517H20.8279H20.8041H20.7803H20.7564H20.7326H20.7088H20.6849H20.6611H20.6373H20.6135H20.5896H20.5658H20.542H20.5181H20.4943H20.4705H20.4467H20.4228H20.399H20.3752H20.3513H20.3275H20.3037H20.2799H20.256H20.2322H20.2084H20.1846H20.1607H20.1369H20.1131H20.0892H20.0654H20.0416H20.0178H19.9939H19.9701H19.9463H19.9225H19.8986H19.8748H19.851H19.8271H19.8033H19.7795H19.7557H19.7318H19.708H19.6842H19.6604H19.6365H19.6127H19.5889H19.5651H19.5412H19.5174H19.4936H19.4698H19.4459H19.4221H19.3983H19.3745H19.3506H19.3268H19.303H19.2792H19.2553H19.2315H19.2077H19.1838H19.16H19.1362H19.1124H19.0886H19.0647H19.0409H19.0171H18.9933H18.9694H18.9456H18.9218H18.898H18.8741H18.8503H18.8265H18.8027H18.7788H18.755H18.7312H18.7074H18.6835H18.6597H18.6359H18.6121H18.5882H18.5644H18.5406H18.5168H18.493H18.4691H18.4453H18.4215H18.3977H18.3738H18.35H18.3262H18.3024H18.2786H18.2547H18.2309H18.2071H18.1833H18.1594H18.1356H18.1118H18.088H18.0642H18.0403H18.0165H17.9927H17.9689H17.9451H17.9212H17.8974H17.8736H17.8498H17.8259H17.8021H17.7783H17.7545H17.7307H17.7068H17.683H17.6592H17.6354H17.6116H17.5877H17.5639H17.5401H17.5163H17.4925H17.4686H17.4448H17.421H17.3972H17.3734H17.3496H17.3257H17.3019H17.2781H17.2543H17.2305H17.2066H17.1828H17.159H17.1352H17.1114H17.0876H17.0637H17.0399H17.0161H16.9923H16.9685H16.9447C12.3772 0.5 7.80662 0.510763 3.23303 0.532291L3.23235 0.532294C2.61035 0.534376 2.09362 0.664435 1.68711 0.915581C1.28629 1.16321 0.958588 1.5492 0.741821 2.12719L0.741563 2.12788C0.31607 3.25738 0.433666 4.29539 1.22145 4.88232C2.02012 5.44505 2.96559 5.75699 3.93902 5.77938C10.4239 5.84004 16.911 5.8344 23.3995 5.82875C25.2927 5.82711 27.186 5.82546 29.0794 5.82546H29.0844V5.82548C30.5577 5.84007 31.7542 6.21292 32.5794 7.03315C33.4061 7.85482 33.7769 9.04239 33.7769 10.5055C33.7769 11.7818 33.78 13.0605 33.783 14.3404C33.7891 16.9051 33.7952 19.4753 33.7769 22.0435L33.7769 22.0486C33.7546 23.3227 33.3714 24.4254 32.6333 25.2144C31.8906 26.0082 30.8354 26.4337 29.5747 26.4339M39.103 21.8206L29.5738 25.9339M39.103 21.8206L39.1033 21.8283C39.1863 24.008 38.5099 26.1479 37.1919 27.8767C36.8949 28.2627 36.6887 28.6599 36.6941 29.1113C36.6994 29.5568 36.9106 29.9482 37.1861 30.3227L37.1861 30.3227L37.1904 30.3284C38.5042 32.0611 39.1763 34.2026 39.0896 36.3827L39.0893 36.3899L39.0892 36.3972C39.0617 38.963 39.0709 41.5338 39.08 44.0997C39.0846 45.3799 39.0892 46.6589 39.0892 47.9354C39.0626 53.5976 34.91 57.7816 29.2842 57.7948C20.8031 57.8133 12.3219 57.804 3.84078 57.7672C3.03648 57.7514 2.24879 57.532 1.55019 57.1289C0.635028 56.5928 0.368461 55.6234 0.611802 54.4719L0.614921 54.4571L0.617144 54.4422C0.691655 53.9422 0.926513 53.4812 1.28501 53.1294C1.64334 52.7778 2.10545 52.5547 2.60049 52.4933C3.32045 52.4048 4.04607 52.372 4.77098 52.3953L4.77899 52.3955H4.787H4.83349H4.87998H4.92647H4.97296H5.01945H5.06594H5.11243H5.15892H5.20541H5.2519H5.29839H5.34488H5.39137H5.43786H5.48435H5.53084H5.57733H5.62382H5.67031H5.71679H5.76328H5.80977H5.85626H5.90275H5.94924H5.99573H6.04222H6.08871H6.1352H6.18169H6.22818H6.27467H6.32116H6.36765H6.41414H6.46063H6.50712H6.55361H6.6001H6.64658H6.69307H6.73956H6.78605H6.83254H6.87903H6.92552H6.97201H7.0185H7.06499H7.11148H7.15797H7.20446H7.25095H7.29744H7.34393H7.39042H7.43691H7.4834H7.52989H7.57638H7.62286H7.66935H7.71584H7.76233H7.80882H7.85531H7.9018H7.94829H7.99478H8.04127H8.08776H8.13425H8.18074H8.22723H8.27372H8.32021H8.3667H8.41319H8.45967H8.50616H8.55265H8.59914H8.64563H8.69212H8.73861H8.7851H8.83159H8.87808H8.92457H8.97106H9.01755H9.06404H9.11053H9.15702H9.20351H9.25H9.29649H9.34298H9.38947H9.43596H9.48244H9.52893H9.57542H9.62191H9.6684H9.71489H9.76138H9.80787H9.85436H9.90085H9.94734H9.99383H10.0403H10.0868H10.1333H10.1798H10.2263H10.2728H10.3193H10.3657H10.4122H10.4587H10.5052H10.5517H10.5982H10.6447H10.6912H10.7377H10.7842H10.8306H10.8771H10.9236H10.9701H11.0166H11.0631H11.1096H11.1561H11.2026H11.249H11.2955H11.342H11.3885H11.435H11.4815H11.528H11.5745H11.621H11.6675H11.7139H11.7604H11.8069H11.8534H11.8999H11.9464H11.9929H12.0394H12.0859H12.1323H12.1788H12.2253H12.2718H12.3183H12.3648H12.4113H12.4578H12.5043H12.5508H12.5972H12.6437H12.6902H12.7367H12.7832H12.8297H12.8762H12.9227H12.9692H13.0156H13.0621H13.1086H13.1551H13.2016H13.2481H13.2946H13.3411H13.3876H13.4341H13.4805H13.527H13.5735H13.62H13.6665H13.713H13.7595H13.806H13.8525H13.8989H13.9454H13.9919H14.0384H14.0849H14.1314H14.1779H14.2244H14.2709H14.3174H14.3638H14.4103H14.4568H14.5033H14.5498H14.5963H14.6428H14.6893H14.7358H14.7822H14.8287H14.8752H14.9217H14.9682H15.0147H15.0612H15.1077H15.1542H15.2007H15.2471H15.2936H15.3401H15.3866H15.4331H15.4796H15.5261H15.5726H15.6191H15.6655H15.712H15.7585H15.805H15.8515H15.898H15.9445H15.991H16.0375H16.084H16.1304H16.1769H16.2234H16.2699H16.3164H16.3629H16.4094H16.4559H16.5024H16.5488H16.5953H16.6418H16.6883H16.7348H16.7813H16.8278H16.8743H16.9208H16.9673H17.0137H17.0602H17.1067H17.1532H17.1997H17.2462H17.2927H17.3392H17.3857H17.4321H17.4786H17.5251H17.5716H17.6181H17.6646H17.7111H17.7576H17.8041H17.8506H17.897H17.9435H17.99H18.0365H18.083H18.1295H18.176H18.2225H18.269H18.3154H18.3619H18.4084H18.4549H18.5014H18.5479H18.5944H18.6409H18.6874H18.7339H18.7803H18.8268H18.8733H18.9198H18.9663H19.0128H19.0593H19.1058H19.1523H19.1987H19.2452H19.2917H19.3382H19.3847H19.4312H19.4777H19.5242H19.5707H19.6172H19.6636H19.7101H19.7566H19.8031H19.8496H19.8961H19.9426H19.9891H20.0356H20.0821H20.1285H20.175H20.2215H20.268H20.3145H20.361H20.4075H20.454H20.5005H20.5469H20.5934H20.6399H20.6864H20.7329H20.7794H20.8259H20.8724H20.9189H20.9654H21.0118H21.0583H21.1048H21.1513H21.1978H21.2443H21.2908H21.3373H21.3838H21.4302H21.4767H21.5232H21.5697H21.6162H21.6627H21.7092H21.7557H21.8022H21.8486H21.8951H21.9416H21.9881H22.0346H22.0811H22.1276H22.1741H22.2206H22.2671H22.3135H22.36H22.4065H22.453H22.4995H22.546H22.5925H22.639H22.6855H22.732H22.7784H22.8249H22.8714H22.9179H22.9644H23.0109H23.0574H23.1039H23.1504H23.1968H23.2433H23.2898H23.3363H23.3828H23.4293H23.4758H23.5223H23.5688H23.6153H23.6617H23.7082H23.7547H23.8012H23.8477H23.8942H23.9407H23.9872H24.0337H24.0801H24.1266H24.1731H24.2196H24.2661H24.3126H24.3591H24.4056H24.4521H24.4986H24.545H24.5915H24.638H24.6845H24.731H24.7775H24.824H24.8705H24.917H24.9634H25.0099H25.0564H25.1029H25.1494H25.1959H25.2424H25.2889H25.3354H25.3819H25.4283H25.4748H25.5213H25.5678H25.6143H25.6608H25.7073H25.7538H25.8003H25.8467H25.8932H25.9397H25.9862H26.0327H26.0792H26.1257H26.1722H26.2187H26.2652H26.3116H26.3581H26.4046H26.4511H26.4976H26.5441H26.5906H26.6371H26.6836H26.73H26.7765H26.823H26.8695H26.916H26.9625H27.009H27.0555H27.102H27.1485H27.1949H27.2414H27.2879H27.3344H27.3809H27.4274H27.4739H27.5204H27.5669H27.6133H27.6598H27.7063H27.7528H27.7993H27.8458H27.8923H27.9388H27.9853H28.0318H28.0782H28.1247H28.1712H28.2177H28.2642H28.3107H28.3572H28.4037H28.4502H28.4966H28.5431H28.5867C29.1087 52.4017 29.6306 52.3744 30.1492 52.3137L30.1492 52.3138L30.1575 52.3127C32.2388 52.0336 33.7272 50.5347 33.7585 48.3733L33.7586 48.3726C33.8135 44.2189 33.8135 40.0621 33.7586 35.9023C33.7432 34.71 33.2985 33.67 32.5216 32.9269C31.746 32.1851 30.6689 31.767 29.435 31.7594L29.4344 31.7594C25.6646 31.7404 21.8756 31.741 18.0881 31.7416C14.5391 31.7421 10.9915 31.7427 7.46243 31.7271H7.46022C6.90489 31.7271 6.41833 31.8566 6.11247 32.2602C5.83451 32.627 5.80213 33.1085 5.80673 33.529L5.80677 33.5315C5.84025 35.6516 5.84025 37.7717 5.80677 39.8919L5.80676 39.8927C5.79195 40.935 5.50217 41.7297 5.05105 42.258C4.60669 42.7783 3.97228 43.0809 3.16959 43.0908C2.36582 43.1007 1.73217 42.8149 1.29129 42.3077C0.843265 41.7923 0.553665 41.0001 0.549362 39.9351C0.531055 32.6986 0.531056 25.4621 0.549365 18.2256V18.2243C0.549365 17.163 0.810071 16.4191 1.22606 15.9422C1.63444 15.474 2.24999 15.1973 3.10749 15.1809C3.94796 15.1648 4.59618 15.4463 5.04301 15.9411C5.49674 16.4436 5.78948 17.2188 5.80217 18.2673L5.80219 18.2688C5.83418 20.3923 5.84327 22.5131 5.80223 24.6278L5.80213 24.6278V24.6375C5.80213 25.1508 5.87703 25.6575 6.22008 26.016C6.56938 26.3811 7.07535 26.4687 7.60445 26.4662M39.103 21.8206L7.60212 25.9662M29.5747 26.4339C29.5744 26.4339 29.5741 26.4339 29.5738 26.4339V25.9339M29.5747 26.4339C29.5751 26.4339 29.5755 26.4339 29.576 26.4339L29.5738 25.9339M29.5747 26.4339C25.9119 26.4501 22.2493 26.4501 18.5879 26.4501C14.9259 26.4501 11.2651 26.4501 7.60445 26.4662M29.5738 25.9339C25.9118 25.9501 22.2499 25.9501 18.5879 25.9501C14.926 25.9501 11.2641 25.9501 7.60212 25.9662M7.60445 26.4662L7.60212 25.9662M7.60445 26.4662C7.60441 26.4662 7.60437 26.4662 7.60432 26.4662L7.60212 25.9662" fill="white" stroke="#585857"/>
</svg>
