<svg width="64" height="64" fill="none" xmlns="http://www.w3.org/2000/svg"><g clip-path="url(#clip0_12404_711)" fill="#fff"><path d="M60.799 42.018v-5.095a1.6 1.6 0 00-1.6-1.6h-8v-6.4h8a1.6 1.6 0 001.6-1.6V22.23a4.8 4.8 0 10-3.2 0v3.495h-6.4v-4.8a1.6 1.6 0 00-1.6-1.6h-4.8v-6.4C44.8 5.855 39.07.124 32 .124c-7.07 0-12.8 5.731-12.8 12.8v6.4h-4.8a1.6 1.6 0 00-1.6 1.6v4.8H6.4v-3.495a4.8 4.8 0 10-3.199 0v5.095a1.6 1.6 0 001.6 1.6h8v6.4h-8a1.6 1.6 0 00-1.6 1.6v5.094a4.8 4.8 0 103.2 0v-3.495h6.4v8a1.6 1.6 0 001.6 1.6h11.2v9.6h-3.495a4.8 4.8 0 100 3.2H27.2a1.6 1.6 0 001.6-1.6v-11.2h6.4v11.2a1.6 1.6 0 001.6 1.6h5.094a4.8 4.8 0 100-3.2H38.4v-9.6h11.199a1.6 1.6 0 001.6-1.6v-8h6.4v3.495a4.8 4.8 0 103.2 0zm-1.6-25.894a1.6 1.6 0 110 3.2 1.6 1.6 0 010-3.2zm-54.398 0a1.6 1.6 0 110 3.2 1.6 1.6 0 010-3.2zm0 32a1.6 1.6 0 110-3.201 1.6 1.6 0 010 3.2zm12.8 12.798a1.6 1.6 0 110-3.2 1.6 1.6 0 010 3.2zm28.799-3.2a1.6 1.6 0 110 3.2 1.6 1.6 0 010-3.2zm-24-44.798a9.6 9.6 0 019.6-9.6 9.6 9.6 0 019.6 9.6v6.4H22.4v-6.4zM48 44.923H16v-22.4h32v22.4zm11.199 3.2a1.6 1.6 0 110-3.2 1.6 1.6 0 010 3.2z"/><path d="M32 28.924a1.6 1.6 0 00-1.6 1.6v6.4a1.6 1.6 0 103.2 0v-6.4a1.6 1.6 0 00-1.6-1.6z"/></g><defs><clipPath id="clip0_12404_711"><path fill="#fff" d="M0 0h64v64H0z"/></clipPath></defs></svg>