<svg width="58" height="62" fill="none" xmlns="http://www.w3.org/2000/svg"><path fill-rule="evenodd" clip-rule="evenodd" d="M46.059 27.986h7.462c.825 0 1.493-.668 1.493-1.493v-4.752a4.479 4.479 0 10-2.985 0V25h-5.97v2.985zm7.52-9.046a1.55 1.55 0 100-3.1 1.55 1.55 0 000 3.1zM32.004 49.716v7.463c0 .824.668 1.492 1.492 1.492h4.753a4.478 4.478 0 100-2.985h-3.26v-5.97h-2.985zm9.047 7.52a1.55 1.55 0 103.099 0 1.55 1.55 0 00-3.1 0zm-29.11-29.25H4.48a1.493 1.493 0 01-1.493-1.493v-4.752a4.478 4.478 0 112.985 0V25h5.97v2.985zm-7.52-9.047a1.55 1.55 0 110-3.099 1.55 1.55 0 010 3.1zm38.227 17.576h10.874c.825 0 1.493.669 1.493 1.493v4.753a4.478 4.478 0 11-2.986 0V39.5h-9.381v-2.986zm10.932 9.047a1.55 1.55 0 110 3.099 1.55 1.55 0 010-3.1zm-30.103 3.301v8.316c0 .824-.669 1.493-1.493 1.493H17.23a4.479 4.479 0 110-2.986h3.26v-6.823h2.986zm-9.047 8.374a1.55 1.55 0 11-3.1 0 1.55 1.55 0 013.1 0zm.922-20.721H4.478c-.825 0-1.493.668-1.493 1.492v4.753a4.478 4.478 0 102.986 0V39.5h9.381v-2.985zM4.42 45.562a1.55 1.55 0 100 3.1 1.55 1.55 0 000-3.1z" fill="#fff"/><path d="M47.512 17.23C46.482 6.892 37.262-.645 26.924.385A18.815 18.815 0 0010.08 17.23l-.252 2.512.44 2.575 4.195 23.414a4.449 4.449 0 002.726 3.367 30.652 30.652 0 0023.201 0 4.447 4.447 0 002.726-3.38l4.195-23.401.453-2.563-.252-2.524zM17.855 7.017c6.67-6.042 16.97-5.54 23.012 1.13a16.223 16.223 0 014.02 8.417c-3.668-2.073-10.175-3.053-16.104-3.053-5.929 0-12.423.968-16.103 3.053a16.357 16.357 0 015.175-9.547zm22.799 38.274a1.984 1.984 0 01-1.206 1.495 28.171 28.171 0 01-21.304 0 1.99 1.99 0 01-1.206-1.482l-3.68-20.626c3.78 1.885 9.986 2.751 15.538 2.751s11.77-.866 15.538-2.75l-3.68 20.613zm4.572-24.444a.975.975 0 00-.2.302c-1.533 1.846-7.638 3.78-16.23 3.78s-14.697-1.934-16.23-3.78a1.261 1.261 0 00-.2-.302.597.597 0 01-.088-.264l.037-.364c.616-1.746 6.733-4.208 16.493-4.208 9.736 0 15.853 2.45 16.48 4.196l.039.376a.823.823 0 01-.1.264z" fill="#fff"/></svg>