<svg width="64" height="64" fill="none" xmlns="http://www.w3.org/2000/svg"><g clip-path="url(#clip0_12404_714)" fill="#fff"><path d="M13.728 26.353A5.653 5.653 0 008.08 32c.31 7.492 10.985 7.49 11.294 0a5.653 5.653 0 00-5.647-5.647zm0 7.53A1.884 1.884 0 0111.845 32c.104-2.497 3.662-2.497 3.765 0a1.884 1.884 0 01-1.882 1.882z"/><path d="M57.022 48.941a5.611 5.611 0 00-2.783.736l-4.747-3.56V38.81l2.327-1.163h5.982L63.45 32l-5.65-5.647h-8.309v-8.47l4.747-3.56c3.677 2.146 8.472-.63 8.43-4.911a5.653 5.653 0 00-5.647-5.647c-3.91-.06-6.74 4.102-5.257 7.707L45.728 16v10.353h-3.765V10.97C47.858 8.79 46.446.12 40.081 0c-6.366.12-7.777 8.79-1.883 10.97v15.383h-3.764V16l-6.038-4.528c1.483-3.605-1.346-7.768-5.256-7.707a5.653 5.653 0 00-5.647 5.647c-.042 4.281 4.752 7.058 8.43 4.91l4.746 3.56v8.47h-5.034C19.495 13.797.735 17.963.551 32c.185 14.04 18.946 18.202 25.084 5.647h5.034v8.47l-4.747 3.56c-3.677-2.146-8.472.63-8.43 4.911a5.653 5.653 0 005.648 5.647c3.91.06 6.74-4.102 5.256-7.707L34.434 48V37.647h1.438l2.326 1.163v14.22c-5.895 2.18-4.482 10.85 1.883 10.97 6.365-.12 7.776-8.79 1.882-10.97V38.81l1.882-.94 1.883.94V48l6.037 4.528c-1.483 3.605 1.346 7.768 5.257 7.707 7.491-.31 7.49-10.985 0-11.294zm0-41.412c1.038 0 1.882.845 1.882 1.883-.103 2.497-3.662 2.496-3.765 0 0-1.038.845-1.883 1.883-1.883zM40.08 3.765c1.038 0 1.882.844 1.882 1.882-.103 2.497-3.662 2.497-3.765 0 0-1.038.845-1.882 1.883-1.882zM21.257 9.412c0-1.038.845-1.883 1.883-1.883 2.497.104 2.496 3.662 0 3.765a1.885 1.885 0 01-1.883-1.882zM23.14 56.47a1.884 1.884 0 01-1.883-1.883c.104-2.497 3.662-2.496 3.765 0a1.885 1.885 0 01-1.882 1.883zm16.94 3.764a1.884 1.884 0 01-1.882-1.882c.104-2.497 3.662-2.497 3.765 0a1.884 1.884 0 01-1.882 1.882zm0-24.693l-3.32-1.66H23.047l-.443 1.255C18.924 45.013 4.497 42.55 4.316 32c.182-10.552 14.609-13.012 18.288-3.137l.443 1.255h33.195L58.125 32l-1.883 1.882h-5.311l-3.32 1.66-3.765-1.882-3.765 1.883zM57.022 56.47a1.884 1.884 0 01-1.883-1.883c.104-2.497 3.662-2.496 3.765 0a1.884 1.884 0 01-1.882 1.883z"/></g><defs><clipPath id="clip0_12404_714"><path fill="#fff" d="M0 0h64v64H0z"/></clipPath></defs></svg>