<svg width="687" height="873" fill="none" xmlns="http://www.w3.org/2000/svg"><path d="M50-268L69.22-34.332a497.999 497.999 0 00158.074 324.678L901.66 914.432c66.689 61.717 53.524 170.588-25.954 214.628v0c-50.665 28.08-113.658 20.26-155.919-19.35l-406.88-381.39a159.924 159.924 0 00-136.894-40.856v0C103.16 700.194 50 763.449 50 837.406V1352" stroke="url(#paint0_linear_12507_772)" stroke-width="100" stroke-linejoin="round"/><path d="M924 134H557.321c-57.542 0-104.189 46.647-104.189 104.189v0a104.188 104.188 0 0039.272 81.493l140.237 111.711a105.855 105.855 0 0139.901 82.797v0c0 58.463-47.394 105.856-105.856 105.856H345.625C272.93 620.046 214 678.976 214 751.671V1145" stroke="url(#paint1_linear_12507_772)" stroke-width="100" stroke-linejoin="round"/><defs><linearGradient id="paint0_linear_12507_772" x1="50" y1="-290.053" x2="57.166" y2="1352.83" gradientUnits="userSpaceOnUse"><stop stop-color="#E4732B"/><stop offset="1" stop-color="#735278"/></linearGradient><linearGradient id="paint1_linear_12507_772" x1="784.712" y1="-23.486" x2="198.53" y2="1114.99" gradientUnits="userSpaceOnUse"><stop stop-color="#9D5D63"/><stop offset="1" stop-color="#2A418E"/></linearGradient></defs></svg>