<svg width="73" height="50" fill="none" xmlns="http://www.w3.org/2000/svg"><path d="M36.107 49.601H6.736a6.538 6.538 0 01-6.57-6.318V7.297a6.525 6.525 0 01.62-2.96A6.412 6.412 0 015.525.694c.415-.08.838-.119 1.262-.117h58.695a6.562 6.562 0 016.42 4.942c.14.576.209 1.165.206 1.757v35.691a6.565 6.565 0 01-5.525 6.566 6.918 6.918 0 01-1.121.072l-29.356-.004zm.045-5.023H65.62a1.465 1.465 0 001.4-1.113 2.35 2.35 0 00.061-.587V7.062a1.49 1.49 0 00-.975-1.344 1.927 1.927 0 00-.81-.11H6.638a1.465 1.465 0 00-.939.381 1.62 1.62 0 00-.518 1.303v35.622a2.27 2.27 0 000 .235 1.506 1.506 0 001.186 1.413c.186.03.375.042.563.032l29.222-.016z" fill="#fff"/><path d="M56.942 24.581c.17.073.291.13.405.178.848.328 1.643.78 2.36 1.34a8.028 8.028 0 013.096 5.526 8.805 8.805 0 01-1.91 6.764 7.994 7.994 0 01-4.935 2.922c-.63.114-1.27.17-1.91.166H38.86V8.551h.259c4.922 0 9.845-.048 14.763 0 3.31.045 5.736 1.652 7.237 4.611a8.208 8.208 0 01.83 4.66 7.819 7.819 0 01-3.076 5.537c-.482.372-1.02.676-1.534 1.008a4.485 4.485 0 00-.397.214zm-10.65 11.027H50.1a4.011 4.011 0 10-.049-8.02H46.56c-.085 0-.17 0-.267.021v7.999zm0-22.053v7.998h3.19c.217-.004.433-.024.647-.06a4.011 4.011 0 00-.619-7.955h-2.963l-.255.017zm-35.97 27.914V8.527h12.751c2.46.002 4.847.837 6.772 2.368a11.107 11.107 0 013.939 5.878 31.29 31.29 0 01.983 4.02c.138.886.24 1.78.332 2.67.105 1.113.123 2.233.053 3.348a32 32 0 01-.243 2.563 25.027 25.027 0 01-.947 4.214 11.099 11.099 0 01-3.097 4.898 11.216 11.216 0 01-5.938 2.853 9.45 9.45 0 01-1.474.126h-12.86l-.271.004zm7.436-5.457h3.246a6.222 6.222 0 001.316-.162 5.92 5.92 0 004.348-3.975 18.898 18.898 0 001.097-5.703 17.46 17.46 0 00-.405-4.765c-.276-1.137-.624-2.258-.956-3.388a4.89 4.89 0 00-.7-1.429 5.86 5.86 0 00-4.724-2.643c-.975-.044-1.955-.02-2.934-.024h-.272l-.016 22.09z" fill="#fff"/></svg>