<svg width="40" height="59" fill="none" xmlns="http://www.w3.org/2000/svg"><path d="M39.103 21.82v-.007a767.6 767.6 0 01-.006-7.496c.003-1.248.006-2.495.006-3.741-.007-3.064-1.006-5.567-2.725-7.306C34.66 1.532 32.182.516 29.142.5H16.945C12.377.5 7.807.51 3.233.532h0c-.623.002-1.14.132-1.546.384-.4.247-.728.633-.945 1.211h0c-.426 1.13-.308 2.168.48 2.755a4.914 4.914 0 002.717.897c6.485.061 12.972.055 19.46.05 1.894-.002 3.787-.004 5.68-.004h.005v0c1.474.015 2.67.388 3.495 1.208.827.822 1.198 2.01 1.198 3.472 0 1.277.003 2.555.006 3.835a824.44 824.44 0 01-.006 7.704v.005c-.022 1.274-.406 2.376-1.144 3.165-.742.794-1.798 1.22-3.058 1.22m9.528-4.613l-9.53 4.113m9.53-4.113v.007a9.389 9.389 0 01-1.911 6.049c-.297.386-.503.783-.498 1.234.005.446.217.837.492 1.212h0l.004.005a9.404 9.404 0 011.9 6.055v.014c-.028 2.566-.02 5.137-.01 7.703.005 1.28.01 2.559.01 3.835-.027 5.663-4.18 9.847-9.806 9.86-8.48.018-16.962.009-25.443-.028a4.77 4.77 0 01-2.29-.638c-.916-.536-1.183-1.506-.94-2.657l.004-.015.002-.015c.075-.5.31-.96.668-1.313.358-.351.82-.574 1.315-.636a14.19 14.19 0 012.171-.098h23.816c.522.007 1.044-.02 1.562-.081h0l.008-.001c2.082-.28 3.57-1.778 3.601-3.94h0c.055-4.154.055-8.31 0-12.47-.015-1.193-.46-2.233-1.236-2.976-.776-.742-1.853-1.16-3.087-1.168h0c-3.77-.019-7.56-.018-11.347-.017-3.549 0-7.097 0-10.626-.015H7.46c-.555 0-1.042.13-1.348.533-.277.367-.31.849-.305 1.269v.002a201.4 201.4 0 010 6.36v.002c-.015 1.042-.305 1.837-.756 2.365-.444.52-1.079.823-1.881.833-.804.01-1.438-.276-1.879-.783C.843 41.792.554 41 .55 39.935.531 32.7.531 25.462.55 18.225v0c0-1.062.261-1.806.677-2.283.408-.468 1.024-.745 1.881-.761.841-.016 1.49.265 1.936.76.454.503.746 1.278.76 2.326v.002c.031 2.123.04 4.244 0 6.359h0v.01c0 .513.074 1.02.417 1.378.35.365.855.453 1.384.45m31.499-4.645l-31.5 4.145m21.972.468h-.001v-.5m0 .5h.002l-.002-.5m0 .5c-3.662.016-7.325.016-10.986.016-3.662 0-7.323 0-10.984.016m21.97-.532c-3.662.016-7.324.016-10.986.016-3.662 0-7.324 0-10.986.016m.002.5l-.002-.5m.002.5s0 0 0 0l-.002-.5" fill="#fff" stroke="#585857"/></svg>