<svg width="239" height="21" fill="none" xmlns="http://www.w3.org/2000/svg"><g clip-path="url(#clip0_12359_544)" fill="#fff"><path d="M.119 9.67h7.058v3.937l10.232-5.77L7.2 2.074v3.883H.206V2.346a.343.343 0 010-.086c.15-.599.501-1.13.996-1.511A2.843 2.843 0 012.936.163h13.531c.741 0 1.452.287 1.978.8.526.511.825 1.207.831 1.934v9.794a2.708 2.708 0 01-.799 1.901 2.81 2.81 0 01-1.923.817H2.833a2.795 2.795 0 01-1.904-.804 2.693 2.693 0 01-.802-1.875c-.024-.932-.008-1.996-.008-3.06zm175.638 6.904a6.827 6.827 0 004.431.691 2.86 2.86 0 001.413-.614c.404-.329.706-.761.874-1.25.206-.52.34-1.056.507-1.553l-.103-.046a1.779 1.779 0 00-.222.186 4.242 4.242 0 01-2.182 1.401 4.31 4.31 0 01-2.605-.12c-1.804-.528-2.588-1.918-2.778-3.642a5.957 5.957 0 01.244-2.952 6.048 6.048 0 011.64-2.485 5.5 5.5 0 012.514-1.306 5.568 5.568 0 012.843.11c.483.14.933.374 1.323.688.39.313.712.7.948 1.137.126-.497.253-1.002.403-1.491 0-.124.159-.318.246-.318h3.165c-.238.877-.467 1.693-.665 2.524-.601 2.563-1.163 5.134-1.796 7.689a11.95 11.95 0 01-.831 2.221 4.368 4.368 0 01-1.532 1.699 4.476 4.476 0 01-2.195.709 14.21 14.21 0 01-5.966-.404c-.309-.101-.396-.186-.301-.513.229-.784.411-1.553.625-2.36zm5.808-9.102a2.409 2.409 0 00-1.218.27 2.349 2.349 0 00-.91.84 3.73 3.73 0 00-.649 2.206 1.916 1.916 0 00.673 1.487 1.992 1.992 0 001.59.462c.326-.032.642-.128.93-.281.288-.153.542-.361.747-.612a3.74 3.74 0 00.855-2.415 1.768 1.768 0 00-.538-1.447 1.838 1.838 0 00-.681-.418 1.87 1.87 0 00-.799-.092zM141.85.357c-.436 1.965-.847 3.884-1.267 5.779l.087.054.333-.28a4.5 4.5 0 011.775-.989 4.563 4.563 0 012.039-.113 3.55 3.55 0 011.77.736c.509.402.893.935 1.11 1.54a7.17 7.17 0 01.209 3.822 7.267 7.267 0 01-1.791 3.4 5.235 5.235 0 01-2.552 1.321 5.293 5.293 0 01-2.877-.218 3.154 3.154 0 01-1.733-1.405c-.095-.132-.174-.28-.34-.536-.158.582-.316 1.048-.411 1.553-.095.505-.254.482-.633.474h-2.778c.451-1.934.902-3.806 1.337-5.685.689-2.998 1.361-5.996 2.058-8.994.039-.156.206-.404.316-.404 1.076-.07 2.161-.055 3.348-.055zm2.437 9.367c0-1.553-.72-2.33-2.113-2.244a2.39 2.39 0 00-1.472.73 3.654 3.654 0 00-.9 1.43 3.583 3.583 0 00-.152 1.676c.026.465.236.902.584 1.218a1.85 1.85 0 001.283.475 2.618 2.618 0 001.82-.776 3.48 3.48 0 00.934-2.509h.016zm-72.428 5.724c1.131-4.932 2.255-9.794 3.355-14.656.079-.334.213-.458.554-.45h2.58c.41 0 .545.085.434.528a161.89 161.89 0 00-1.131 5.08v.294l.435-.357a4.496 4.496 0 011.85-.991 4.552 4.552 0 012.107-.05c.77.138 1.475.513 2.012 1.072.537.56.877 1.272.97 2.035a7.698 7.698 0 01-.917 5.165 5.22 5.22 0 01-2.625 2.205 5.34 5.34 0 01-3.452.125 3.655 3.655 0 01-1.354-.724 3.574 3.574 0 01-.925-1.21.91.91 0 00-.166.21c-.135.458-.246.916-.388 1.359-.04.124-.182.295-.277.295-1.045.078-2.073.07-3.063.07zm9.495-5.794c0-1.553-.791-2.33-2.136-2.151a2.531 2.531 0 00-1.211.528 3.49 3.49 0 00-1.098 1.48 3.427 3.427 0 00-.184 1.82c.02.459.224.89.566 1.203a1.8 1.8 0 001.262.467 2.556 2.556 0 001.725-.714c.35-.344.625-.756.806-1.209.181-.453.265-.938.246-1.424h.024zM222.84 6.57c.213-1.025.435-2.05.649-3.106.213-1.056.364-1.856.577-2.773 0-.14.198-.357.309-.357h3.125c.048 0 .088 0 .167.085-.167.777-.341 1.647-.515 2.478-.823 3.899-1.643 7.798-2.461 11.697-.174.776-.158.823-1.028.823h-2.374c.055-.551.111-1.04.182-1.67l-.705.73c-1.432 1.491-4.589 1.724-6.14-.155a4.352 4.352 0 01-1.045-2.54 7.874 7.874 0 011.053-4.66 5.053 5.053 0 012.717-2.172 5.162 5.162 0 013.503.075c.802.313 1.492.85 1.986 1.546zm-.839 3.542c0-1.965-.831-2.819-2.208-2.602a2.91 2.91 0 00-1.456.73 3.46 3.46 0 00-.937 1.661 3.42 3.42 0 00.09 1.897c.1.375.334.703.659.924.326.22.721.32 1.114.28a2.523 2.523 0 001.583-.7 3.554 3.554 0 001.155-2.19zm-109.509 5.344c.182-.855.34-1.64.514-2.416.892-4.075 1.786-8.15 2.683-12.225.071-.334.206-.481.578-.473h3.204L117.58 9.25l.103.047c.119-.132.237-.257.348-.396.966-1.197 1.939-2.393 2.896-3.596a.803.803 0 01.697-.35h3.663c-.118.155-.182.256-.253.342-1.258 1.437-2.508 2.881-3.782 4.303a.625.625 0 00-.119.838 190.433 190.433 0 012.327 4.528c.071.132.126.272.205.459h-3.798c-.119 0-.293-.187-.356-.327a495.971 495.971 0 01-1.86-4.287 1.271 1.271 0 00-.332-.49c-.119.529-.245 1.057-.356 1.554-.23 1.033-.459 2.074-.673 3.107a.451.451 0 01-.18.34.474.474 0 01-.381.087 109.54 109.54 0 01-3.237.047zM93.05 4.738a6.037 6.037 0 012.3.328 5.96 5.96 0 011.997 1.17c.394.37.707.815.921 1.308.213.493.323 1.023.32 1.559.014.782-.063 1.564-.229 2.33a4.953 4.953 0 01-1.212 2.318 5.091 5.091 0 01-2.238 1.402 8.86 8.86 0 01-5.816.109 4.148 4.148 0 01-2.057-1.407 4.025 4.025 0 01-.855-2.314 5.782 5.782 0 01.15-2.373 5.846 5.846 0 011.095-2.122 5.972 5.972 0 011.86-1.523 6.082 6.082 0 012.323-.677c.483-.038.966-.038 1.44-.108zm-1.053 8.48c.485.018.964-.105 1.378-.354.414-.249.744-.612.949-1.043a4.91 4.91 0 00.498-2.92 1.773 1.773 0 00-.594-1.231 1.84 1.84 0 00-1.305-.463 2.517 2.517 0 00-1.11.224 2.471 2.471 0 00-.892.685 4.036 4.036 0 00-.835 1.45 3.983 3.983 0 00-.17 1.657 1.925 1.925 0 00.6 1.44c.195.188.427.333.682.429.255.095.527.139.8.127zm-46.901-8.41a6.432 6.432 0 013.166.636 4.18 4.18 0 011.713 1.44c.427.624.672 1.351.708 2.102a7.013 7.013 0 01-.332 2.89 5.436 5.436 0 01-1.754 2.495 5.593 5.593 0 01-2.844 1.186 8.757 8.757 0 01-4.605-.249 4.294 4.294 0 01-2.06-1.475 4.168 4.168 0 01-.844-2.362 5.703 5.703 0 01.69-3.517 5.86 5.86 0 012.665-2.447 7.662 7.662 0 013.498-.7zm1.97 4.784h-.126c0-1.274-.482-2.058-1.503-2.276a2.417 2.417 0 00-2.066.497 4.068 4.068 0 00-1.225 1.904 4.005 4.005 0 00-.009 2.252c.097.334.29.633.558.862.266.229.595.377.946.427.541.11 1.105.037 1.599-.207a2.43 2.43 0 001.123-1.137c.29-.767.526-1.553.704-2.353v.03zm59.547-4.784a6.31 6.31 0 013.015.652c.765.37 1.403.954 1.834 1.678a4.21 4.21 0 01.587 2.392 8.394 8.394 0 01-.261 1.988 4.907 4.907 0 01-1.072 2.138 5.032 5.032 0 01-1.967 1.396 8.702 8.702 0 01-6.243.256 4.246 4.246 0 01-2.116-1.511 4.12 4.12 0 01-.812-2.442c-.087-2.617.902-4.66 3.355-5.833a8.045 8.045 0 013.68-.714zm1.812 4.8h-.135a3.533 3.533 0 000-.412c.01-.28-.045-.56-.16-.817a1.877 1.877 0 00-.505-.669 1.94 1.94 0 00-1.598-.417 2.624 2.624 0 00-1.709.932 4.121 4.121 0 00-.989 2.788c0 1.259.696 2.136 1.677 2.268a2.52 2.52 0 001.594-.218 2.451 2.451 0 001.12-1.133c.292-.77.527-1.559.705-2.361v.039zm-81.98-4.614h3.292l-.221 1.724.443-.412a4.952 4.952 0 011.965-1.3 5.033 5.033 0 012.355-.253c.7.097 1.345.42 1.835.918a3.09 3.09 0 01.872 1.832 10.178 10.178 0 01-.333 3.526c-.253 1.328-.53 2.656-.791 3.976 0 .148-.182.389-.277.389h-3.53c.056-.366.104-.676.159-.979.332-1.608.657-3.215 1.013-4.823.356-1.608-.791-2.33-2.247-1.81-.516.204-.966.54-1.304.974a3.023 3.023 0 00-.62 1.488c-.38 1.554-.696 3.177-1.068 4.761 0 .148-.213.373-.332.373h-3.165a.805.805 0 01-.182-.062c.372-1.716.791-3.433 1.124-5.157a641.75 641.75 0 011.012-5.165zm165.502 6.268c-.087 1.118.696 1.88 1.963 2.042a8.287 8.287 0 003.719-.435l.514-.163a58.493 58.493 0 01-.388 2.183.4.4 0 01-.253.28c-1.85.621-3.847.69-5.737.193a4.658 4.658 0 01-2.649-2.018 4.509 4.509 0 01-.587-3.24 5.818 5.818 0 011.036-2.744 5.971 5.971 0 012.255-1.916 6.989 6.989 0 015.057-.373c2.374.684 3.094 2.742 2.936 4.715 0 .35-.119.691-.151 1.04-.031.35-.166.459-.53.459h-6.647c-.182-.047-.364-.031-.538-.023zm.261-2.02h4.139c.427 0 .49-.178.443-.52a1.684 1.684 0 00-.613-1.2 1.753 1.753 0 00-1.31-.385 2.634 2.634 0 00-1.73.565 2.544 2.544 0 00-.929 1.54zm38.268 1.996a1.903 1.903 0 00.516 1.443 2.005 2.005 0 001.423.624 8.304 8.304 0 003.727-.428l.395-.132h.151a114.42 114.42 0 01-.428 2.23c0 .069-.118.147-.19.162-1.946.513-3.909.839-5.887.171a4.549 4.549 0 01-2.376-1.734 4.409 4.409 0 01-.789-2.802 5.822 5.822 0 011.486-4.002 6.035 6.035 0 013.847-1.97 6.497 6.497 0 013.537.372 3.879 3.879 0 011.753 1.4 3.78 3.78 0 01.669 2.119 18.184 18.184 0 01-.151 2.175c0 .365-.245.357-.514.357h-7.169v.015zm.269-1.996h4.479a1.67 1.67 0 00-.311-1.504 1.723 1.723 0 00-.633-.487 1.754 1.754 0 00-.789-.152 2.636 2.636 0 00-1.801.547c-.51.396-.85.966-.953 1.596h.008zM63.906 11.27c-.087 1.103.704 1.871 1.97 2.035a8.14 8.14 0 003.759-.459l.356-.116h.119c-.127.699-.238 1.398-.38 2.097a.448.448 0 01-.261.318c-1.978.52-3.957.855-5.959.125a4.665 4.665 0 01-2.475-2.027 4.526 4.526 0 01-.555-3.115 5.841 5.841 0 01.984-2.721 5.983 5.983 0 012.18-1.94 6.85 6.85 0 015.54-.31c.71.23 1.332.667 1.783 1.252.451.586.71 1.292.741 2.026.024.803-.008 1.608-.095 2.407 0 .319-.198.404-.53.404h-6.781a3.845 3.845 0 00-.396.024zm.269-2.05a.53.53 0 00.158.046h4.115c.324 0 .332-.194.317-.42-.095-1.227-.792-1.81-2.184-1.74a2.597 2.597 0 00-1.583.64 2.512 2.512 0 00-.823 1.473zM52.028 7.48c.143-.777.254-1.554.404-2.207a.506.506 0 01.364-.287c.47-.027.94-.027 1.409 0 .308 0 .443-.1.498-.388.11-.536.23-1.072.372-1.6 0-.117.142-.288.245-.31 1.18-.335 2.374-.638 3.632-.972l-.712 3.262h2.556c-.142.816-.269 1.554-.427 2.33 0 .078-.246.156-.372.156h-2.018a.52.52 0 00-.38.264c-.316 1.398-.633 2.796-.886 4.202-.198 1.103.57 1.732 1.701 1.468l.673-.164c-.127.715-.238 1.367-.372 2.02 0 .093-.119.24-.198.248a8.987 8.987 0 01-3.165.07 2.973 2.973 0 01-1.104-.455 2.914 2.914 0 01-.828-.85 2.856 2.856 0 01-.347-2.275c.261-1.36.554-2.719.83-4.07 0-.132.048-.264.08-.458l-1.955.015zm82.083.178a7.317 7.317 0 00-3.403-.536 2.468 2.468 0 00-.965.28.631.631 0 000 1.15c.363.203.741.38 1.131.527.507.21 1.021.38 1.511.606 1.828.777 2.082 2.229 1.195 3.883a3.847 3.847 0 01-1.201 1.283 3.944 3.944 0 01-1.655.628 13.924 13.924 0 01-6.014-.303.567.567 0 01-.135-.085c.222-.777.443-1.554.673-2.33.601.155 1.163.326 1.733.435a5.536 5.536 0 002.548 0c.427-.117.791-.303.87-.777.079-.474-.324-.777-.72-.901-.601-.256-1.234-.443-1.828-.7a2.862 2.862 0 01-1.246-.848 2.785 2.785 0 01-.627-1.355 2.752 2.752 0 01.167-1.479c.19-.47.507-.88.915-1.187a5.977 5.977 0 013.07-1.134 10.736 10.736 0 014.748.528l-.767 2.315zm21.341 7.798l.419-1.973c.903-4.24 1.807-8.479 2.715-12.714 0-.156.205-.396.324-.396h3.347c.012.134.012.27 0 .403-1.013 4.761-2.041 9.515-3.046 14.276-.064.318-.166.435-.507.435-1.028-.047-2.112-.031-3.252-.031zm6.489 0c.213-1.01.403-1.942.601-2.874.839-3.914 1.672-7.829 2.501-11.743.071-.365.205-.513.601-.497h3.165c-.166.777-.316 1.553-.482 2.33-.863 4.062-1.733 8.116-2.58 12.186-.095.481-.269.645-.791.614-.839-.047-1.686 0-2.525 0l-.49-.016zm47.494-7.386a3.435 3.435 0 00-2.089-.35 2.723 2.723 0 00-1.402.694 2.638 2.638 0 00-.774 1.341c-.34 1.15-.562 2.33-.791 3.503-.143.614-.246 1.227-.404 1.833 0 .132-.206.342-.317.342h-3.378a7204.02 7204.02 0 002.184-10.439h3.26l-.309 1.934h.071l.198-.248c.246-.347.511-.682.791-1.002a3.414 3.414 0 011.624-.906 3.456 3.456 0 011.866.075.4.4 0 01.23.326c-.238.986-.491 1.903-.76 2.897zm-60.464 7.386c.222-1.087.428-2.113.649-3.107.491-2.33.981-4.66 1.488-6.99 0-.147.19-.373.293-.373h3.466c-.198.956-.388 1.857-.578 2.758-.515 2.415-1.037 4.823-1.543 7.23-.071.365-.19.505-.594.497-1.052-.038-2.089-.015-3.181-.015zm25.362-10.477c-.167.776-.309 1.553-.467 2.267-.554 2.59-1.105 5.178-1.654 7.767-.063.31-.166.466-.538.458h-3.237c.23-1.095.436-2.136.657-3.168.491-2.33.989-4.606 1.464-6.913.063-.303.166-.411.483-.404 1.076 0 2.144-.007 3.292-.007zm33.045 10.469c.221-1.01.419-1.941.633-2.873 0-.11.15-.272.229-.272h3.237c-.222 1.025-.428 1.988-.649 2.951a.388.388 0 01-.293.202c-1.029 0-2.058-.008-3.157-.008zM174.72 3.153h-3.671c.182-.776.34-1.553.53-2.33a.361.361 0 01.269-.225h3.434c-.198.87-.372 1.709-.562 2.555zM155.808.582c-.174.777-.324 1.554-.506 2.33a.437.437 0 01-.269.287h-3.458c.182-.776.34-1.553.53-2.33a.361.361 0 01.269-.225c1.124-.07 2.239-.062 3.434-.062z"/></g><defs><clipPath id="clip0_12359_544"><path fill="#fff" d="M0 0h238.547v20.046H0z"/></clipPath></defs></svg>