<svg width="202" height="29" fill="none" xmlns="http://www.w3.org/2000/svg"><g clip-path="url(#clip0_12359_512)" fill="#fff"><path d="M4.017 4.834c-.05.627-.087 1.21-.149 1.812a7.11 7.11 0 00.6 3.927 7 7 0 002.607 2.97c1.59 1.11 3.447 1.83 5.186 2.734a35.896 35.896 0 014.568 2.445 4.886 4.886 0 011.927 2.615 4.95 4.95 0 01-.126 3.26c-.693 1.95-2.618 3.216-4.951 3.26-6.06.113-11.76-4.564-13.097-10.765-.48-2-.506-4.083-.077-6.094A13.71 13.71 0 013.058 5.48a6.69 6.69 0 01.73-.728l.229.082zm133.378 19.004v1.756h-2.346V3.022a15.272 15.272 0 012.005 0c.173 0 .402.476.409.733v6.452c0 .27 0 .546.049.997a6.745 6.745 0 012.453-1.569 6.672 6.672 0 012.876-.38c3.095.162 5.509 2.25 6.338 5.56.68 2.399.459 4.967-.619 7.211a6.987 6.987 0 01-1.97 2.425 6.88 6.88 0 01-2.819 1.308 6.826 6.826 0 01-3.099-.071 6.883 6.883 0 01-2.758-1.436c-.092-.088-.253-.176-.519-.414zm9.798-6.213l-.143-.063c-.093-.684-.13-1.373-.278-2.038-.477-2.194-2-3.655-3.943-3.85-2.278-.232-4.005.696-4.834 2.709a8.006 8.006 0 00.062 6.52 4.218 4.218 0 001.602 1.923 4.13 4.13 0 002.396.66c1.857.038 3.38-.701 4.16-2.438a23.21 23.21 0 00.978-3.423zm18.153 7.988h-2.377l-.099-1.994a7.035 7.035 0 01-3.825 2.113 7.293 7.293 0 01-4.029-.301 4.151 4.151 0 01-2.015-1.529 4.234 4.234 0 01-.77-2.428 4.121 4.121 0 01.592-2.652 4.04 4.04 0 012.106-1.686c1.642-.54 3.319-.96 5.02-1.254a13.19 13.19 0 012.098-.345c.7-.044.916-.339.879-1.022-.08-1.436-.774-2.464-2.247-2.734a9.931 9.931 0 00-3.28 0 2.463 2.463 0 00-1.429.718 2.522 2.522 0 00-.7 1.451c-.045.196-.1.389-.167.577h-2.365a4.438 4.438 0 01.486-2.4 4.362 4.362 0 011.681-1.763 7.963 7.963 0 018.046-.176c1.857.947 2.408 2.71 2.414 4.697v10.032c.012.207-.006.413-.019.696zm-2.519-7.9c-1.238.219-2.383.407-3.546.627-1.05.178-2.084.436-3.095.77a2.158 2.158 0 00-1.161.99 2.204 2.204 0 00-.226 1.519c.118.947.749 1.567 1.857 1.837 3.64.878 6.672-1.887 6.171-5.744zm38.165 7.931c-.879 0-1.566-.038-2.241 0a1.305 1.305 0 01-1.275-.627c-1.758-2.395-3.565-4.759-5.36-7.129a1.183 1.183 0 00-.167-.15c-.557.514-1.151 1.009-1.671 1.56a1.348 1.348 0 00-.267.841v5.442h-2.438c0-.276-.037-.552-.037-.827V3.93c0-.765.204-1.04.959-.953.501.029 1.003.029 1.504 0v13.349c.365-.314.619-.496.805-.684 2.055-1.88 4.122-3.705 6.152-5.586a2.01 2.01 0 011.585-.627c.817.056 1.634 0 2.698 0l-7.26 6.665 7.013 9.549zm-18.043-.025h-2.432v-1.022c0-2.979.037-5.963 0-8.948-.044-2.307-1.003-3.642-2.68-3.956a4.223 4.223 0 00-2.974.404 4.31 4.31 0 00-1.978 2.286 6.636 6.636 0 00-.439 2.25c-.05 2.666 0 5.33 0 8.001v.966h-2.42V9.53h2.296l.068 1.549c.113-.055.22-.12.322-.195 1.98-1.818 4.295-2.019 6.691-1.204 2.29.778 3.385 2.684 3.478 4.96.186 3.63.068 7.273.068 10.979zM15.548 0l1.393.313a13.794 13.794 0 017.353 4.427 14.092 14.092 0 013.373 7.963 13.743 13.743 0 01-2.78 9.73c-.197.264-.45.484-.86.916a9.922 9.922 0 010-1.46 7.096 7.096 0 00-.247-3.793 7.01 7.01 0 00-2.166-3.104 22.118 22.118 0 00-4.259-2.628c-1.708-.89-3.553-1.517-5.248-2.439-1.696-.921-2.928-2.345-3.058-4.451a4.848 4.848 0 01.937-3.391A4.732 4.732 0 0112.955.25c.241-.057.476-.157.711-.232L15.548 0zm39.47 9.787h-2.475c0-.138-.069-.295-.1-.451-.488-2.621-2.19-4.164-4.846-4.17a12.416 12.416 0 00-3.584.54 3.263 3.263 0 00-1.537.979 3.328 3.328 0 00-.784 1.66c-.334 1.75.465 3.135 2.266 3.705 1.566.502 3.194.803 4.778 1.255 1.301.284 2.575.684 3.807 1.197a5.59 5.59 0 012.087 1.805 5.71 5.71 0 01.623 5.352 5.64 5.64 0 01-1.615 2.248 8.768 8.768 0 01-5.007 1.969c-2.476.25-4.834.037-7.013-1.254-2.179-1.292-3.163-3.26-3.25-5.825h2.538l.112.627c.107.775.416 1.506.896 2.12a4.336 4.336 0 001.833 1.366 8.855 8.855 0 007.13-.113 3.29 3.29 0 001.435-1.05 3.352 3.352 0 00.689-1.652c.247-1.881-.675-3.21-2.699-3.762-1.646-.452-3.311-.803-4.952-1.254a18.927 18.927 0 01-2.847-.86 5.579 5.579 0 01-2.297-1.757 5.71 5.71 0 01-.775-5.58 5.637 5.637 0 011.73-2.33c3.218-2.747 9.283-2.477 12.155.545a6.13 6.13 0 011.345 2.161 6.18 6.18 0 01.357 2.529zm28.707 4.772a4.546 4.546 0 01.422-2.297 4.481 4.481 0 011.503-1.772c2.228-1.624 6.19-1.7 8.51-.207.633.37 1.16.9 1.53 1.537.37.637.573 1.36.588 2.1.068 3.868 0 7.737 0 11.662h-2.365c0-.571-.055-1.16-.093-1.881l-.618.507a7.157 7.157 0 01-3.37 1.583 7.112 7.112 0 01-3.699-.329 4 4 0 01-2.035-1.365 4.087 4.087 0 01-.874-2.309 4.3 4.3 0 01.397-2.599 4.225 4.225 0 011.831-1.865c1.727-1.01 3.714-1.097 5.57-1.46.787-.158 1.585-.227 2.353-.427a.872.872 0 00.538-.627 2.857 2.857 0 00-.647-2.095 2.791 2.791 0 00-.868-.693 2.757 2.757 0 00-1.066-.297 9.734 9.734 0 00-2.698 0 2.633 2.633 0 00-1.616.713c-.443.417-.73.976-.817 1.582a.91.91 0 01-.619.539 13.7 13.7 0 01-1.857 0zM93.92 17.65c-2.154.426-4.216.815-6.258 1.254a2.92 2.92 0 00-1.238.709c-.27.237-.475.538-.599.877a2.176 2.176 0 00.3 2.045c.216.288.5.517.825.664a5.01 5.01 0 005.224-.771c1.541-1.148 1.814-2.84 1.745-4.778zm-35.485.326c0-3.305.836-5.888 3.38-7.58a7.342 7.342 0 016.917-.567 7.438 7.438 0 012.85 2.187 7.568 7.568 0 011.51 3.282 10.36 10.36 0 01-.347 5.756 7.021 7.021 0 01-2.723 3.66 6.872 6.872 0 01-4.37 1.18c-3.819-.175-6.332-2.438-7.013-6.062-.13-.734-.173-1.48-.204-1.856zm2.426-.276c.163.967.39 1.923.681 2.859.36.875.97 1.621 1.75 2.143a4.66 4.66 0 005.252-.045 4.755 4.755 0 001.713-2.173 8.283 8.283 0 00.186-5.236c-.62-2.307-2.228-3.586-4.488-3.611a4.41 4.41 0 00-2.965.897 4.514 4.514 0 00-1.67 2.639 25.91 25.91 0 00-.465 2.527h.006zm57.426 2.696h2.476a2.898 2.898 0 00.566 1.773c.377.51.912.88 1.52 1.048a5.732 5.732 0 004.908-.395c.32-.187.58-.465.748-.799.168-.333.237-.709.199-1.082a1.657 1.657 0 00-.391-.99 1.627 1.627 0 00-.908-.54c-1.368-.376-2.761-.627-4.141-.984a14.72 14.72 0 01-1.634-.47 3.844 3.844 0 01-1.907-1.245 3.932 3.932 0 01-.885-2.116 4.141 4.141 0 01.348-2.403 4.068 4.068 0 011.633-1.779 7.392 7.392 0 017.718-.213 4.485 4.485 0 011.834 1.795c.425.766.62 1.641.562 2.519h-2.476a2.719 2.719 0 00-.549-1.707 2.654 2.654 0 00-1.488-.977c-1.541-.445-3.094-.426-4.369.627a1.8 1.8 0 00-.6.778 1.826 1.826 0 00.313 1.872c.219.252.502.438.819.535 1.234.369 2.486.672 3.751.91.778.157 1.542.382 2.284.67.7.283 1.311.755 1.767 1.364.456.608.739 1.332.819 2.091a4.235 4.235 0 01-.364 2.22 4.186 4.186 0 01-1.442 1.711c-2.433 1.812-6.951 1.73-9.285-.188a4.918 4.918 0 01-1.386-1.792 4.984 4.984 0 01-.44-2.233zM79.38 25.625h-2.376V3.053h2.382l-.006 22.572zm23.978-.025h-2.345V9.543h2.333v1.994a5.978 5.978 0 012.639-1.92 5.9 5.9 0 013.241-.237v2.458a3.506 3.506 0 01-.576 0c-2.995-.533-5.267 1.88-5.248 4.953v8c0 .251-.025.502-.044.81zm8.709-16.095h2.346v16.09h-2.346V9.504zm-.297-2.52V3.944h3.027v3.04h-3.027z"/></g><defs><clipPath id="clip0_12359_512"><path fill="#fff" d="M0 0h201.462v28.064H0z"/></clipPath></defs></svg>