<svg width="77" height="39" fill="none" xmlns="http://www.w3.org/2000/svg"><path d="M71.867 32.252l-1.934-4.588h-3.05l3.538 7.091v3.907h2.889v-3.897l3.532-7.091h-3.05l-1.925 4.578zm-6.078 6.42V27.674h-2.832v6.38l-3.688-6.39H56.43v10.998h2.84v-6.387l3.697 6.397h2.822zm-16.926-4.103l1.073-3.474 1.08 3.474h-2.153zm3.424 4.102h3.06l-4.064-10.997H48.59l-4.04 10.998h3.05l.564-1.822h3.563l.56 1.822zm-11.555-5.855h-1.63v-2.861h1.63a1.356 1.356 0 011.103.445 1.7 1.7 0 01.373 1.124 1.236 1.236 0 01-.367.94 1.543 1.543 0 01-1.109.352zm0-5.142h-4.467v10.998h2.836v-3.566h1.631a5.464 5.464 0 002.311-.452 3.543 3.543 0 001.519-1.272 3.352 3.352 0 00.531-1.87 3.725 3.725 0 00-.531-1.967 3.622 3.622 0 00-1.522-1.366 5.062 5.062 0 00-2.311-.495l.003-.01zm-6.804.01h-3.74l-2.311 7.294-2.311-7.294h-3.727V38.68h2.845v-2.077l-.28-5.59 2.548 7.667h1.856l2.552-7.668-.274 5.59v2.078h2.845l-.003-10.997zm-16.507 5.285v.417a4.355 4.355 0 01-.518 2.326 1.646 1.646 0 01-1.476.823 1.66 1.66 0 01-1.508-.813 4.446 4.446 0 01-.509-2.336v-.417c0-2.086.668-3.13 2.004-3.132a1.66 1.66 0 011.486.803c.35.537.521 1.31.521 2.33zm2.899.417v-.4a6.28 6.28 0 00-.627-2.89 4.6 4.6 0 00-1.744-1.901 5.214 5.214 0 00-5.087 0 4.538 4.538 0 00-1.73 1.9 6.37 6.37 0 00-.62 2.89v.4a6.38 6.38 0 00.62 2.891c.383.785.99 1.44 1.747 1.884a4.902 4.902 0 002.558.656 4.851 4.851 0 002.536-.656 4.508 4.508 0 001.733-1.894 6.338 6.338 0 00.624-2.89l-.01.01zM9.577 34.88H6.748a1.523 1.523 0 01-.472 1.229 2.04 2.04 0 01-1.34.387 1.91 1.91 0 01-1.103-.276 1.597 1.597 0 01-.575-.94 7.613 7.613 0 01-.178-1.875v-.475a6.928 6.928 0 01.195-1.838c.082-.378.286-.718.581-.97a1.66 1.66 0 011.02-.292c.674 0 1.156.138 1.446.413a1.756 1.756 0 01.443 1.31h2.829a4.603 4.603 0 00-.677-2.087 3.843 3.843 0 00-1.595-1.425 5.45 5.45 0 00-2.446-.54 4.578 4.578 0 00-2.463.655 4.355 4.355 0 00-1.65 1.884 6.714 6.714 0 00-.581 2.89v.469a6.952 6.952 0 00.558 2.897 4.15 4.15 0 001.63 1.87c.775.452 1.661.68 2.559.656a5.54 5.54 0 002.39-.488 3.82 3.82 0 001.621-1.383 3.958 3.958 0 00.637-2.071zm24.021-12.679a1.603 1.603 0 00-.773.18 1.36 1.36 0 00-.72 1.21 1.358 1.358 0 00.72 1.219 1.69 1.69 0 001.545 0c.22-.115.403-.289.529-.501.128-.218.194-.466.191-.718a1.357 1.357 0 00-.72-1.21 1.602 1.602 0 00-.772-.18zm-7.24.44h-1.65v-2.268h1.776c.86 0 1.29.403 1.29 1.21a.977.977 0 01-.33.76 1.611 1.611 0 01-1.07.298h-.016zm-.472-6.443c.437-.035.874.062 1.254.279a1.057 1.057 0 01.39.92.941.941 0 01-.373.833 2.398 2.398 0 01-1.294.255h-1.166v-2.293l1.189.006zm2.971 3.15a2.143 2.143 0 001.156-.931 2.82 2.82 0 00.363-1.436 2.56 2.56 0 00-.277-1.302 2.583 2.583 0 00-.895-.992c-.784-.517-1.884-.776-3.302-.776h-4.04v11h4.496c2.826 0 4.239-1.092 4.239-3.276a2.52 2.52 0 00-.42-1.426 2.104 2.104 0 00-1.32-.862zm-11.508-.145v.433a4.393 4.393 0 01-.519 2.326 1.76 1.76 0 01-1.485.805 1.776 1.776 0 01-1.486-.805c-.35-.544-.525-1.32-.525-2.326v-.433c0-2.09.667-3.136 2-3.136a1.68 1.68 0 011.506.806c.348.538.522 1.314.522 2.33h-.013zm2.895.433v-.416a6.328 6.328 0 00-.627-2.89 4.568 4.568 0 00-1.744-1.901 5.194 5.194 0 00-5.087 0 4.517 4.517 0 00-1.73 1.9 6.328 6.328 0 00-.62 2.89v.417a6.32 6.32 0 00.62 2.887c.378.787.98 1.447 1.734 1.897a4.944 4.944 0 002.561.655 4.867 4.867 0 002.532-.655 4.485 4.485 0 001.737-1.897c.433-.9.647-1.89.624-2.887zM4.992 22.657H3.34v-2.284h1.773c.86 0 1.292.403 1.294 1.21a.977.977 0 01-.33.76 1.6 1.6 0 01-1.067.298l-.02.016zm-.472-6.459c.437-.035.874.062 1.254.279a1.063 1.063 0 01.39.92.94.94 0 01-.373.833 2.408 2.408 0 01-1.295.255H3.331v-2.293l1.189.006zm2.97 3.15a2.143 2.143 0 001.156-.931 2.84 2.84 0 00.357-1.436c.025-.45-.07-.9-.276-1.303a2.573 2.573 0 00-.896-.99c-.78-.518-1.885-.777-3.302-.777H.492v11h4.5c2.826 0 4.239-1.092 4.239-3.276a2.546 2.546 0 00-.42-1.426 2.114 2.114 0 00-1.32-.862m42.26-10.224c-.184 0-.365-.048-.524-.14a1.085 1.085 0 01-.41-.4 1.16 1.16 0 01-.155-.6 1.774 1.774 0 01.08-.57c.056-.163.14-.314.247-.45l.046-.029 1.79 1.966a2.889 2.889 0 01-1.074.21v.013zm-.501-6.102a.835.835 0 01.218-.596.826.826 0 01.633-.236.714.714 0 01.562.24.783.783 0 01.214.537 1.017 1.017 0 01-.119.468 1.4 1.4 0 01-.528.492l-.449.288a3.272 3.272 0 01-.4-.636 1.34 1.34 0 01-.131-.566v.01zm6.625 8.124l-1.703-1.917c.693-.911 1.041-2.145 1.043-3.703h-2.268a3.863 3.863 0 01-.452 1.832l-1.558-1.753.624-.44a3.724 3.724 0 001.063-1.09c.262-.402.402-.87.402-1.348a2.623 2.623 0 00-.368-1.372A2.65 2.65 0 0051.627.37 3.075 3.075 0 0050.098 0a3.398 3.398 0 00-1.667.397c-.47.25-.858.629-1.12 1.09a3.17 3.17 0 00-.164 2.708c.184.437.415.853.69 1.241l-.076.046a8.837 8.837 0 00-1.007.82 3.058 3.058 0 00-.617.848c-.154.332-.23.694-.225 1.059a2.98 2.98 0 00.442 1.612c.305.481.745.864 1.265 1.101a4.412 4.412 0 001.925.393 6.062 6.062 0 001.492-.17c.46-.123.904-.302 1.32-.534l.489.544 3.03-.01zm-12.06-8.717V.134h-7.744v11.02h7.715V8.882h-4.88V6.616h4.117V4.424h-4.117V2.438l4.91-.01zm-9.273 4.916H31.72a1.523 1.523 0 01-.472 1.232 2.048 2.048 0 01-1.32.383 1.903 1.903 0 01-1.103-.275 1.617 1.617 0 01-.578-.94 7.604 7.604 0 01-.178-1.872v-.458a6.96 6.96 0 01.195-1.839 1.78 1.78 0 01.581-.983 1.66 1.66 0 011.02-.292c.676 0 1.158.138 1.446.413a1.755 1.755 0 01.443 1.311h2.829a4.641 4.641 0 00-.66-2.097A3.905 3.905 0 0032.327.5a5.475 5.475 0 00-2.46-.51 4.565 4.565 0 00-2.46.655 4.332 4.332 0 00-1.65 1.884 6.67 6.67 0 00-.584 2.89v.462a6.91 6.91 0 00.561 2.897 4.135 4.135 0 001.628 1.868 4.851 4.851 0 002.562.655 5.564 5.564 0 002.39-.485 3.875 3.875 0 001.617-1.383c.4-.62.616-1.338.624-2.074l-.013-.016zM23.443.157h-2.83v10.998h2.83V.157zm-8.726 8.724V.157h-2.829v10.998h7.395V8.88h-4.566zM4.316 7.055l1.073-3.477L6.47 7.055H4.315zm3.427 4.1H10.8L6.735.157H4.04L.003 11.155h3.054l.561-1.819h3.56l.564 1.819z" fill="#fff"/></svg>