<svg width="58" height="62" viewBox="0 0 58 62" fill="none" xmlns="http://www.w3.org/2000/svg">
<path fill-rule="evenodd" clip-rule="evenodd" d="M46.0586 27.9861H53.5213C54.3458 27.9861 55.0141 27.3178 55.0141 26.4933V21.7408C57.3454 20.9163 58.5671 18.358 57.7431 16.0262C56.9186 13.6948 54.3604 12.473 52.0286 13.2971C49.6973 14.1216 48.4756 16.6798 49.2996 19.0117C49.7506 20.2867 50.7536 21.2898 52.0286 21.7408V25.001H46.0586V27.9861ZM53.5793 18.9396C54.4351 18.9396 55.1288 18.2458 55.1288 17.3901C55.1288 16.5343 54.4351 15.8405 53.5793 15.8405C52.7235 15.8405 52.0298 16.5343 52.0298 17.3901C52.0298 18.2458 52.7235 18.9396 53.5793 18.9396Z" fill="white"/>
<path fill-rule="evenodd" clip-rule="evenodd" d="M32.0036 49.7161L32.0036 57.1788C32.0036 58.0033 32.6719 58.6715 33.4964 58.6715L38.2489 58.6715C39.0734 61.0029 41.6317 62.2246 43.9635 61.4005C46.2949 60.576 47.5166 58.0179 46.6926 55.6861C45.8681 53.3547 43.3098 52.133 40.978 52.9571C39.703 53.408 38.6999 54.4111 38.2489 55.6861L34.9887 55.6861L34.9887 49.7161L32.0036 49.7161ZM41.0505 57.2369C41.0505 58.0926 41.7443 58.7864 42.6001 58.7864C43.4558 58.7864 44.1496 58.0926 44.1496 57.2369C44.1496 56.3811 43.4558 55.6873 42.6001 55.6873C41.7443 55.6873 41.0505 56.3811 41.0505 57.2369Z" fill="white"/>
<path fill-rule="evenodd" clip-rule="evenodd" d="M11.9414 27.9861H4.47866C3.65418 27.9861 2.98594 27.3178 2.98594 26.4933V21.7408C0.654599 20.9163 -0.567097 18.358 0.256933 16.0262C1.08142 13.6948 3.6396 12.473 5.9714 13.2971C8.30273 14.1216 9.52443 16.6798 8.7004 19.0117C8.24944 20.2867 7.24639 21.2898 5.9714 21.7408V25.001H11.9414V27.9861ZM4.42069 18.9395C3.56491 18.9395 2.87117 18.2457 2.87117 17.3899C2.87117 16.5342 3.56491 15.8404 4.42069 15.8404C5.27647 15.8404 5.97021 16.5342 5.97021 17.3899C5.97021 18.2457 5.27647 18.9395 4.42069 18.9395Z" fill="white"/>
<path fill-rule="evenodd" clip-rule="evenodd" d="M42.6477 36.5153H53.5222C54.3467 36.5153 55.0149 37.1835 55.0149 38.0081V42.7606C57.3463 43.5851 58.568 46.1433 57.7439 48.4752C56.9194 50.8066 54.3612 52.0283 52.0295 51.2042C49.6981 50.3797 48.4764 47.8215 49.3005 45.4896C49.7514 44.2146 50.7545 43.2115 52.0295 42.7606V39.5004H42.6477V36.5153ZM53.5801 45.5619C54.4359 45.5619 55.1296 46.2556 55.1296 47.1114C55.1296 47.9672 54.4359 48.6609 53.5801 48.6609C52.7243 48.6609 52.0306 47.9672 52.0306 47.1114C52.0306 46.2556 52.7243 45.5619 53.5801 45.5619Z" fill="white"/>
<path fill-rule="evenodd" clip-rule="evenodd" d="M23.4765 48.8633L23.4765 57.179C23.4765 58.0034 22.8083 58.6717 21.9838 58.6717L17.2312 58.6717C16.4067 61.003 13.8485 62.2247 11.5166 61.4007C9.18525 60.5762 7.96352 58.018 8.78758 55.6862C9.61208 53.3549 12.1703 52.1332 14.5022 52.9572C15.7772 53.4082 16.7803 54.4112 17.2312 55.6862L20.4915 55.6862L20.4915 48.8633L23.4765 48.8633ZM14.4296 57.237C14.4296 58.0928 13.7359 58.7865 12.8801 58.7865C12.0243 58.7865 11.3306 58.0928 11.3306 57.237C11.3306 56.3812 12.0243 55.6875 12.8801 55.6875C13.7359 55.6875 14.4296 56.3812 14.4296 57.237Z" fill="white"/>
<path fill-rule="evenodd" clip-rule="evenodd" d="M15.3523 36.5155H4.47781C3.65333 36.5155 2.98509 37.1838 2.98509 38.0083V42.7608C0.653749 43.5853 -0.567948 46.1436 0.256083 48.4754C1.08057 50.8068 3.63875 52.0285 5.97055 51.2045C8.30188 50.38 9.52358 47.8217 8.69955 45.4899C8.24859 44.2149 7.24554 43.2118 5.97055 42.7608V39.5006H15.3523V36.5155ZM4.41988 45.5621C3.5641 45.5621 2.87036 46.2559 2.87036 47.1116C2.87036 47.9674 3.5641 48.6612 4.41988 48.6612C5.27565 48.6612 5.9694 47.9674 5.9694 47.1116C5.9694 46.2559 5.27565 45.5621 4.41988 45.5621Z" fill="white"/>
<path d="M47.5123 17.2295C46.4823 6.89158 37.2623 -0.645202 26.9243 0.384825C18.0183 1.27668 10.9714 8.32357 10.0796 17.2295L9.82837 19.7418L10.268 22.3169L14.4635 45.7311C14.7273 47.2511 15.7573 48.5197 17.1893 49.0976C24.6256 52.1374 32.9537 52.1374 40.39 49.0976C41.822 48.5197 42.852 47.2511 43.1158 45.7186L47.3113 22.3169L47.7635 19.7544L47.5123 17.2295ZM17.855 7.01719C24.5251 0.975207 34.8254 1.47766 40.8674 8.14771C43.0028 10.4967 44.3971 13.4235 44.887 16.5638C41.2191 14.4912 34.7123 13.5114 28.7834 13.5114C22.8544 13.5114 16.3602 14.4786 12.6798 16.5638C13.2702 12.8833 15.0916 9.51689 17.855 7.01719ZM40.6538 45.2915C40.5408 45.9698 40.076 46.5225 39.4479 46.7863C32.6271 49.5749 24.9773 49.5749 18.144 46.7863C17.5159 46.5351 17.0637 45.9698 16.9381 45.3041L13.2576 24.6784C17.0386 26.5626 23.2438 27.4293 28.7959 27.4293C34.348 27.4293 40.5659 26.5626 44.3343 24.6784L40.6538 45.2915ZM45.2261 20.8472C45.1382 20.9351 45.0754 21.0356 45.0251 21.1487C43.4927 22.9952 37.3879 24.9296 28.7959 24.9296C20.204 24.9296 14.0992 22.9952 12.5667 21.1487C12.5165 21.0356 12.4411 20.9351 12.3658 20.8472C12.3155 20.7718 12.2904 20.6839 12.2778 20.5834L12.3155 20.2191C12.931 18.4731 19.0484 16.0111 28.8085 16.0111C38.5435 16.0111 44.6609 18.4605 45.2889 20.2066L45.3266 20.5834C45.3015 20.6839 45.2764 20.7718 45.2261 20.8472Z" fill="white"/>
</svg>
