<svg width="64" height="64" viewBox="0 0 64 64" fill="none" xmlns="http://www.w3.org/2000/svg">
<g clip-path="url(#clip0_12404_711)">
<path d="M60.799 42.0181V36.9233C60.799 36.04 60.0826 35.3237 59.1989 35.3237H51.1993V28.9238H59.1989C60.0826 28.9238 60.799 28.2075 60.799 27.3237V22.2294C63.298 21.3456 64.6076 18.6034 63.7243 16.1039C62.8405 13.6049 60.0983 12.2953 57.5988 13.1786C55.0997 14.0624 53.7901 16.8046 54.6735 19.3041C55.1569 20.6708 56.2321 21.746 57.5988 22.2294V25.7241H51.1993V20.9242C51.1993 20.0405 50.483 19.3241 49.5992 19.3241H44.7994V12.9242C44.7994 5.85536 39.0689 0.124878 32.0001 0.124878C24.9307 0.124878 19.2002 5.85536 19.2002 12.9242V19.3241H14.4009C13.5171 19.3241 12.8008 20.0405 12.8008 20.9238V25.7236H6.40087V22.2294C8.90039 21.3456 10.21 18.603 9.32617 16.1039C8.44287 13.6049 5.70019 12.2948 3.20116 13.1786C0.702126 14.0619 -0.607936 16.8046 0.275856 19.3036C0.759255 20.6708 1.83445 21.746 3.20116 22.2294V27.3237C3.20116 28.2075 3.91747 28.9238 4.80126 28.9238H12.8008V35.3232H4.80126C3.91747 35.3232 3.20116 36.0395 3.20116 36.9233V42.0176C0.701638 42.9014 -0.607936 45.6436 0.275856 48.1431C1.15916 50.6421 3.90184 51.9517 6.40087 51.0684C8.90039 50.1846 10.21 47.4424 9.32666 44.9429C8.84326 43.5762 7.76806 42.501 6.40087 42.0176V38.5229H12.8008V46.5229C12.8008 47.4062 13.5171 48.1226 14.4009 48.1226H25.6001V57.7222H22.1055C21.2222 55.2232 18.4795 53.9131 15.9805 54.7969C13.481 55.6807 12.1714 58.4229 13.0552 60.9224C13.9385 63.4214 16.6812 64.731 19.1802 63.8477C20.5474 63.3643 21.6221 62.2891 22.1055 60.9224H27.2002C28.0835 60.9224 28.7999 60.2061 28.7999 59.3223V48.1231H35.1998V59.3223C35.1998 60.2061 35.9161 60.9224 36.7994 60.9224H41.8941C42.7774 63.4214 45.5201 64.731 48.0191 63.8477C50.5187 62.9639 51.8282 60.2217 50.9444 57.7222C50.0611 55.2232 47.3185 53.9131 44.8194 54.7969C43.4522 55.2803 42.3775 56.3555 41.8941 57.7222H38.3995V48.1226H49.5987C50.4825 48.1226 51.1988 47.4062 51.1988 46.5229V38.5229H57.5988V42.0176C55.0992 42.9014 53.7897 45.6436 54.673 48.1431C55.5568 50.6421 58.2994 51.9517 60.7985 51.0684C63.298 50.1846 64.6076 47.4424 63.7238 44.9429C63.2409 43.5762 62.1657 42.501 60.799 42.0181ZM59.1989 16.1239C60.0826 16.1239 60.799 16.8403 60.799 17.724C60.799 18.6078 60.0826 19.3241 59.1989 19.3241C58.3156 19.3241 57.5992 18.6078 57.5992 17.724C57.6002 16.8407 58.316 16.1254 59.1989 16.1239ZM4.80126 16.1239C5.68456 16.1239 6.40087 16.8403 6.40087 17.724C6.40087 18.6078 5.68456 19.3241 4.80126 19.3241C3.91747 19.3241 3.20116 18.6078 3.20116 17.724C3.20164 16.8407 3.91747 16.1244 4.80126 16.1239ZM4.80126 48.1231C3.91747 48.1231 3.20116 47.4067 3.20116 46.5229C3.20116 45.6396 3.91747 44.9233 4.80126 44.9233C5.68456 44.9233 6.40087 45.6396 6.40087 46.5229C6.40038 47.4062 5.68456 48.1226 4.80126 48.1231ZM17.6006 60.9224C16.7168 60.9224 16.0005 60.2061 16.0005 59.3223C16.0005 58.439 16.7168 57.7227 17.6006 57.7227C18.4844 57.7227 19.2007 58.439 19.2007 59.3223C19.2002 60.2061 18.4839 60.9219 17.6006 60.9224ZM46.3995 57.7227C47.2828 57.7227 47.9991 58.439 47.9991 59.3223C47.9991 60.2061 47.2828 60.9224 46.3995 60.9224C45.5157 60.9224 44.7994 60.2061 44.7994 59.3223C44.8004 58.4395 45.5162 57.7237 46.3995 57.7227ZM22.4004 12.9242C22.4004 7.62246 26.6983 3.32459 32.0001 3.32459C37.3018 3.32459 41.5997 7.62246 41.5997 12.9242V19.3241H22.4004V12.9242ZM47.9996 44.9228H16.0005V22.5239H47.9991V44.9228H47.9996ZM59.1989 48.1231C58.3156 48.1231 57.5992 47.4067 57.5992 46.5229C57.5992 45.6396 58.3156 44.9233 59.1989 44.9233C60.0826 44.9233 60.799 45.6396 60.799 46.5229C60.7975 47.4062 60.0822 48.1221 59.1989 48.1231Z" fill="white"/>
<path d="M32.0001 28.9238C31.1163 28.9238 30.4 29.6401 30.4 30.5234V36.9234C30.4 37.8071 31.1163 38.5235 32.0001 38.5235C32.8834 38.5235 33.5997 37.8071 33.5997 36.9234V30.5234C33.6002 29.6401 32.8839 28.9238 32.0001 28.9238Z" fill="white"/>
</g>
<defs>
<clipPath id="clip0_12404_711">
<rect width="64" height="64" fill="white"/>
</clipPath>
</defs>
</svg>
